<svg xmlns="http://www.w3.org/2000/svg" viewBox="0 0 500 500"><g id="freepik--background-simple--inject-2"><g style="opacity:0.7000000000000001"><path d="M436,138.26c-22.93-34.47-66.52-54.94-108.66-51s-80.92,32-96.68,70.11C222.56,176.79,220,198.61,208,216c-12.35,17.84-32.91,28.48-53.1,37.37s-39.62,12.08-55.54,27-27,43.92-17.63,63.36c9.57,19.76,33.75,27.66,51.2,41.46s28.57,34.1,46.4,47.44c16.47,12.32,37.7,17.75,58.51,17.71s41.31-5.24,60.75-12.43c60.33-22.29,117.16-63.77,141.22-121.83C484.35,208.6,436,138.26,436,138.26Z" style="fill:#1AEF59"></path></g><g style="opacity:0.30000000000000004"><path d="M436,138.26c-22.93-34.47-66.52-54.94-108.66-51s-80.92,32-96.68,70.11C222.56,176.79,220,198.61,208,216c-12.35,17.84-32.91,28.48-53.1,37.37s-39.62,12.08-55.54,27-27,43.92-17.63,63.36c9.57,19.76,33.75,27.66,51.2,41.46s28.57,34.1,46.4,47.44c16.47,12.32,37.7,17.75,58.51,17.71s41.31-5.24,60.75-12.43c60.33-22.29,117.16-63.77,141.22-121.83C484.35,208.6,436,138.26,436,138.26Z" style="fill:#fff"></path></g></g><g id="freepik--Clouds--inject-2"><path d="M95.29,351.46a19.83,19.83,0,0,1,26.37,18.71v.12a6.95,6.95,0,0,1,10.35-.67,15.59,15.59,0,0,1,31.08,1.58,4.57,4.57,0,0,1,2.7-.86,4.69,4.69,0,0,1,4.64,3.93H60.16a13.91,13.91,0,0,1,23-10.57A19.89,19.89,0,0,1,88,356.06" style="fill:none;stroke:#263238;stroke-linecap:round;stroke-linejoin:round"></path><path d="M143,167.89H253.23a13.91,13.91,0,0,0-23-10.57,19.81,19.81,0,0,0-38.53,6.47v.12a6.95,6.95,0,0,0-10.35-.67,15.59,15.59,0,0,0-31.08,1.58,4.57,4.57,0,0,0-2.7-.86A4.69,4.69,0,0,0,143,167.89Z" style="fill:none;stroke:#263238;stroke-miterlimit:10"></path><path d="M173,99.73a12.53,12.53,0,0,1-1.88-.61c-1.13-.44-2.59-1.19-4.1-1.92a12.25,12.25,0,0,0-4-1.2c-1.07-.12-1.8,0-1.9-.29s.53-.8,1.83-1a8.31,8.31,0,0,1,4.88.84,14.67,14.67,0,0,1,3.81,2.82C172.51,99.17,173,99.73,173,99.73Z" style="fill:#999"></path><path d="M179.63,94.42s-.54.2-1.36.53-1.84.79-3,1.29c-2.28,1-4.21,2-4.53,1.59-.15-.21.15-.72.81-1.35a10,10,0,0,1,3-2,6.72,6.72,0,0,1,3.6-.5,5.63,5.63,0,0,1,1.08.25Z" style="fill:#999"></path><path d="M160.78,103.69l-.37-.23c-.23-.15-.58-.35-1-.57a21.76,21.76,0,0,0-3.33-1.45c-2.64-1-5-.74-5.08-1.14,0-.18.54-.48,1.56-.63a8.88,8.88,0,0,1,4,.44,8,8,0,0,1,3.31,2.23,6.91,6.91,0,0,1,.72,1Z" style="fill:#999"></path><path d="M163.38,98.22s-.38.23-.95.55L160.32,100c-1.6.88-2.83,1.9-3.13,1.62-.14-.13,0-.55.4-1.1a6.6,6.6,0,0,1,2-1.75,5.35,5.35,0,0,1,2.62-.63A4.84,4.84,0,0,1,163.38,98.22Z" style="fill:#999"></path><path d="M158.59,95.11s-.89-.32-2.26-.89-3.22-1.4-5.23-2.06a14.39,14.39,0,0,0-5.31-.74c-1.38.08-2.26.34-2.39.1s.61-.94,2.16-1.4a10.58,10.58,0,0,1,6.12.26,15.58,15.58,0,0,1,5.14,3A22.06,22.06,0,0,1,158.59,95.11Z" style="fill:#999"></path><path d="M164.67,87.39l-.51.14-1.34.4a38.89,38.89,0,0,0-4.07,1.6c-3.07,1.38-5.05,3.42-5.48,3.09-.19-.15.06-.9.85-1.87A10.81,10.81,0,0,1,158,87.83a9.77,9.77,0,0,1,4.75-.83,9.23,9.23,0,0,1,1.44.24Z" style="fill:#999"></path><path d="M319.75,73.07H430a13.93,13.93,0,0,0-13.93-13.92,13.77,13.77,0,0,0-9,3.36A19.8,19.8,0,0,0,368.52,69v.12a6.95,6.95,0,0,0-10.35-.67A15.59,15.59,0,0,0,327.09,70a4.5,4.5,0,0,0-2.7-.86A4.69,4.69,0,0,0,319.75,73.07Z" style="fill:none;stroke:#263238;stroke-miterlimit:10"></path></g><g id="freepik--Building--inject-2"><path d="M444.65,193.35V450.67H173.91V201.19a7.84,7.84,0,0,1,7.84-7.84Z" style="fill:#1AEF59;stroke:#263238;stroke-linecap:round;stroke-linejoin:round"></path><path d="M444.65,193.35V450.67H173.91V201.19a7.84,7.84,0,0,1,7.84-7.84Z" style="fill:#bfbfbf;stroke:#263238;stroke-linecap:round;stroke-linejoin:round"></path><rect x="169.9" y="192.96" width="278.02" height="19.01" style="fill:#fff;stroke:#263238;stroke-linecap:round;stroke-linejoin:round"></rect><path d="M353.14,199.61H360" style="fill:#fff;stroke:#263238;stroke-miterlimit:10"></path><path d="M347.27,199.61h-4.92a.13.13,0,0,1,0,.06Z" style="fill:#fff;stroke:#263238;stroke-miterlimit:10"></path><path d="M338.68,199.61H252.59c28.55.35,57.57.38,86.1.1C338.69,199.68,338.68,199.64,338.68,199.61Z" style="fill:#fff;stroke:#263238;stroke-miterlimit:10"></path><rect x="428.25" y="366.17" width="15.4" height="5.96" transform="translate(871.89 738.3) rotate(180)" style="fill:#fff;stroke:#263238;stroke-miterlimit:10"></rect><rect x="410.37" y="366.17" width="15.4" height="5.96" transform="translate(836.14 738.3) rotate(180)" style="fill:#fff;stroke:#263238;stroke-miterlimit:10"></rect><rect x="419.14" y="358.55" width="15.4" height="5.96" transform="translate(853.68 723.07) rotate(180)" style="fill:#fff;stroke:#263238;stroke-miterlimit:10"></rect><rect x="213.71" y="350.55" width="15.4" height="5.96" style="fill:#fff;stroke:#263238;stroke-miterlimit:10"></rect><rect x="231.59" y="350.55" width="15.4" height="5.96" style="fill:#fff;stroke:#263238;stroke-miterlimit:10"></rect><rect x="222.82" y="358.17" width="15.4" height="5.96" style="fill:#fff;stroke:#263238;stroke-miterlimit:10"></rect><rect x="198.4" y="380.65" width="65.18" height="70.02" style="fill:#fff;stroke:#263238;stroke-linecap:round;stroke-linejoin:round"></rect><rect x="202.64" y="384.57" width="56.7" height="66.1" style="fill:#263238;stroke:#999;stroke-linecap:round;stroke-linejoin:round"></rect><rect x="206.21" y="388.5" width="15.19" height="32.35" style="fill:#fff;stroke:#263238;stroke-linecap:round;stroke-linejoin:round"></rect><rect x="223.61" y="388.5" width="15.19" height="32.35" style="fill:#fff;stroke:#263238;stroke-linecap:round;stroke-linejoin:round"></rect><rect x="241.01" y="388.5" width="15.19" height="32.35" style="fill:#fff;stroke:#263238;stroke-linecap:round;stroke-linejoin:round"></rect><rect x="206.26" y="425.31" width="49.99" height="25.36" style="fill:#fff;stroke:#263238;stroke-linecap:round;stroke-linejoin:round"></rect><rect x="230.22" y="424.76" width="2.94" height="25.91" style="fill:#263238"></rect><line x1="205.39" y1="450.25" x2="257.67" y2="450.25" style="fill:none;stroke:#263238;stroke-miterlimit:10"></line><rect x="278.55" y="380.65" width="65.18" height="70.02" style="fill:#fff;stroke:#263238;stroke-linecap:round;stroke-linejoin:round"></rect><rect x="282.79" y="384.57" width="56.7" height="66.1" style="fill:#263238;stroke:#999;stroke-linecap:round;stroke-linejoin:round"></rect><rect x="286.36" y="388.5" width="15.19" height="32.35" style="fill:#fff;stroke:#263238;stroke-linecap:round;stroke-linejoin:round"></rect><rect x="303.76" y="388.5" width="15.19" height="32.35" style="fill:#fff;stroke:#263238;stroke-linecap:round;stroke-linejoin:round"></rect><rect x="321.16" y="388.5" width="15.19" height="32.35" style="fill:#fff;stroke:#263238;stroke-linecap:round;stroke-linejoin:round"></rect><rect x="286.41" y="425.31" width="49.99" height="25.36" style="fill:#fff;stroke:#263238;stroke-linecap:round;stroke-linejoin:round"></rect><rect x="310.37" y="424.76" width="2.95" height="25.91" style="fill:#263238"></rect><line x1="285.54" y1="450.25" x2="337.82" y2="450.25" style="fill:none;stroke:#263238;stroke-miterlimit:10"></line><rect x="358.7" y="380.65" width="65.18" height="70.02" style="fill:#fff;stroke:#263238;stroke-linecap:round;stroke-linejoin:round"></rect><rect x="362.94" y="384.57" width="56.7" height="66.1" style="fill:#263238;stroke:#999;stroke-linecap:round;stroke-linejoin:round"></rect><rect x="366.51" y="388.5" width="15.19" height="32.35" style="fill:#fff;stroke:#263238;stroke-linecap:round;stroke-linejoin:round"></rect><rect x="383.91" y="388.5" width="15.19" height="32.35" style="fill:#fff;stroke:#263238;stroke-linecap:round;stroke-linejoin:round"></rect><rect x="401.31" y="388.5" width="15.19" height="32.35" style="fill:#fff;stroke:#263238;stroke-linecap:round;stroke-linejoin:round"></rect><rect x="366.57" y="425.31" width="49.99" height="25.36" style="fill:#fff;stroke:#263238;stroke-linecap:round;stroke-linejoin:round"></rect><rect x="390.53" y="424.76" width="2.94" height="25.91" style="fill:#263238"></rect><line x1="365.69" y1="450.25" x2="417.97" y2="450.25" style="fill:none;stroke:#263238;stroke-miterlimit:10"></line><rect x="197.4" y="243.72" width="65.18" height="101.94" style="fill:#fff;stroke:#263238;stroke-linecap:round;stroke-linejoin:round"></rect><rect x="201.64" y="247.64" width="56.7" height="93.12" style="fill:#263238;stroke:#999;stroke-linecap:round;stroke-linejoin:round"></rect><rect x="205.21" y="251.56" width="15.19" height="32.35" style="fill:#fff;stroke:#263238;stroke-linecap:round;stroke-linejoin:round"></rect><rect x="222.61" y="251.56" width="15.19" height="32.35" style="fill:#fff;stroke:#263238;stroke-linecap:round;stroke-linejoin:round"></rect><rect x="240.01" y="251.56" width="15.19" height="32.35" style="fill:#fff;stroke:#263238;stroke-linecap:round;stroke-linejoin:round"></rect><rect x="205.26" y="288.38" width="49.99" height="48.03" style="fill:#fff;stroke:#263238;stroke-linecap:round;stroke-linejoin:round"></rect><rect x="229.22" y="287.83" width="2.94" height="52.28" style="fill:#263238"></rect><line x1="204.39" y1="313.32" x2="256.67" y2="313.32" style="fill:none;stroke:#263238;stroke-miterlimit:10"></line><rect x="195.27" y="341.04" width="69.34" height="4.15" style="fill:#999;stroke:#263238;stroke-linecap:round;stroke-linejoin:round"></rect><rect x="277.55" y="243.72" width="65.18" height="101.94" style="fill:#fff;stroke:#263238;stroke-linecap:round;stroke-linejoin:round"></rect><rect x="281.79" y="247.64" width="56.7" height="93.12" style="fill:#263238;stroke:#999;stroke-linecap:round;stroke-linejoin:round"></rect><rect x="285.36" y="251.56" width="15.19" height="32.35" style="fill:#fff;stroke:#263238;stroke-linecap:round;stroke-linejoin:round"></rect><rect x="302.76" y="251.56" width="15.19" height="32.35" style="fill:#fff;stroke:#263238;stroke-linecap:round;stroke-linejoin:round"></rect><rect x="320.16" y="251.56" width="15.19" height="32.35" style="fill:#fff;stroke:#263238;stroke-linecap:round;stroke-linejoin:round"></rect><rect x="285.41" y="288.38" width="49.99" height="48.03" style="fill:#fff;stroke:#263238;stroke-linecap:round;stroke-linejoin:round"></rect><rect x="309.37" y="287.83" width="2.94" height="52.28" style="fill:#263238"></rect><line x1="284.54" y1="313.32" x2="336.82" y2="313.32" style="fill:none;stroke:#263238;stroke-miterlimit:10"></line><rect x="275.42" y="341.04" width="69.34" height="4.15" style="fill:#999;stroke:#263238;stroke-linecap:round;stroke-linejoin:round"></rect><rect x="357.7" y="243.72" width="65.18" height="101.94" style="fill:#fff;stroke:#263238;stroke-linecap:round;stroke-linejoin:round"></rect><rect x="361.94" y="247.64" width="56.7" height="93.12" style="fill:#263238;stroke:#999;stroke-linecap:round;stroke-linejoin:round"></rect><rect x="365.51" y="251.56" width="15.19" height="32.35" style="fill:#fff;stroke:#263238;stroke-linecap:round;stroke-linejoin:round"></rect><rect x="382.91" y="251.56" width="15.19" height="32.35" style="fill:#fff;stroke:#263238;stroke-linecap:round;stroke-linejoin:round"></rect><rect x="400.31" y="251.56" width="15.19" height="32.35" style="fill:#fff;stroke:#263238;stroke-linecap:round;stroke-linejoin:round"></rect><rect x="365.57" y="288.38" width="49.99" height="48.03" style="fill:#fff;stroke:#263238;stroke-linecap:round;stroke-linejoin:round"></rect><rect x="389.53" y="287.83" width="2.94" height="52.28" style="fill:#263238"></rect><line x1="364.69" y1="313.32" x2="416.97" y2="313.32" style="fill:none;stroke:#263238;stroke-miterlimit:10"></line><rect x="355.57" y="341.04" width="69.34" height="4.15" style="fill:#999;stroke:#263238;stroke-linecap:round;stroke-linejoin:round"></rect><rect x="333.47" y="222.37" width="15.4" height="5.96" style="fill:#fff;stroke:#263238;stroke-miterlimit:10"></rect><rect x="351.35" y="222.37" width="15.4" height="5.96" style="fill:#fff;stroke:#263238;stroke-miterlimit:10"></rect><rect x="342.58" y="229.98" width="15.4" height="5.96" style="fill:#fff;stroke:#263238;stroke-miterlimit:10"></rect></g><g id="freepik--Character--inject-2"><path d="M164.23,206.08l4.63,2.15,4-4.46,1.52-5.05,1.08-1.86a1.75,1.75,0,0,0-1.83-.9c-1.22.25.8-2.35,2.12-3a28.62,28.62,0,0,1,3.57-1.28s-.92-1.81-3.83-1.77-6.63,4.09-6.63,4.09S164.76,199.78,164.23,206.08Z" style="fill:#fff;stroke:#263238;stroke-linecap:round;stroke-linejoin:round"></path><path d="M179.61,423.74s-2.54,6.58-6.46,5.85a56.15,56.15,0,0,0-10.87-1c-1.44.17-8.22,1.9-9.63-1.67-1.34-3.42,1.39-6.64,2.57-8.16a10.72,10.72,0,0,0,9-.26l9.12,5a5.43,5.43,0,0,1,3.58-1.94A2.1,2.1,0,0,1,179.61,423.74Z" style="fill:#999;stroke:#263238;stroke-linecap:round;stroke-linejoin:round"></path><path d="M164.12,418.47l.13.07a10.72,10.72,0,0,1-9,.26l.16-.21c1.08-1.42-.45-14.09-.45-14.09v-.72c3.59-3.9,9.64-1.19,9.64-1.19Z" style="fill:#fff;stroke:#263238;stroke-linecap:round;stroke-linejoin:round"></path><path d="M178.12,365c-2,3.56-4.3,3.37-5.92,6s-2.89,5-6.1,4.95a3,3,0,0,1-1.72-.44c-1.3-.89-1.11-2.94-1.64-4.58-.39-1.19-.57-1.94-.79-2.82,1.26.12,2.32-.19,2.39-1.25.41-6.45,2.29-6.76,4.6-8.14l-.06.3C178.51,359.84,180.11,361.45,178.12,365Z" style="fill:#999;stroke:#263238;stroke-linecap:round;stroke-linejoin:round"></path><path d="M169.8,352.71c-.22,2.21-.7,5.13-.86,6.05-2.31,1.38-4.19,1.69-4.6,8.14-.07,1.06-1.13,1.37-2.39,1.25-.18-.68-.4-1.43-.78-2.53s-.2-3.83.12-6.76c.23-2.09.54-4.25.79-5.88A29.25,29.25,0,0,0,169.8,352.71Z" style="fill:#fff;stroke:#263238;stroke-linecap:round;stroke-linejoin:round"></path><path d="M169.79,352.71a28.73,28.73,0,0,1-7.71.27c.24-1.6.43-2.69.43-2.69,4-2.84,7-1.57,7.32,0A9.15,9.15,0,0,1,169.79,352.71Z" style="fill:#fff;stroke:#263238;stroke-linecap:round;stroke-linejoin:round"></path><path d="M176.3,318.29c-2.81,10.85-2.49,33.69-3.84,34-1,.19-1.85.34-2.67.46a28.73,28.73,0,0,1-7.71.27c-2.14-.24-1.28,3.41-.79,5.88-.32,2.93-.48,5.73-.12,6.76.87,2.5.87,3.21,1.57,5.36.53,1.64.34,3.68,1.64,4.57,5.78.15,2,28.95,1.66,29.94-.45,1.44-12.71,5.84-13.43,5.76-1.53-13.84,0-35.19-4.42-48.38a203.19,203.19,0,0,0-11.16-26,21.71,21.71,0,0,1-12.7-19.68c2.63-2,5.72-4.32,8.35-6.36a30,30,0,0,1,6.29-4.08,10.11,10.11,0,0,1,7.32-.56c.36.62,1,1.18,1.35,1.8a33.56,33.56,0,0,1,25.48.35C176.48,309.78,177.23,314.74,176.3,318.29Z" style="fill:#263238;stroke:#263238;stroke-linecap:round;stroke-linejoin:round"></path><path d="M160.24,310.27a19,19,0,0,0-4.6,6.14,3.32,3.32,0,0,0-.44,1.78,1.34,1.34,0,0,0,1.16,1.24" style="fill:none;stroke:#7f7f7f;stroke-linecap:round;stroke-linejoin:round;stroke-width:0.75px"></path><path d="M168.32,321.9a107.24,107.24,0,0,1-7.89,20.3" style="fill:none;stroke:#7f7f7f;stroke-linecap:round;stroke-linejoin:round;stroke-width:0.75px"></path><path d="M172.2,322.73a97,97,0,0,1-4.37,21.85" style="fill:none;stroke:#7f7f7f;stroke-linecap:round;stroke-linejoin:round;stroke-width:0.75px"></path><path d="M172.5,316.83c0,1.09-.06,2.18-.12,3.28" style="fill:none;stroke:#7f7f7f;stroke-linecap:round;stroke-linejoin:round;stroke-width:0.75px"></path><path d="M129.15,326.06a5.55,5.55,0,0,1-.65-3.76" style="fill:none;stroke:#7f7f7f;stroke-linecap:round;stroke-linejoin:round;stroke-width:0.75px"></path><path d="M157.23,325.63C149,329,139,332.23,130.72,328" style="fill:none;stroke:#7f7f7f;stroke-linecap:round;stroke-linejoin:round;stroke-width:0.75px"></path><path d="M160,352.19c-5.65-6.28-.82-14.39-2-22.36,0-1-1.07-3-.76-4.2" style="fill:none;stroke:#7f7f7f;stroke-linecap:round;stroke-linejoin:round;stroke-width:0.75px"></path><path d="M159.55,316.73A30.19,30.19,0,0,1,165,312a1.54,1.54,0,0,1,1.15-.37c.61.15.78,1,.46,1.56a3.06,3.06,0,0,1-1.5,1.08" style="fill:none;stroke:#7f7f7f;stroke-linecap:round;stroke-linejoin:round;stroke-width:0.75px"></path><path d="M156.66,365.46a148.6,148.6,0,0,0-5.84,18" style="fill:none;stroke:#7f7f7f;stroke-linecap:round;stroke-linejoin:round;stroke-width:0.75px"></path><path d="M159.47,358.87c-.54,1.19-1.06,2.38-1.57,3.58" style="fill:none;stroke:#7f7f7f;stroke-linecap:round;stroke-linejoin:round;stroke-width:0.75px"></path><path d="M153.64,366,151.19,370" style="fill:none;stroke:#7f7f7f;stroke-linecap:round;stroke-linejoin:round;stroke-width:0.75px"></path><path d="M162.38,390.12A95.58,95.58,0,0,1,155.64,408" style="fill:none;stroke:#7f7f7f;stroke-linecap:round;stroke-linejoin:round;stroke-width:0.75px"></path><path d="M163.81,383.89q-.37,1.88-.81,3.75" style="fill:none;stroke:#7f7f7f;stroke-linecap:round;stroke-linejoin:round;stroke-width:0.75px"></path><path d="M141.3,334.23l10.36-6.75" style="fill:none;stroke:#7f7f7f;stroke-linecap:round;stroke-linejoin:round;stroke-width:0.75px"></path><path d="M175.6,362.15s-1.38,0-3.2,3.13-1.63,3.81-3.39,4.77c-3.12,1.69-3,3.07-3,3.07" style="fill:none;stroke:#263238;stroke-linecap:round;stroke-linejoin:round"></path><path d="M156.85,326.66A21.4,21.4,0,0,1,167.13,316" style="fill:none;stroke:#7f7f7f;stroke-linecap:round;stroke-linejoin:round;stroke-width:0.75px"></path><path d="M147.26,245.22s-5.29,2.3-5.36,6.05,7.6,12.07,7.57,11.18S165,241.15,165,241.15l4.84-30.75.42-4s-2.17-4.9-5-3.57c-.66.31-1.54,2.29-2.62,5.06-3.52,9-7,25.8-7,25.8Z" style="fill:#fff;stroke:#263238;stroke-linecap:round;stroke-linejoin:round"></path><path d="M140.91,248.12c-1.1.3-15.4,8.65-18.65,15.59-2.59,5.52,1.2,28.9-1.76,48.93-.45,3.09,3.93,3.89,3.93,3.89l21.86-10.38,2.78-16.22,1-26.58S148.77,246,140.91,248.12Z" style="fill:#1AEF59;stroke:#263238;stroke-linecap:round;stroke-linejoin:round"></path><path d="M124.93,312.64a36.08,36.08,0,0,0,11.43-10.94" style="fill:none;stroke:#263238;stroke-linecap:round;stroke-linejoin:round"></path><path d="M127.56,304A101.36,101.36,0,0,0,148,265.85" style="fill:none;stroke:#263238;stroke-linecap:round;stroke-linejoin:round"></path><path d="M155.31,246.5a69.11,69.11,0,0,0-5.55,14.8" style="fill:none;stroke:#263238;stroke-linecap:round;stroke-linejoin:round"></path><path d="M163.33,222.78a114.08,114.08,0,0,0-2.57,14.57c-.65-.86-1.31-1.71-2-2.57" style="fill:none;stroke:#263238;stroke-linecap:round;stroke-linejoin:round"></path><path d="M164.05,206.48a10.67,10.67,0,0,1,5.41,3" style="fill:none;stroke:#263238;stroke-linecap:round;stroke-linejoin:round"></path><path d="M124.24,261.19c-.86.42-5.95,9.2,3.21,19.79a95.45,95.45,0,0,0,19.14,16.84s13.61-10.37,20.86-24.69l-3.95-7S146.69,283,146.76,283.56C147,285.51,134.29,256.29,124.24,261.19Z" style="fill:#fff;stroke:#263238;stroke-linecap:round;stroke-linejoin:round"></path><path d="M160.3,269.17a7.3,7.3,0,0,0,5.32,7.39l-1.14-.12" style="fill:none;stroke:#263238;stroke-linecap:round;stroke-linejoin:round"></path><path d="M122.52,267.44a11.12,11.12,0,0,0,6.2,11.85" style="fill:none;stroke:#263238;stroke-linecap:round;stroke-linejoin:round"></path><path d="M162.88,266.46l4.77-5.73,2.1-2.3.69-2s2.37-.33,1.57,1.47-1.43,3.1-1.43,3.1l3-1.06,4.39.93-.46,1.92s1.75.41,1.57,1.48.44,2-.07,3-3.22.6-3.22.6,1.12,1.13-.07,1.86-9.05,3.33-9.05,3.33S162.84,271.53,162.88,266.46Z" style="fill:#fff;stroke:#263238;stroke-linecap:round;stroke-linejoin:round"></path><path d="M124.33,316.66l-.1,1.59a4.5,4.5,0,0,0,.08,1.1h0a1.26,1.26,0,0,0,1.87.72c4.66-2.84,19.49-11.82,22-12.48l-1.91-1.44Z" style="fill:#1AEF59;stroke:#263238;stroke-linecap:round;stroke-linejoin:round"></path><path d="M143.76,289.08a17.44,17.44,0,0,1,4.51-6.86" style="fill:none;stroke:#263238;stroke-linecap:round;stroke-linejoin:round"></path><path d="M140.92,288a9.87,9.87,0,0,1,4.23-4" style="fill:none;stroke:#263238;stroke-linecap:round;stroke-linejoin:round"></path><path d="M130,258.16,127.65,249l-5.51-5.53-4-7.49,4.18-6.49,4.77-3.57,2.8.23,2,1.72s5.51,4.33,5.65,5.62.34,2.48.34,2.48a22,22,0,0,1,4,2.87c1,1.25-1.38,1.16-.81,3s2.67,5.5.8,6.7-2.92,1.78-2.22,3.63A55.2,55.2,0,0,1,141,258.9Z" style="fill:#fff;stroke:#263238;stroke-linecap:round;stroke-linejoin:round"></path><path d="M128.6,247.74l0,.21-.41,3.18a37,37,0,0,1-8.13-4.63l-.44-.35a53.29,53.29,0,0,1,9.09-11.81l-.22.85-.65,2.58.3,4a2.5,2.5,0,0,0-2.49.19c-1.16.88-1.2,2.78-.09,4.25A3.46,3.46,0,0,0,128.6,247.74Z" style="fill:#999;stroke:#263238;stroke-linecap:round;stroke-linejoin:round"></path><path d="M127.47,233.1l1.28,1.15,0,.09a53.29,53.29,0,0,0-9.09,11.81c-5.53-4.57-4-8.13-4-8.13-4.86-8.3,5.61-10.83,5.61-10.83a2.71,2.71,0,0,1-2.09-2.73l4.61-.72c-1.31-1.59,0-3.8,0-3.8l3.11,3c-.77-2.2,1.76-4.06,2-4.25-.11.18-.92,1.72,2.07,6.37C134.14,230.06,127.47,233.1,127.47,233.1Z" style="fill:#263238;stroke:#263238;stroke-linecap:round;stroke-linejoin:round"></path><path d="M136,236.57c.22.41.2.85-.05,1s-.62-.09-.84-.5-.2-.85,0-1S135.8,236.16,136,236.57Z" style="fill:#263238"></path><path d="M133.08,236.1a2.28,2.28,0,0,1,2.53-2.42" style="fill:none;stroke:#263238;stroke-linecap:round;stroke-linejoin:round"></path><path d="M118.49,235.73a7.44,7.44,0,0,1,5.94-5.93c5.24-1.07-.59-5-.59-5" style="fill:none;stroke:#7f7f7f;stroke-linecap:round;stroke-linejoin:round;stroke-width:0.75px"></path><path d="M127.35,223.38s5.9,4.29,0,7.83" style="fill:none;stroke:#7f7f7f;stroke-linecap:round;stroke-linejoin:round;stroke-width:0.75px"></path><path d="M141.2,248.86s-3.29,1.57-5.22,1l3.57,2.32S138.23,249.85,141.2,248.86Z" style="fill:#263238;stroke:#263238;stroke-linecap:round;stroke-linejoin:round"></path><path d="M129.07,254.88l-1.38,1.93s9.16,6,14.87,6.34l-.33-4.12A33.85,33.85,0,0,1,129.07,254.88Z" style="fill:#fff;stroke:#263238;stroke-linecap:round;stroke-linejoin:round"></path><path d="M140.23,254.17l3.83,1.34L142.23,259S141.31,260.33,140.23,254.17Z" style="fill:#fff;stroke:#263238;stroke-linecap:round;stroke-linejoin:round"></path><polygon points="144.06 255.51 145.8 259.28 142.23 259.03 144.06 255.51" style="fill:#fff;stroke:#263238;stroke-linecap:round;stroke-linejoin:round"></polygon><path d="M128.19,247.38a6.48,6.48,0,0,0,3-.12" style="fill:none;stroke:#263238;stroke-linecap:round;stroke-linejoin:round"></path><path d="M137.88,267.16a29.32,29.32,0,0,1-9.67.75c-3.25-.13-6.57-.39-9.69.52-12.28,3.56-15.22,9.26-16.12,10.64-1.53,2.32-.54,5.39-1.88,7.84l11.12-3.74a11.7,11.7,0,0,1,5.94-9.65A17.09,17.09,0,0,1,129,271.74c3.76.64,7.94,2.17,11.12.08s4.11-6.84,5.61-10c-1.41-.21-2.21,1.74-3.09,2.59A11.8,11.8,0,0,1,137.88,267.16Z" style="fill:#999;stroke:#263238;stroke-linecap:round;stroke-linejoin:round"></path><polygon points="142.23 259.03 142.78 262.19 144 263.6 145.77 261.81 145.8 259.28 142.23 259.03" style="fill:#999;stroke:#263238;stroke-linecap:round;stroke-linejoin:round"></polygon><path d="M140.93,242.51a10.25,10.25,0,0,1-3,1.67c-1.42.38,2.7,1.54,3.75.45Z" style="fill:none;stroke:#263238;stroke-linecap:round;stroke-linejoin:round"></path><path d="M116.18,251a6.35,6.35,0,0,1-2.2,1.21c-.65.26-2,.94-1.68,1.84.44,1.14,2.35-.1,2.53-.84" style="fill:none;stroke:#263238;stroke-linecap:round;stroke-linejoin:round"></path><path d="M104.66,233.6a6.87,6.87,0,0,1-2.52,0c-.69-.08-2.2-.1-2.34.84-.14,1.21,2.13,1,2.64.44" style="fill:none;stroke:#263238;stroke-linecap:round;stroke-linejoin:round"></path></g><g id="freepik--Seat--inject-2"><path d="M218.13,91.16l2.18,1.34-2.08,1.24c-1.86,1.11-3.29,3.55-3.86,6.59l-.44,2.35-.42-2.26c-.56-3-1.95-5.41-3.77-6.55l-2.18-1.37,2.05-1.23c1.82-1.09,3.23-3.46,3.82-6.42l.5-2.53.36,2.08C214.83,87.5,216.25,90,218.13,91.16Z" style="fill:#fff;stroke:#263238;stroke-linecap:round;stroke-linejoin:round"></path><path d="M299.63,54.66,301.81,56l-2.08,1.24c-1.86,1.11-3.29,3.55-3.86,6.59l-.44,2.35L295,63.91c-.56-3-1.95-5.41-3.77-6.54L289.06,56l2.05-1.23c1.82-1.1,3.23-3.46,3.82-6.42l.5-2.54.36,2.08C296.33,51,297.75,53.51,299.63,54.66Z" style="fill:#fff;stroke:#263238;stroke-linecap:round;stroke-linejoin:round"></path><path d="M277.68,148.7c5.59,0,21.73-3.65,21.73-3.65H256S272.09,148.7,277.68,148.7Z" style="fill:#263238;stroke:#263238;stroke-linecap:round;stroke-linejoin:round"></path><rect x="272.7" y="146.87" width="9.96" height="6.83" transform="translate(555.36 300.57) rotate(180)" style="fill:#263238;stroke:#263238;stroke-linecap:round;stroke-linejoin:round"></rect><rect x="271.23" y="153.7" width="12.9" height="29.35" transform="translate(555.36 336.75) rotate(180)" style="fill:#999;stroke:#263238;stroke-linecap:round;stroke-linejoin:round"></rect><polyline points="277.68 150.28 288.66 150.28 296.89 158.51" style="fill:none;stroke:#263238;stroke-linecap:round;stroke-linejoin:round"></polyline><path d="M256,187.15a1.08,1.08,0,0,0,1.31,1.06c3.95-.87,15.8-3.36,20.42-3.36s16.47,2.49,20.42,3.36a1.09,1.09,0,0,0,1.31-1.06h0a2.83,2.83,0,0,0-2.24-2.77c-4.63-1-15.19-3.15-19.49-3.15s-14.87,2.16-19.5,3.15a2.84,2.84,0,0,0-2.23,2.77Z" style="fill:#263238;stroke:#263238;stroke-linecap:round;stroke-linejoin:round"></path><path d="M295.69,188.68a3.72,3.72,0,1,0,3.72-3.71A3.72,3.72,0,0,0,295.69,188.68Zm1.71,0a2,2,0,1,1,2,2A2,2,0,0,1,297.4,188.68Z" style="fill:#1AEF59;stroke:#263238;stroke-linecap:round;stroke-linejoin:round"></path><path d="M274,188.68a3.72,3.72,0,1,0,3.72-3.71A3.72,3.72,0,0,0,274,188.68Zm1.71,0a2,2,0,1,1,2,2A2,2,0,0,1,275.67,188.68Z" style="fill:#1AEF59;stroke:#263238;stroke-linecap:round;stroke-linejoin:round"></path><path d="M252.68,188.68A3.72,3.72,0,1,0,256.4,185,3.72,3.72,0,0,0,252.68,188.68Zm1.71,0a2,2,0,1,1,2,2A2,2,0,0,1,254.39,188.68Z" style="fill:#1AEF59;stroke:#263238;stroke-linecap:round;stroke-linejoin:round"></path><path d="M299,158.51a2.07,2.07,0,1,1-2.07-2.07A2.07,2.07,0,0,1,299,158.51Z" style="fill:#1AEF59;stroke:#263238;stroke-linecap:round;stroke-linejoin:round"></path><path d="M274.43,133.55h-28.1a6.41,6.41,0,0,1-6.42-6.41h0a6.42,6.42,0,0,1,6.42-6.42h28.1a6.42,6.42,0,0,1,6.41,6.42h0A6.41,6.41,0,0,1,274.43,133.55Z" style="fill:#263238;stroke:#999;stroke-linecap:round;stroke-linejoin:round"></path><path d="M280.34,133.55H252.23a6.41,6.41,0,0,1-6.41-6.41h0a6.42,6.42,0,0,1,6.41-6.42h28.11a6.42,6.42,0,0,1,6.41,6.42h0A6.41,6.41,0,0,1,280.34,133.55Z" style="fill:#263238;stroke:#999;stroke-linecap:round;stroke-linejoin:round"></path><rect x="301.24" y="117.18" width="4.08" height="17.54" transform="translate(606.55 251.89) rotate(180)" style="fill:#263238;stroke:#263238;stroke-linecap:round;stroke-linejoin:round"></rect><rect x="268.92" y="104.99" width="46.1" height="12.83" rx="6.42" style="fill:#263238;stroke:#999;stroke-linecap:round;stroke-linejoin:round"></rect><path d="M277.8,148.7c5.58,0,21.73-3.65,21.73-3.65H256.07S272.21,148.7,277.8,148.7Z" style="fill:#263238;stroke:#263238;stroke-linecap:round;stroke-linejoin:round"></path><path d="M240.87,67.15H277A7.31,7.31,0,0,1,284.31,75l-2.86,39a7.31,7.31,0,0,1-7.29,6.78H243.73a7.32,7.32,0,0,1-7.3-6.78l-2.86-39A7.32,7.32,0,0,1,240.87,67.15Z" style="fill:#263238;stroke:#999;stroke-linecap:round;stroke-linejoin:round"></path><path d="M240,75l2.86,39a7.32,7.32,0,0,0,7.3,6.78h24a7.31,7.31,0,0,0,7.29-6.78l2.86-39A7.31,7.31,0,0,0,277,67.15H247.28A7.32,7.32,0,0,0,240,75Z" style="fill:#263238;stroke:#999;stroke-linecap:round;stroke-linejoin:round"></path><circle cx="254.88" cy="89.78" r="2.14" style="fill:#263238;stroke:#999;stroke-linecap:round;stroke-linejoin:round"></circle><circle cx="271.99" cy="89.78" r="2.14" style="fill:#263238;stroke:#999;stroke-linecap:round;stroke-linejoin:round"></circle><path d="M258.73,104a2.14,2.14,0,1,1-2.14-2.14A2.14,2.14,0,0,1,258.73,104Z" style="fill:#263238;stroke:#999;stroke-linecap:round;stroke-linejoin:round"></path><circle cx="271.7" cy="104.04" r="2.14" style="fill:#263238;stroke:#999;stroke-linecap:round;stroke-linejoin:round"></circle><path d="M266.81,131.59h43.37c3,0,5.38,3.37,5.38,7.54v1c0,4.17-2.41,7.54-5.38,7.54H266.81Z" style="fill:#263238;stroke:#999;stroke-linecap:round;stroke-linejoin:round"></path><rect x="240.04" y="131.59" width="34.97" height="16.07" rx="5.73" transform="translate(515.04 279.25) rotate(180)" style="fill:#263238;stroke:#999;stroke-linecap:round;stroke-linejoin:round"></rect><rect x="261.42" y="117.18" width="4.08" height="17.54" transform="translate(526.91 251.89) rotate(180)" style="fill:#999;stroke:#263238;stroke-linecap:round;stroke-linejoin:round"></rect><rect x="229.1" y="104.99" width="46.1" height="12.83" rx="6.42" style="fill:#263238;stroke:#999;stroke-linecap:round;stroke-linejoin:round"></rect><path d="M243.39,65.53,243,66.85l.13,0A13.22,13.22,0,0,1,254.18,76a9,9,0,0,0,1.65,3.1c2.85,3.2,13.84,1.13,13.84,1.13s5.8-2,1.37-15l-.06-.16a8.81,8.81,0,0,0-8.19-6.32l-11.14,0A8.91,8.91,0,0,0,243.39,65.53Z" style="fill:#263238;stroke:#999;stroke-linecap:round;stroke-linejoin:round"></path><path d="M250.57,61.67a20.14,20.14,0,0,1,6.87,14.57" style="fill:none;stroke:#999;stroke-linecap:round;stroke-linejoin:round"></path><path d="M279.67,131l-.31.75h.1c4.11.31,7.43,2.38,8.74,5.18a4.86,4.86,0,0,0,1.3,1.75c2.26,1.81,10.95.64,10.95.64s5.46-1,2-8.35a3.43,3.43,0,0,0-4.88-1.31c-1.89,1.06-5.32.39-8.91-.35C281.14,127.8,279.22,129.65,279.67,131Z" style="fill:#263238;stroke:#999;stroke-linecap:round;stroke-linejoin:round"></path><path d="M286.05,129.91c3.31,2.05,5.33,5.12,5.44,8.24" style="fill:none;stroke:#263238;stroke-linecap:round;stroke-linejoin:round"></path><path d="M262.12,106.73a5,5,0,0,1,3.61,8.51" style="fill:none;stroke:#999;stroke-linecap:round;stroke-linejoin:round"></path><path d="M303.06,106.73a5,5,0,0,1,3.6,8.51" style="fill:#263238;stroke:#999;stroke-linecap:round;stroke-linejoin:round"></path><rect x="319.92" y="101.48" width="64.27" height="9.89" transform="translate(704.11 212.84) rotate(180)" style="fill:#fff;stroke:#263238;stroke-linecap:round;stroke-linejoin:round"></rect><rect x="297.04" y="101.48" width="26.72" height="9.89" transform="translate(620.8 212.84) rotate(180)" style="fill:#fff;stroke:#263238;stroke-linecap:round;stroke-linejoin:round"></rect><rect x="322.59" y="95.89" width="63.67" height="5.59" transform="translate(708.85 197.36) rotate(180)" style="fill:#999;stroke:#263238;stroke-linecap:round;stroke-linejoin:round"></rect><rect x="294.97" y="95.89" width="27.62" height="5.59" transform="translate(617.56 197.36) rotate(180)" style="fill:#999;stroke:#263238;stroke-linecap:round;stroke-linejoin:round"></rect><polygon points="378.76 192.4 380.85 192.4 381.59 111.37 378.76 111.37 378.76 192.4" style="fill:#999;stroke:#263238;stroke-linecap:round;stroke-linejoin:round"></polygon><polygon points="376.68 192.4 378.76 192.4 378.76 111.37 375.93 111.37 376.68 192.4" style="fill:#858585;stroke:#263238;stroke-linecap:round;stroke-linejoin:round"></polygon><polygon points="351.22 192.4 353.31 192.4 354.05 111.37 351.22 111.37 351.22 192.4" style="fill:#999;stroke:#263238;stroke-linecap:round;stroke-linejoin:round"></polygon><polygon points="349.14 192.4 351.22 192.4 351.22 111.37 348.39 111.37 349.14 192.4" style="fill:#858585;stroke:#263238;stroke-linecap:round;stroke-linejoin:round"></polygon><polygon points="326.83 192.4 328.92 192.4 329.66 111.37 326.83 111.37 326.83 192.4" style="fill:#999;stroke:#263238;stroke-linecap:round;stroke-linejoin:round"></polygon><polygon points="324.75 192.4 326.83 192.4 326.83 111.37 324 111.37 324.75 192.4" style="fill:#858585;stroke:#263238;stroke-linecap:round;stroke-linejoin:round"></polygon><polygon points="303.29 192.4 305.38 192.4 306.12 111.37 303.29 111.37 303.29 192.4" style="fill:#999;stroke:#263238;stroke-linecap:round;stroke-linejoin:round"></polygon><polygon points="301.21 192.4 303.29 192.4 303.29 111.37 300.46 111.37 301.21 192.4" style="fill:#858585;stroke:#263238;stroke-linecap:round;stroke-linejoin:round"></polygon><polygon points="329.66 111.37 329.23 188.63 378.18 188.63 378.76 111.37 329.66 111.37" style="fill:#999;stroke:#263238;stroke-linecap:round;stroke-linejoin:round"></polygon><path d="M337.58,182.28A90.64,90.64,0,0,0,354,183.47a91.6,91.6,0,0,0,16.4-1.14,3,3,0,0,0,.6,1c1.06,1.22,3.85,0,3.85,0s1.07-3.17,0-4.38c-.23-.26-.63-.29-.76-.6-1.13-2.6.89-7.55.9-12.9s-2-10.29-.87-12.89c.46-1,1.57-1.55,1.57-2.79s-1.11-1.75-1.56-2.79c-1.12-2.6.89-7.55.9-12.89s-2-10.3-.86-12.9c.13-.31.53-.33.76-.59,1.07-1.21,0-4.39,0-4.39s-2.79-1.21-3.85,0c-.27.3-.29.83-.61,1-2.92,1.81-9.38-1.18-16.4-1.19s-13.49,3-16.4,1.14c-.31-.19-.33-.73-.6-1-1.06-1.21-3.85,0-3.85,0s-1.07,3.17,0,4.39c.23.26.63.29.76.6,1.13,2.59-.89,7.54-.9,12.89s2,10.29.86,12.89c-.45,1-1.56,1.55-1.56,2.79s1.11,1.76,1.56,2.8c1.12,2.59-.89,7.54-.9,12.88s2,10.3.86,12.9c-.14.31-.54.34-.76.6-1.07,1.2,0,4.38,0,4.38s2.79,1.21,3.85,0A3.1,3.1,0,0,0,337.58,182.28Z" style="fill:none;stroke:#263238;stroke-miterlimit:10"></path><polygon points="303.29 111.37 303.12 188.68 324.48 188.68 324 111.37 303.29 111.37" style="fill:#999;stroke:#263238;stroke-linecap:round;stroke-linejoin:round"></polygon><rect x="372.3" y="86.38" width="10.34" height="8.22" style="fill:#263238;stroke:#fff;stroke-linecap:round;stroke-linejoin:round"></rect><path d="M379,77.38a2,2,0,0,0,.3.5C379.11,77.81,379,77.64,379,77.38Z" style="fill:#1AEF59"></path><path d="M386,60.47a66.86,66.86,0,0,0-1.92,9.59,26,26,0,0,1-3,9.13c-.85,1.61-2.06.43-2.89,2.4,0,0,0,0,0,0s-.1.26-.15.42a.57.57,0,0,0,0,.14c.07-.67.19-2.14-.21-2.65-1.21-1.57-.11-7.34,3.22-13,2.48-4.23,4.82-6,5-6.06Z" style="fill:#1AEF59;stroke:#263238;stroke-linecap:round;stroke-linejoin:round"></path><path d="M378.14,81.62c-.08.29-.15.58-.23.87,0,0,0-.16,0-.31a.57.57,0,0,1,0-.14Q378.07,81.8,378.14,81.62Z" style="fill:#999;stroke:#263238;stroke-miterlimit:10"></path><path d="M378.93,86.38H376a2,2,0,0,1-2-2h0a2,2,0,0,1,2-2h2.93a2,2,0,0,1,2,2h0A2,2,0,0,1,378.93,86.38Z" style="fill:#263238;stroke:#999;stroke-linecap:round;stroke-linejoin:round"></path><rect x="376.5" y="88.36" width="6.06" height="3.33" style="fill:#fff"></rect><polygon points="324.79 94.82 360.79 94.82 364.81 83.89 328.81 83.89 324.79 94.82" style="fill:#263238;stroke:#263238;stroke-linecap:round;stroke-linejoin:round"></polygon><polygon points="368.85 94.77 332.85 94.77 328.83 83.72 364.83 83.72 368.85 94.77" style="fill:#263238;stroke:#999;stroke-linecap:round;stroke-linejoin:round"></polygon><path d="M345.1,90.44l.28.77c.33.92.07,1.44-.82,1.44a2,2,0,0,1-1.88-1.44l-1.09-3c-.33-.92-.06-1.45.83-1.45a2,2,0,0,1,1.87,1.45l.21.55h-.86l-.22-.61c-.15-.41-.39-.57-.68-.57s-.41.16-.26.57l1.13,3.1c.15.41.38.56.67.56s.42-.15.27-.56l-.3-.82Z" style="fill:#fff"></path><path d="M347.54,92.59h-.9l-2.1-5.75h.91l.9,2.46h1l-.9-2.46h.92l2.09,5.75h-.92l-.9-2.47h-1Z" style="fill:#fff"></path><path d="M348.26,86.84h.91l2.09,5.75h-.91Z" style="fill:#fff"></path><path d="M351.82,89.26h1.24l.3.82h-1.24l.61,1.69h1.56l.3.82h-2.47L350,86.84h2.47l.29.82h-1.56Z" style="fill:#fff"></path><path d="M355.09,89.39h1.17l.3.82h-1.17l.87,2.38h-.91l-2.09-5.75h2.39l.3.82h-1.49Z" style="fill:#fff"></path></g><g id="freepik--Floor--inject-2"><polyline points="142.6 450.67 176.08 450.67 200.57 450.67 204.81 450.67 208.43 450.67 232.39 450.67 235.33 450.67 258.42 450.67 261.51 450.67 265.75 450.67 280.72 450.67 284.96 450.67 288.58 450.67 312.54 450.67 315.49 450.67 338.57 450.67 341.66 450.67 345.9 450.67 360.87 450.67 365.11 450.67 368.74 450.67 392.7 450.67 395.64 450.67 413.77 450.67 417.94 450.67 418.73 450.67 421.81 450.67 426.05 450.67 446.82 450.67 453.78 450.67" style="fill:none;stroke:#263238;stroke-linecap:round;stroke-linejoin:round"></polyline><line x1="131.2" y1="450.67" x2="136.54" y2="450.67" style="fill:none;stroke:#263238;stroke-linecap:round;stroke-linejoin:round"></line><line x1="57.77" y1="450.67" x2="125.85" y2="450.67" style="fill:none;stroke:#263238;stroke-linecap:round;stroke-linejoin:round"></line><line x1="40.22" y1="450.67" x2="52.43" y2="450.67" style="fill:none;stroke:#263238;stroke-linecap:round;stroke-linejoin:round"></line></g></svg>