<svg xmlns="http://www.w3.org/2000/svg" viewBox="0 0 750 500"><g id="freepik--background-simple--inject-119"><path d="M699,165.07c-17.2-37.75-43.2-70.66-81.61-89C566.08,51.44,505.25,50.83,452,69.67c-30.37,10.75-57.31,28.81-83.48,47.21-23.27,16.36-49.81,41.35-78.58,46.64C251,170.67,159,112.67,90,128.67s-89,106-72,162,83,56,107,102,110,85,216,59,161-41,217-20,133,27,159-61a262.16,262.16,0,0,0,8.52-109C721.22,229.73,713,195.8,699,165.07Z" style="fill:#92E3A9"></path><path d="M699,165.07c-17.2-37.75-43.2-70.66-81.61-89C566.08,51.44,505.25,50.83,452,69.67c-30.37,10.75-57.31,28.81-83.48,47.21-23.27,16.36-49.81,41.35-78.58,46.64C251,170.67,159,112.67,90,128.67s-89,106-72,162,83,56,107,102,110,85,216,59,161-41,217-20,133,27,159-61a262.16,262.16,0,0,0,8.52-109C721.22,229.73,713,195.8,699,165.07Z" style="fill:#fff;opacity:0.7000000000000001"></path></g><g id="freepik--Floor--inject-119"><line x1="26.18" y1="430.87" x2="738.33" y2="430.87" style="fill:none;stroke:#263238;stroke-miterlimit:10"></line></g><g id="freepik--Gears--inject-119"><path d="M257.29,86.84l12.25,1.4,2.55-11.15-11.42-4a23.39,23.39,0,0,0-1.41-6.65l8.43-8.39-7.13-8.95-9.91,6.26a23.2,23.2,0,0,0-6.42-3.13L243,40.71H231.52l-1.29,11.6a23.46,23.46,0,0,0-6.38,3.16L214,49.23l-7.13,8.94,8.48,8.45a23.07,23.07,0,0,0-1.36,6.62l-11.41,4,2.55,11.15L217.4,87a23.33,23.33,0,0,0,4,4.88l-4.14,11.76,10.3,5,6.7-10.7a25,25,0,0,0,3,.2,23.18,23.18,0,0,0,3.13-.22l6.67,10.67,10.3-5-4.14-11.78A23.52,23.52,0,0,0,257.29,86.84ZM224.61,74.63a12.7,12.7,0,1,1,12.7,12.7A12.7,12.7,0,0,1,224.61,74.63Z" style="fill:none;stroke:#263238;stroke-miterlimit:10"></path><path d="M632.61,257.84l7.89.9,1.64-7.18L634.79,249a15.11,15.11,0,0,0-.91-4.28l5.43-5.42-4.59-5.76-6.39,4a15.13,15.13,0,0,0-4.14-2l-.82-7.44H616l-.82,7.47a15,15,0,0,0-4.12,2l-6.37-4-4.6,5.77,5.47,5.44a14.75,14.75,0,0,0-.88,4.27l-7.35,2.55,1.64,7.19,7.93-.91a15.41,15.41,0,0,0,2.6,3.14l-2.67,7.58,6.64,3.19,4.32-6.89a15.41,15.41,0,0,0,1.94.13,14.89,14.89,0,0,0,2-.14l4.3,6.87,6.64-3.2L630,261A15.21,15.21,0,0,0,632.61,257.84ZM611.55,250a8.19,8.19,0,1,1,8.18,8.18A8.18,8.18,0,0,1,611.55,250Z" style="fill:none;stroke:#263238;stroke-miterlimit:10"></path><path d="M704,91.4l5,.57,1-4.51-4.62-1.61a9.28,9.28,0,0,0-.57-2.69l3.41-3.39-2.88-3.62-4,2.53a9.66,9.66,0,0,0-2.6-1.27l-.51-4.66h-4.63l-.52,4.68a9.6,9.6,0,0,0-2.58,1.29l-4-2.53-2.88,3.62L687,83.22a9.54,9.54,0,0,0-.56,2.68l-4.61,1.61,1,4.51,5-.58a9.4,9.4,0,0,0,1.63,2l-1.67,4.75,4.16,2,2.71-4.33a9.9,9.9,0,0,0,1.23.08,10.52,10.52,0,0,0,1.26-.08l2.7,4.31,4.17-2-1.68-4.76A9.46,9.46,0,0,0,704,91.4Zm-13.22-4.94a5.14,5.14,0,1,1,5.14,5.14A5.14,5.14,0,0,1,690.78,86.46Z" style="fill:none;stroke:#263238;stroke-miterlimit:10"></path><path d="M92.39,300.33l5,.56,1-4.5-4.62-1.61a9.28,9.28,0,0,0-.57-2.69l3.41-3.4-2.88-3.61-4,2.53a9.38,9.38,0,0,0-2.6-1.27l-.51-4.67H82l-.52,4.69a9.72,9.72,0,0,0-2.58,1.28l-4-2.52L72,288.73l3.43,3.42a9.47,9.47,0,0,0-.56,2.68l-4.61,1.6,1,4.51,5-.57a9.4,9.4,0,0,0,1.63,2l-1.67,4.75,4.16,2,2.71-4.33a9.9,9.9,0,0,0,1.23.08,8.79,8.79,0,0,0,1.26-.09l2.7,4.32,4.17-2-1.68-4.76A9.72,9.72,0,0,0,92.39,300.33Zm-13.22-4.94a5.14,5.14,0,1,1,5.14,5.14A5.14,5.14,0,0,1,79.17,295.39Z" style="fill:none;stroke:#263238;stroke-miterlimit:10"></path></g><g id="freepik--Calendar--inject-119"><rect x="576.23" y="95.18" width="74.72" height="76.92" style="fill:none;stroke:#263238;stroke-miterlimit:10"></rect><rect x="576.23" y="95.18" width="74.72" height="7.24" style="fill:#92E3A9;stroke:#263238;stroke-miterlimit:10"></rect><rect x="580.04" y="129.97" width="7.63" height="7.63" style="fill:none;stroke:#263238;stroke-miterlimit:10"></rect><rect x="591.8" y="129.97" width="7.63" height="7.63" style="fill:none;stroke:#263238;stroke-miterlimit:10"></rect><rect x="603.56" y="129.97" width="7.63" height="7.63" style="fill:none;stroke:#263238;stroke-miterlimit:10"></rect><rect x="615.32" y="129.97" width="7.63" height="7.63" style="fill:none;stroke:#263238;stroke-miterlimit:10"></rect><rect x="627.07" y="129.97" width="7.63" height="7.63" style="fill:none;stroke:#263238;stroke-miterlimit:10"></rect><rect x="638.83" y="129.97" width="7.63" height="7.63" style="fill:none;stroke:#263238;stroke-miterlimit:10"></rect><rect x="580.04" y="141.78" width="7.63" height="7.63" style="fill:none;stroke:#263238;stroke-miterlimit:10"></rect><rect x="591.8" y="141.78" width="7.63" height="7.63" style="fill:#92E3A9;stroke:#263238;stroke-miterlimit:10"></rect><rect x="603.56" y="141.78" width="7.63" height="7.63" style="fill:none;stroke:#263238;stroke-miterlimit:10"></rect><rect x="615.32" y="141.78" width="7.63" height="7.63" style="fill:none;stroke:#263238;stroke-miterlimit:10"></rect><rect x="627.07" y="141.78" width="7.63" height="7.63" style="fill:none;stroke:#263238;stroke-miterlimit:10"></rect><rect x="638.83" y="141.78" width="7.63" height="7.63" style="fill:none;stroke:#263238;stroke-miterlimit:10"></rect><rect x="580.04" y="153.58" width="7.63" height="7.63" style="fill:none;stroke:#263238;stroke-miterlimit:10"></rect><rect x="591.8" y="153.58" width="7.63" height="7.63" style="fill:none;stroke:#263238;stroke-miterlimit:10"></rect><rect x="603.56" y="153.58" width="7.63" height="7.63" style="fill:none;stroke:#263238;stroke-miterlimit:10"></rect><rect x="615.32" y="153.58" width="7.63" height="7.63" style="fill:#92E3A9;stroke:#263238;stroke-miterlimit:10"></rect><rect x="627.07" y="153.58" width="7.63" height="7.63" style="fill:none;stroke:#263238;stroke-miterlimit:10"></rect><rect x="638.83" y="153.58" width="7.63" height="7.63" style="fill:none;stroke:#263238;stroke-miterlimit:10"></rect><rect x="580.04" y="108.18" width="67.19" height="14.89" style="fill:none;stroke:#263238;stroke-miterlimit:10"></rect><polyline points="618.05 156.29 619.85 158.42 625.26 150.39" style="fill:none;stroke:#263238;stroke-miterlimit:10"></polyline><polyline points="594.12 144.16 595.76 146.78 601.99 139.41" style="fill:none;stroke:#263238;stroke-miterlimit:10"></polyline></g><g id="freepik--Desk--inject-119"><polygon points="575.86 431.86 582.56 363.4 587.79 364.55 578.33 431.86 575.86 431.86" style="fill:#fff;stroke:#263238;stroke-miterlimit:10"></polygon><polygon points="653.26 431.86 643.79 364.55 649.02 363.4 655.73 431.86 653.26 431.86" style="fill:#fff;stroke:#263238;stroke-miterlimit:10"></polygon><path d="M647.48,371.66l3.36-80.05a8.39,8.39,0,0,0-8.38-8.74H586.37a8.39,8.39,0,0,0-8.36,9l6.21,79.75Z" style="fill:#b5b5b5;stroke:#263238;stroke-miterlimit:10"></path><rect x="578.9" y="354.12" width="74.43" height="17.55" transform="translate(1232.24 725.78) rotate(180)" style="fill:#b5b5b5;stroke:#263238;stroke-miterlimit:10"></rect><path d="M647.48,371.66h5.63l3.95-33a4.8,4.8,0,0,0-4.79-4.79h0a4.79,4.79,0,0,0-4.79,4.79Z" style="fill:#b5b5b5;stroke:#263238;stroke-miterlimit:10"></path><path d="M584.22,371.66h-5.64l-3.94-33a4.79,4.79,0,0,1,4.79-4.79h0a4.8,4.8,0,0,1,4.79,4.79Z" style="fill:#b5b5b5;stroke:#263238;stroke-miterlimit:10"></path><path d="M656,284.23h52.13a0,0,0,0,1,0,0v28.45a2.5,2.5,0,0,1-2.5,2.5H658.49a2.5,2.5,0,0,1-2.5-2.5V284.23A0,0,0,0,1,656,284.23Z" transform="translate(1364.11 599.42) rotate(180)" style="fill:#fff;stroke:#263238;stroke-miterlimit:10"></path><polygon points="541.09 431.86 547.28 323.87 552.57 323.87 543.49 431.86 541.09 431.86" style="fill:#fff;stroke:#263238;stroke-miterlimit:10"></polygon><polygon points="521.63 431.86 527.82 323.87 533.12 323.87 524.04 431.86 521.63 431.86" style="fill:#fff;stroke:#263238;stroke-miterlimit:10"></polygon><polygon points="693.27 431.86 685.55 323.87 690.83 323.87 695.66 431.86 693.27 431.86" style="fill:#fff;stroke:#263238;stroke-miterlimit:10"></polygon><polygon points="715.04 431.86 707.32 323.87 712.59 323.87 717.42 431.86 715.04 431.86" style="fill:#fff;stroke:#263238;stroke-miterlimit:10"></polygon><rect x="521.04" y="317.78" width="195" height="9.45" transform="translate(1237.08 645) rotate(180)" style="fill:#fff;stroke:#263238;stroke-miterlimit:10"></rect><rect x="521.04" y="317.78" width="195" height="3.24" transform="translate(1237.08 638.8) rotate(180)" style="fill:#263238;stroke:#263238;stroke-miterlimit:10"></rect><rect x="518.11" y="314.64" width="200.87" height="3.6" transform="translate(1237.08 632.87) rotate(180)" style="fill:#fff;stroke:#263238;stroke-miterlimit:10"></rect></g><g id="freepik--plants-2--inject-119"><g style="opacity:0.2"><path d="M126.15,222.91c3.53-2.52,8.34-11,8.34-11s-6.53-1.48-7-1.52c-4.92-.46-14.7,1.54-16.88,6.63a6.56,6.56,0,0,0,4.35,8.73C118.72,227,123.15,225.05,126.15,222.91Z"></path><path d="M178.46,139.69c.09,0-4.63-4.83-5-5.1-3.84-3.09-13.11-6.82-17.73-3.78a6.54,6.54,0,0,0-1.19,9.67c2.46,3,7.2,3.9,10.89,3.77C169.79,144.1,178.45,139.7,178.46,139.69Z"></path><path d="M163.15,96.73c-3.34,4.42-.23,13.9,2.62,18,.24.35,4.71,5.37,4.76,5.29l.06-.11c.48,1.5,1,3.11,1.63,4.85,1.16,3.2,2.5,6.82,4.23,10.65a116.3,116.3,0,0,0,6.16,12.09,84.85,84.85,0,0,0,8.74,12.42l.13.14c-1.38-.86-5.31-3.13-5.63-3.27-4.53-2-14.45-3.12-18.11,1a6.56,6.56,0,0,0,1.41,9.65c3.18,2.27,8,1.85,11.49.75,4-1.24,10.71-7.25,11.24-7.73a116.65,116.65,0,0,0,11,10.84c2.27,2,4.62,3.9,7,5.79-1.22-.7-2.31-1.32-2.47-1.39-4.53-2-14.45-3.12-18.1,1a6.55,6.55,0,0,0,1.4,9.65c3.18,2.27,8,1.85,11.5.75s9.41-6.13,10.94-7.47c.92.71,1.83,1.44,2.76,2.15,4.42,3.42,8.85,6.82,13.09,10.28,1.5,1.22,2.93,2.48,4.36,3.73-1.08-.62-2-1.14-2.14-1.2-4.53-2-14.45-3.12-18.1,1a6.55,6.55,0,0,0,1.4,9.65c3.18,2.27,8,1.85,11.5.75s8.84-5.64,10.67-7.23c1.43,1.32,2.86,2.65,4.19,4,.88.94,1.8,1.79,2.63,2.78l2.52,2.88c1.54,1.89,3.13,3.82,4.58,5.7,1,1.3,2,2.56,2.92,3.82-1.47-1.23-4.41-3.58-4.68-3.75a25.51,25.51,0,0,0-12.37-3.43,7.46,7.46,0,0,0-1.29-.66,6.55,6.55,0,0,0-8.88,4c-1.52,5.32,4.79,13.06,8.89,15.81.25.16,3.07,1.63,4.87,2.53-1.14-.37-2.24-.74-3.41-1.1-2.32-.74-4.65-1.4-7.16-2.12l-3.71-.93c-1.23-.34-2.58-.54-3.88-.82-3-.57-6.11-1-9.24-1.39.64-2,2.8-9.27,2.37-13s-2-8.22-5.35-10.2a6.55,6.55,0,0,0-9.39,2.63c-2.31,5,2.76,13.62,6.4,17,.23.21,3.11,2.31,4.71,3.44-1.88-.21-3.75-.43-5.66-.58-5.52-.44-11.11-.7-16.69-1-1.71-.09-3.41-.2-5.11-.3.23-.72,3-9.28,2.51-13.41-.42-3.66-2-8.22-5.35-10.2a6.55,6.55,0,0,0-9.39,2.63c-2.31,5,2.76,13.62,6.4,17,.27.25,4.42,3.27,5.52,4-3.76-.23-7.49-.49-11.17-.9a113.29,113.29,0,0,1-14.74-2.53c.11-.33,3-9.25,2.53-13.47-.42-3.67-2-8.23-5.35-10.21a6.54,6.54,0,0,0-9.38,2.63c-2.32,5,2.75,13.62,6.39,17,.24.22,3.4,2.53,4.93,3.59l-.13.28a83.53,83.53,0,0,1-14.13-5.17c-2.52-1.15-4.86-2.39-7.11-3.64.71-1.61,3.89-9,3.87-12.83,0-3.69-1.07-8.39-4.19-10.73a6.55,6.55,0,0,0-9.62,1.58c-2.85,4.74,1.24,13.85,4.49,17.57.18.2,2.2,2.06,3.69,3.39-1-.58-2.05-1.16-3-1.74-3.58-2.15-6.74-4.35-9.51-6.32-1.57-1.13-3-2.18-4.26-3.18-.13-1.94-.72-9.76-2.48-13.1s-4.81-7-8.66-7.59A6.55,6.55,0,0,0,98,184.55c-.35,5.53,7.48,11.72,12.08,13.53.4.15,6.9,1.88,6.89,1.78a.57.57,0,0,0,0-.12c1.23,1,2.56,2,4,3.14,2.74,2,5.86,4.3,9.41,6.55a117,117,0,0,0,11.81,6.69,86.14,86.14,0,0,0,14.14,5.54l.18,0c-1.62,0-6.15.32-6.49.38-4.87.85-13.78,5.37-14.54,10.85a6.56,6.56,0,0,0,6.5,7.27c3.9.14,7.67-2.85,10-5.71,2.63-3.23,4.93-12,5.11-12.66a115.13,115.13,0,0,0,15.18,3c3,.4,6,.7,9,1-1.4.09-2.65.17-2.83.2-4.87.86-13.77,5.37-14.53,10.85a6.55,6.55,0,0,0,6.49,7.27c3.91.15,7.68-2.85,10-5.71s4.47-10.31,5-12.27l3.49.28c5.58.41,11.15.8,16.6,1.35,1.92.19,3.8.45,5.69.7-1.24.08-2.29.15-2.45.18-4.87.85-13.77,5.37-14.53,10.85a6.55,6.55,0,0,0,6.49,7.27c3.91.14,7.67-2.85,10-5.72s4.26-9.58,4.9-11.92c1.93.32,3.86.64,5.71,1,1.25.3,2.48.5,3.73.87l3.69,1c2.32.73,4.72,1.46,7,2.23,1.57.52,3,1.05,4.55,1.57-1.91-.21-5.66-.55-6-.54-4.94.1-14.42,3.22-16,8.52a6.55,6.55,0,0,0,5.31,8.17c3.84.73,8-1.66,10.76-4.13,3-2.73,6.5-10.67,6.93-11.66,2.47.88,4.87,1.75,7.11,2.62,7.73,2.95,14.05,5.7,18.48,7.7l1.92-3.22-.29-.13c-4.53-1.93-11-4.59-19-7.43-2.5-.9-5.2-1.81-8-2.73a68.3,68.3,0,0,0,.84-8.32c4.09-.85,10.89-5.24,11.77-5.81,1.58,2.1,3.09,4.15,4.49,6.11,4.81,6.72,8.57,12.51,11.16,16.61L272,238c-2.64-3.95-6.21-9.13-10.63-15-1.59-2.14-3.33-4.39-5.15-6.68.73-.78,6.59-7.2,7.86-11.07,1.15-3.51,1.64-8.29-.59-11.51a6.54,6.54,0,0,0-9.62-1.54c-4.21,3.59-3.21,13.52-1.3,18.08.11.27,1.65,3.06,2.66,4.8-.75-.94-1.46-1.85-2.24-2.8-1.53-1.89-3.11-3.73-4.8-5.72l-2.58-2.82c-.84-1-1.85-1.87-2.79-2.82-2.2-2.15-4.54-4.22-6.94-6.26,1.65-1.34,7.45-6.19,9.13-9.5s2.88-8,1.17-11.46a6.55,6.55,0,0,0-9.28-3c-4.71,2.92-5.22,12.89-4,17.68.07.3,1.32,3.65,2,5.47-1.45-1.21-2.89-2.43-4.4-3.61-4.36-3.4-8.88-6.71-13.37-10-1.38-1-2.74-2-4.1-3.07.59-.47,7.61-6.09,9.48-9.79,1.68-3.29,2.89-7.95,1.17-11.46a6.55,6.55,0,0,0-9.28-3c-4.7,2.91-5.22,12.88-4,17.68.09.36,1.88,5.17,2.4,6.37-3-2.26-6-4.54-8.82-6.9A114.81,114.81,0,0,1,193,159.83c.27-.22,7.62-6,9.55-9.84,1.67-3.29,2.88-8,1.16-11.46a6.54,6.54,0,0,0-9.27-3c-4.71,2.92-5.22,12.89-4,17.68.08.32,1.44,4,2.13,5.71l-.27.17A85.16,85.16,0,0,1,183.38,147c-1.46-2.35-2.73-4.67-3.92-7,1.48-.94,8.2-5.34,10.31-8.56s3.73-7.59,2.42-11.26a6.55,6.55,0,0,0-8.9-4c-5,2.38-6.6,12.23-5.94,17.13,0,.26.7,2.93,1.21,4.87-.52-1-1.08-2.11-1.56-3.11-1.8-3.78-3.22-7.35-4.45-10.52-.68-1.81-1.26-3.46-1.79-5,1-1.69,4.78-8.53,5.16-12.29s-.18-8.46-3-11.11A6.54,6.54,0,0,0,163.15,96.73Z"></path></g><g style="opacity:0.2"><path d="M371,74.48c2.79,3.32,11.58,7.45,11.59,7.45s1-6.63,1-7.05c.07-4.94-2.68-14.54-7.93-16.32a6.56,6.56,0,0,0-8.36,5C366.41,67.38,368.64,71.65,371,74.48Z"></path><path d="M458.06,120.12c.05.09,4.45-5,4.69-5.34,2.79-4.08,5.78-13.61,2.39-18a6.55,6.55,0,0,0-9.74-.43c-2.83,2.69-3.31,7.48-2.9,11.15C453,111.82,458.05,120.12,458.06,120.12Z"></path><path d="M499.69,101.51c-4.66-3-13.87.86-17.68,4-.33.27-5,5.12-4.9,5.16l.1,0c-1.46.6-3,1.25-4.7,2-3.11,1.41-6.6,3-10.29,5a115.94,115.94,0,0,0-11.57,7.09,85.5,85.5,0,0,0-11.7,9.68,1.79,1.79,0,0,0-.13.14c.75-1.44,2.71-5.54,2.82-5.87,1.61-4.67,2-14.64-2.44-18a6.56,6.56,0,0,0-9.51,2.16c-2,3.34-1.23,8.09.15,11.52,1.54,3.86,8.06,10.1,8.58,10.6A116.79,116.79,0,0,0,428.47,147c-1.79,2.42-3.52,4.91-5.22,7.43.61-1.27,1.14-2.41,1.2-2.57,1.61-4.67,2-14.65-2.45-18a6.54,6.54,0,0,0-9.5,2.15c-2,3.35-1.23,8.09.14,11.52s6.85,8.91,8.31,10.33c-.64,1-1.3,1.94-1.94,2.91-3.06,4.68-6.1,9.36-9.22,13.86-1.1,1.59-2.24,3.11-3.38,4.64.54-1.12,1-2.08,1-2.23,1.61-4.67,2-14.64-2.44-18a6.56,6.56,0,0,0-9.51,2.16c-2,3.34-1.22,8.09.15,11.52s6.31,8.38,8,10.07c-1.21,1.53-2.42,3.06-3.66,4.49-.87.95-1.64,1.93-2.57,2.84l-2.67,2.74c-1.76,1.68-3.57,3.42-5.33,5-1.21,1.12-2.39,2.16-3.58,3.21,1.12-1.57,3.23-4.68,3.38-5a25.4,25.4,0,0,0,2.45-12.6,7.07,7.07,0,0,0,.56-1.33,6.54,6.54,0,0,0-4.7-8.54c-5.42-1.11-12.64,5.79-15.06,10.09-.14.26-1.39,3.19-2.14,5,.28-1.16.56-2.29.83-3.49.55-2.36,1-4.74,1.56-7.3.21-1.24.42-2.5.63-3.77s.34-2.61.51-3.93c.34-3.06.54-6.18.66-9.32,2.08.48,9.47,2.06,13.11,1.35s8-2.62,9.75-6.13a6.54,6.54,0,0,0-3.35-9.15c-5.19-1.92-13.37,3.81-16.42,7.7-.19.24-2.06,3.28-3.06,5,.07-1.89.14-3.78.14-5.7,0-5.53-.17-11.12-.31-16.71-.05-1.71-.07-3.41-.11-5.12.74.18,9.49,2.25,13.56,1.46,3.62-.71,8-2.62,9.76-6.13a6.56,6.56,0,0,0-3.35-9.16c-5.2-1.91-13.37,3.81-16.42,7.7-.23.3-2.92,4.67-3.55,5.82-.07-3.76-.1-7.51,0-11.2a114.07,114.07,0,0,1,1.37-14.9c.34.08,9.46,2.29,13.63,1.48,3.63-.71,8-2.62,9.76-6.13A6.56,6.56,0,0,0,395.73,92c-5.2-1.91-13.37,3.81-16.42,7.7-.2.26-2.26,3.59-3.19,5.2l-.3-.11a84,84,0,0,1,4.06-14.49c.95-2.6,2-5,3.07-7.38,1.66.59,9.25,3.18,13.09,2.86,3.68-.3,8.28-1.72,10.37-5a6.54,6.54,0,0,0-2.32-9.46c-5-2.48-13.71,2.32-17.17,5.85-.19.19-1.88,2.35-3.09,3.95.5-1,1-2.15,1.5-3.14,1.86-3.75,3.81-7.06,5.55-10,1-1.65,1.95-3.13,2.84-4.5,1.93-.27,9.67-1.47,12.87-3.49s6.56-5.34,6.89-9.23a6.55,6.55,0,0,0-6.42-7.33c-5.54.09-11.1,8.37-12.54,13.1-.13.41-1.34,7-1.24,7h.12c-.89,1.3-1.83,2.7-2.82,4.26-1.81,2.89-3.83,6.17-5.79,9.89A115.8,115.8,0,0,0,379,90a85,85,0,0,0-4.42,14.53,1,1,0,0,1,0,.18c-.17-1.61-.79-6.1-.88-6.44-1.23-4.79-6.43-13.31-11.95-13.64a6.55,6.55,0,0,0-6.74,7c.16,3.9,3.44,7.43,6.47,9.53,3.42,2.37,12.31,4,13,4.1a116,116,0,0,0-1.76,15.37c-.16,3-.23,6-.26,9.07-.2-1.39-.38-2.63-.42-2.8-1.23-4.78-6.43-13.31-11.95-13.64a6.55,6.55,0,0,0-6.74,7c.16,3.91,3.44,7.43,6.47,9.53s10.63,3.66,12.63,4c0,1.17,0,2.33,0,3.5,0,5.59.07,11.18,0,16.65,0,1.93-.15,3.83-.26,5.73-.17-1.23-.33-2.27-.37-2.43-1.23-4.78-6.42-13.31-11.95-13.64a6.56,6.56,0,0,0-6.74,7c.16,3.9,3.44,7.42,6.48,9.52s9.89,3.51,12.27,4c-.17,1.94-.33,3.89-.58,5.76-.2,1.28-.3,2.52-.58,3.79s-.48,2.52-.71,3.76c-.55,2.37-1.1,4.82-1.69,7.11-.39,1.61-.8,3.13-1.21,4.66.07-1.92.11-5.69.08-6-.49-4.92-4.34-14.13-9.75-15.29a6.55,6.55,0,0,0-7.73,5.93c-.43,3.89,2.28,7.87,5,10.4,2.95,2.8,11.14,5.65,12.17,6-.69,2.53-1.37,5-2.06,7.29-2.34,7.93-4.59,14.45-6.23,19l3.36,1.67c0-.11.07-.2.1-.31,1.57-4.66,3.72-11.35,5.93-19.48.7-2.57,1.4-5.33,2.09-8.17a70.91,70.91,0,0,0,8.36.18c1.17,4,6.08,10.46,6.72,11.28-2,1.74-3.9,3.41-5.74,4.95-6.33,5.33-11.8,9.53-15.69,12.43l3.68,1.83c3.74-2.94,8.62-6.91,14.14-11.77,2-1.75,4.11-3.67,6.26-5.65.83.65,7.69,6,11.64,7,3.59.87,8.4,1,11.43-1.48a6.55,6.55,0,0,0,.79-9.71c-3.91-3.92-13.74-2.15-18.13.11-.26.13-2.92,1.89-4.57,3,.87-.82,1.73-1.6,2.61-2.45,1.77-1.67,3.48-3.39,5.33-5.24l2.61-2.79c.89-.91,1.72-2,2.59-3,2-2.37,3.86-4.86,5.7-7.42,1.47,1.55,6.76,7,10.18,8.36s8.15,2.25,11.52.27a6.55,6.55,0,0,0,2.26-9.48c-3.28-4.46-13.26-4.2-17.95-2.64-.29.1-3.53,1.6-5.29,2.46,1.09-1.55,2.2-3.08,3.25-4.68,3.06-4.61,6-9.37,9-14.11.91-1.45,1.83-2.89,2.74-4.33.52.56,6.67,7.11,10.51,8.7,3.41,1.41,8.15,2.25,11.51.27a6.56,6.56,0,0,0,2.26-9.49c-3.28-4.46-13.26-4.2-17.94-2.63-.36.12-5,2.28-6.17,2.89,2-3.17,4.06-6.32,6.19-9.33a116.34,116.34,0,0,1,9.37-11.67c.24.26,6.62,7.13,10.56,8.75,3.41,1.41,8.15,2.25,11.51.27a6.55,6.55,0,0,0,2.26-9.48c-3.28-4.46-13.26-4.2-17.94-2.64-.31.11-3.86,1.75-5.53,2.57l-.19-.25a85.12,85.12,0,0,1,11.38-9.85c2.22-1.64,4.44-3.09,6.63-4.45,1.06,1.4,6,7.75,9.34,9.61s7.85,3.13,11.42,1.53a6.55,6.55,0,0,0,3.28-9.18c-2.76-4.79-12.71-5.63-17.54-4.59-.27.06-2.87.93-4.76,1.59,1-.6,2-1.24,3-1.79,3.62-2.1,7.07-3.79,10.14-5.26,1.75-.83,3.35-1.54,4.85-2.19,1.76.84,8.88,4.11,12.66,4.2s8.41-.84,10.84-3.91A6.54,6.54,0,0,0,499.69,101.51Z"></path></g><g style="opacity:0.2"><path d="M281.8,404c-2.71-3.38-11.42-7.71-11.42-7.71s-1.11,6.6-1.13,7c-.18,4.94,2.36,14.59,7.57,16.48a6.55,6.55,0,0,0,8.47-4.82C286.24,411.18,284.11,406.87,281.8,404Z"></path><path d="M195.79,356.42c0-.09-4.57,4.89-4.82,5.24-2.87,4-6.08,13.47-2.78,17.92a6.54,6.54,0,0,0,9.72.65c2.89-2.63,3.49-7.41,3.15-11.08C200.67,364.83,195.79,356.43,195.79,356.42Z"></path><path d="M153.75,374.11c4.6,3.08,13.89-.55,17.77-3.62.34-.26,5.1-5,5-5.05l-.1-.05c1.47-.57,3-1.19,4.75-1.9,3.13-1.34,6.66-2.88,10.39-4.82a115.94,115.94,0,0,0,11.73-6.83,85,85,0,0,0,11.91-9.42l.13-.13c-.78,1.42-2.82,5.47-3,5.8-1.71,4.63-2.3,14.6,2.05,18a6.55,6.55,0,0,0,9.55-1.94c2.09-3.3,1.4-8.07.11-11.52-1.46-3.9-7.84-10.29-8.35-10.79A117.3,117.3,0,0,0,226,330.24c1.84-2.38,3.63-4.83,5.39-7.31-.64,1.25-1.19,2.37-1.26,2.54-1.71,4.64-2.3,14.6,2,18a6.55,6.55,0,0,0,9.55-1.94c2.09-3.3,1.4-8.07.11-11.52s-6.65-9.06-8.08-10.51c.67-1,1.34-1.91,2-2.87,3.17-4.61,6.31-9.23,9.54-13.66,1.13-1.56,2.31-3.05,3.48-4.56-.57,1.12-1,2.06-1.09,2.21-1.71,4.63-2.3,14.6,2,18a6.55,6.55,0,0,0,9.55-2c2.09-3.29,1.4-8.06.11-11.52s-6.13-8.51-7.82-10.24c1.24-1.5,2.49-3,3.76-4.41.89-.93,1.69-1.9,2.63-2.79l2.73-2.67c1.8-1.64,3.65-3.34,5.44-4.89,1.24-1.09,2.44-2.11,3.65-3.13-1.15,1.54-3.33,4.6-3.48,4.88a25.36,25.36,0,0,0-2.73,12.54,7.86,7.86,0,0,0-.6,1.32,6.56,6.56,0,0,0,4.51,8.65c5.4,1.22,12.77-5.51,15.29-9.77.14-.25,1.45-3.15,2.25-5-.31,1.15-.61,2.27-.91,3.46-.6,2.36-1.13,4.73-1.72,7.27-.23,1.24-.47,2.49-.72,3.76s-.39,2.6-.59,3.91c-.41,3.05-.68,6.17-.87,9.31-2.07-.52-9.42-2.28-13.08-1.65s-8.09,2.44-9.88,5.92a6.54,6.54,0,0,0,3.14,9.22c5.15,2,13.46-3.51,16.59-7.33.2-.24,2.14-3.24,3.17-4.9-.1,1.89-.22,3.77-.26,5.69-.13,5.53-.08,11.13-.06,16.71,0,1.72,0,3.42,0,5.13-.73-.2-9.43-2.47-13.52-1.76-3.64.63-8.1,2.44-9.89,5.91a6.55,6.55,0,0,0,3.15,9.23c5.14,2,13.45-3.52,16.58-7.34.24-.29,3-4.6,3.68-5.73,0,3.76-.07,7.5-.27,11.2a116.59,116.59,0,0,1-1.7,14.86c-.34-.09-9.41-2.5-13.6-1.78-3.64.63-8.1,2.44-9.89,5.91a6.56,6.56,0,0,0,3.15,9.23c5.15,2,13.45-3.51,16.58-7.34.21-.25,2.34-3.53,3.31-5.12l.29.12A84.26,84.26,0,0,1,273.29,388c-1,2.58-2.11,5-3.24,7.31-1.64-.63-9.18-3.39-13-3.15-3.69.22-8.32,1.53-10.48,4.79a6.54,6.54,0,0,0,2.11,9.51c4.9,2.58,13.76-2,17.29-5.47.2-.18,1.94-2.31,3.19-3.87-.53,1-1.05,2.11-1.57,3.1-2,3.7-4,7-5.78,9.85-1,1.63-2,3.09-2.94,4.44-1.93.23-9.7,1.25-12.94,3.2s-6.68,5.19-7.1,9.08a6.56,6.56,0,0,0,6.26,7.47c5.54,0,11.29-8.13,12.83-12.82.13-.41,1.5-7,1.39-7h-.11c.91-1.28,1.88-2.67,2.91-4.2,1.88-2.85,4-6.08,6-9.76a115.81,115.81,0,0,0,6-12.16,86.24,86.24,0,0,0,4.74-14.43,1.13,1.13,0,0,1,0-.18c.13,1.61.66,6.12.74,6.46,1.13,4.81,6.13,13.45,11.65,13.9a6.54,6.54,0,0,0,6.89-6.89c-.07-3.9-3.27-7.5-6.26-9.67-3.37-2.44-12.21-4.25-12.92-4.39a114.63,114.63,0,0,0,2.11-15.32c.23-3,.36-6,.46-9.07.16,1.39.32,2.64.36,2.81,1.12,4.81,6.13,13.45,11.64,13.9a6.55,6.55,0,0,0,6.9-6.89c-.08-3.9-3.28-7.5-6.27-9.67s-10.54-3.89-12.53-4.31c0-1.16.06-2.33.08-3.49.11-5.6.18-11.18.42-16.65.09-1.93.24-3.82.39-5.72.15,1.23.28,2.28.31,2.43C284,326,289,334.59,294.51,335a6.55,6.55,0,0,0,6.9-6.89c-.08-3.9-3.28-7.5-6.27-9.66s-9.81-3.73-12.17-4.24c.21-1.94.41-3.88.7-5.75.23-1.27.36-2.51.66-3.78s.54-2.5.8-3.73c.6-2.36,1.2-4.8,1.84-7.08.43-1.6.88-3.11,1.32-4.63-.11,1.92-.24,5.68-.22,6,.39,4.92,4,14.22,9.41,15.5a6.55,6.55,0,0,0,7.86-5.76c.52-3.87-2.1-7.91-4.73-10.51-2.89-2.86-11-5.9-12-6.27.74-2.51,1.48-5,2.22-7.25,2.51-7.87,4.91-14.34,6.65-18.87l-3.32-1.75-.11.31c-1.67,4.63-4,11.27-6.35,19.35-.76,2.55-1.52,5.29-2.28,8.12a68.88,68.88,0,0,0-8.36-.37c-1.08-4-5.84-10.59-6.46-11.43,2-1.69,4-3.32,5.85-4.82,6.44-5.18,12-9.26,16-12.07l-3.64-1.92c-3.8,2.86-8.77,6.72-14.4,11.45-2,1.71-4.19,3.58-6.38,5.52-.82-.68-7.56-6.17-11.49-7.22-3.56-1-8.37-1.18-11.45,1.22a6.55,6.55,0,0,0-1,9.7c3.83,4,13.69,2.45,18.13.29.26-.13,3-1.83,4.64-2.93-.89.8-1.76,1.56-2.67,2.39-1.8,1.64-3.55,3.32-5.44,5.12L256,285.81c-.91.9-1.76,2-2.65,2.94-2,2.32-4,4.77-5.86,7.28-1.43-1.57-6.6-7.09-10-8.58s-8.1-2.43-11.51-.52a6.54,6.54,0,0,0-2.46,9.43c3.17,4.53,13.16,4.49,17.88,3,.29-.09,3.56-1.52,5.35-2.34-1.13,1.52-2.27,3-3.36,4.61-3.15,4.54-6.21,9.23-9.27,13.9-.94,1.44-1.89,2.85-2.84,4.27-.5-.57-6.5-7.26-10.31-8.93-3.38-1.48-8.09-2.43-11.5-.52a6.55,6.55,0,0,0-2.47,9.43c3.18,4.53,13.16,4.49,17.88,3,.36-.11,5.06-2.17,6.23-2.75-2.09,3.13-4.2,6.22-6.4,9.19a115.59,115.59,0,0,1-9.62,11.46c-.23-.26-6.47-7.28-10.36-9-3.38-1.48-8.1-2.43-11.51-.52a6.56,6.56,0,0,0-2.47,9.43c3.18,4.53,13.16,4.49,17.88,3,.32-.09,3.9-1.66,5.59-2.44l.18.26a85.24,85.24,0,0,1-11.59,9.59c-2.26,1.59-4.51,3-6.73,4.3-1-1.42-5.79-7.88-9.13-9.81-3.19-1.84-7.78-3.31-11.38-1.79a6.56,6.56,0,0,0-3.48,9.11c2.65,4.85,12.58,5.91,17.43,5,.27-.05,2.89-.87,4.8-1.48-1,.57-2,1.19-3,1.72-3.67,2-7.16,3.63-10.26,5-1.77.79-3.38,1.46-4.9,2.08-1.73-.88-8.78-4.31-12.56-4.47s-8.43.65-10.92,3.66A6.55,6.55,0,0,0,153.75,374.11Z"></path></g></g><g id="freepik--plant-1--inject-119"><path d="M44.53,340.13c1.7.75,5.88.65,5.88.65s-.9-2.73-1-2.9c-.91-1.91-3.81-5.07-6.16-4.76A2.82,2.82,0,0,0,41,336.65C41.4,338.28,43.07,339.5,44.53,340.13Z" style="fill:#263238"></path><path d="M46,352.22c1.77.26,5.49-.82,5.79-.91A50,50,0,0,0,54,357.56c.51,1.19,1.06,2.36,1.63,3.54-.34-.5-.65-.94-.7-1-1.38-1.6-5-3.89-7.2-3a2.82,2.82,0,0,0-1.25,4c.81,1.47,2.75,2.19,4.32,2.42s4.78-.62,5.62-.86c.23.45.44.9.67,1.35,1.08,2.14,2.16,4.28,3.16,6.41.36.75.68,1.5,1,2.26-.3-.45-.56-.82-.61-.87-1.39-1.6-5-3.89-7.2-3a2.82,2.82,0,0,0-1.25,4c.81,1.47,2.75,2.2,4.31,2.42s4.48-.54,5.48-.82c.31.78.62,1.56.88,2.33.17.53.37,1,.51,1.57s.29,1.06.44,1.58c.24,1,.5,2.06.71,3.06.15.69.29,1.36.42,2-.34-.75-1-2.21-1.11-2.32-1.13-1.8-4.37-4.61-6.68-4a2.8,2.8,0,0,0-1.83,3.76c.57,1.58,2.37,2.59,3.89,3,1.67.52,5.37.05,5.83,0,.22,1.1.43,2.18.6,3.2.4,2.25.7,4.26.93,6h1.55c-.27-1.77-.62-3.87-1.09-6.23-.22-1.12-.48-2.32-.76-3.54a29.93,29.93,0,0,0,3.25-1.53,20.38,20.38,0,0,0,4.74,3.05c-.42,1.05-.85,2.06-1.26,3-.86,2-1.68,3.74-2.4,5.24H72.3c.62-1.38,1.31-2.95,2-4.7.43-1.05.88-2.19,1.32-3.37.45.1,4.11.84,5.81.45,1.55-.34,3.42-1.22,4.12-2.75A2.81,2.81,0,0,0,84,380.42c-2.25-.75-5.69,1.81-7,3.51-.07.1-.76,1.29-1.18,2,.18-.48.36-.94.54-1.44.36-1,.69-2,1-3,.15-.52.31-1.05.47-1.58s.28-1.09.42-1.64c.31-1.29.56-2.61.78-3.94.86.31,3.92,1.38,5.51,1.26s3.57-.69,4.48-2.09a2.81,2.81,0,0,0-.94-4.08c-2.11-1.09-5.9.92-7.41,2.41-.09.1-1,1.29-1.56,2,.12-.8.25-1.6.35-2.42.3-2.36.52-4.75.75-7.14.07-.73.15-1.46.23-2.19.3.11,3.92,1.46,5.7,1.34,1.58-.11,3.57-.7,4.48-2.1a2.81,2.81,0,0,0-.94-4.08c-2.12-1.09-5.9.92-7.41,2.42-.11.11-1.49,1.83-1.82,2.29.17-1.61.36-3.21.6-4.78a51.73,51.73,0,0,1,1.37-6.28c.14.06,3.91,1.48,5.74,1.35,1.58-.11,3.56-.69,4.48-2.1a2.81,2.81,0,0,0-1-4.08c-2.11-1.09-5.9.92-7.4,2.42-.12.12-1.6,2-1.85,2.33,0-.12.06-.25.1-.37a35.76,35.76,0,0,1,2.49-5.94c.54-1.06,1.11-2,1.69-3,.68.34,3.78,1.84,5.43,1.91s3.63-.3,4.69-1.59a2.82,2.82,0,0,0-.49-4.16c-2-1.32-6,.26-7.63,1.59-.09.07-.93.9-1.53,1.52.27-.42.54-.86.81-1.26,1-1.5,2-2.81,2.89-4,.52-.65,1-1.23,1.45-1.77.84,0,4.2-.12,5.67-.81s3.08-1.93,3.43-3.57a2.81,2.81,0,0,0-2.36-3.46c-2.36-.26-5.17,3-6,4.92-.08.17-.94,2.92-.9,2.92h0c-.45.51-.92,1.06-1.43,1.67-.92,1.14-1.95,2.43-3,3.91a51.53,51.53,0,0,0-3.1,4.94,36.41,36.41,0,0,0-2.64,6l0,.08c0-.7,0-2.65,0-2.8-.28-2.1-2-6-4.38-6.44a2.81,2.81,0,0,0-3.24,2.64c-.14,1.68,1.07,3.35,2.25,4.41,1.34,1.19,5,2.34,5.33,2.43A51.18,51.18,0,0,0,80.49,357c-.23,1.27-.42,2.56-.59,3.86,0-.61,0-1.15,0-1.22-.27-2.11-2-6-4.38-6.45a2.81,2.81,0,0,0-3.24,2.65c-.14,1.67,1.08,3.35,2.26,4.4s4.33,2.12,5.17,2.39c-.06.5-.13,1-.19,1.49-.28,2.38-.56,4.77-.9,7.1-.12.82-.27,1.62-.41,2.42,0-.53,0-1,0-1.05-.27-2.11-2-6-4.38-6.45a2.81,2.81,0,0,0-3.24,2.65c-.14,1.67,1.08,3.35,2.26,4.4s4,2,5,2.34c-.17.82-.35,1.64-.55,2.43-.15.53-.26,1.06-.45,1.58s-.33,1.05-.5,1.57c-.36,1-.72,2-1.09,2.94-.26.66-.51,1.29-.77,1.92.13-.81.35-2.42.35-2.55a10.84,10.84,0,0,0-1.46-5.32,3.28,3.28,0,0,0,0-.62,2.82,2.82,0,0,0-3.44-2.39c-2.3.62-3.75,4.65-3.86,6.77,0,.12.07,1.49.14,2.35-.12-.5-.22-1-.35-1.5-.24-1-.51-2-.8-3.11-.15-.52-.31-1-.47-1.57s-.37-1.07-.56-1.61c-.45-1.24-1-2.48-1.53-3.71.89-.21,4-1,5.3-2s2.6-2.54,2.58-4.22a2.81,2.81,0,0,0-3-2.88c-2.37.26-4.42,4-4.85,6.1,0,.13-.17,1.66-.23,2.5-.33-.74-.67-1.48-1-2.22-1.06-2.13-2.2-4.25-3.32-6.37l-1-2c.32-.07,4.08-.94,5.5-2,1.25-1,2.59-2.54,2.58-4.22a2.81,2.81,0,0,0-3-2.88c-2.37.25-4.42,4-4.85,6.1,0,.16-.23,2.35-.25,2.91-.74-1.43-1.47-2.86-2.13-4.31a48.59,48.59,0,0,1-2.32-6c.14,0,4.07-.93,5.52-2,1.26-1,2.6-2.54,2.58-4.22a2.8,2.8,0,0,0-3-2.88c-2.37.25-4.42,4-4.85,6.1,0,.16-.24,2.52-.25,3,0-.12-.09-.24-.12-.36A36.29,36.29,0,0,1,51,344.52c-.13-1.18-.19-2.32-.23-3.42.75-.09,4.17-.55,5.59-1.41s2.85-2.24,3-3.91a2.83,2.83,0,0,0-2.71-3.2c-2.38,0-4.83,3.52-5.48,5.54,0,.11-.28,1.26-.44,2.11,0-.5,0-1,0-1.5,0-1.79.12-3.44.23-4.9.07-.83.15-1.57.23-2.27.69-.47,3.44-2.42,4.29-3.8s1.5-3.31.88-4.87a2.81,2.81,0,0,0-3.87-1.59c-2.12,1.09-2.67,5.34-2.32,7.43,0,.18.83,3,.86,2.94l0,0c-.09.67-.18,1.39-.27,2.18-.14,1.45-.29,3.1-.33,4.91a48.54,48.54,0,0,0,.14,5.83A36,36,0,0,0,51.66,351a.24.24,0,0,0,0,.08c-.37-.59-1.47-2.2-1.57-2.31-1.39-1.61-5-3.9-7.21-3a2.81,2.81,0,0,0-1.24,4C42.46,351.26,44.4,352,46,352.22Z" style="fill:#263238"></path><path d="M86.74,341.05s.76-2.78.78-3c.3-2.1-.38-6.33-2.52-7.37a2.81,2.81,0,0,0-3.82,1.7c-.58,1.57.15,3.51,1,4.84C83.2,338.82,86.74,341.05,86.74,341.05Z" style="fill:#263238"></path><polygon points="81.33 430.87 58.52 430.87 55.67 391.9 84.19 391.9 81.33 430.87" style="fill:#fff;stroke:#263238;stroke-linecap:round;stroke-linejoin:round"></polygon><polygon points="56.19 396.55 56.47 399 83.39 399 83.66 396.55 56.19 396.55" style="fill:#263238"></polygon><polygon points="82.78 404.4 83.06 401.94 56.8 401.94 57.08 404.4 82.78 404.4" style="fill:#263238"></polygon></g><g id="freepik--Clock--inject-119"><rect x="321.4" y="79.79" width="13.91" height="27.81" style="fill:#fff;stroke:#263238;stroke-miterlimit:10"></rect><rect x="321.4" y="79.79" width="13.91" height="12.32" style="fill:#263238;stroke:#263238;stroke-miterlimit:10"></rect><rect x="310.15" y="69.19" width="36.42" height="19.87" style="fill:#92E3A9;stroke:#263238;stroke-miterlimit:10"></rect><line x1="315.15" y1="70.14" x2="315.15" y2="83.74" style="fill:#fff;stroke:#263238;stroke-miterlimit:10"></line><line x1="321.64" y1="76.32" x2="321.64" y2="82.5" style="fill:#fff;stroke:#263238;stroke-miterlimit:10"></line><line x1="327.2" y1="88.06" x2="327.2" y2="73.54" style="fill:#fff;stroke:#263238;stroke-miterlimit:10"></line><rect x="423.67" y="117.08" width="10.18" height="20.37" transform="translate(207.52 -261.43) rotate(43.82)" style="fill:#fff;stroke:#263238;stroke-miterlimit:10"></rect><rect x="427.6" y="118.66" width="10.18" height="9.02" transform="translate(205.78 -265.29) rotate(43.82)" style="fill:#263238;stroke:#263238;stroke-miterlimit:10"></rect><rect x="422.81" y="112.3" width="26.67" height="14.55" transform="translate(204.25 -268.69) rotate(43.82)" style="fill:#92E3A9;stroke:#263238;stroke-miterlimit:10"></rect><line x1="433.73" y1="108.13" x2="426.84" y2="115.31" style="fill:#fff;stroke:#263238;stroke-miterlimit:10"></line><line x1="434.02" y1="114.68" x2="430.89" y2="117.95" style="fill:#fff;stroke:#263238;stroke-miterlimit:10"></line><line x1="431.01" y1="123.7" x2="438.37" y2="116.03" style="fill:#fff;stroke:#263238;stroke-miterlimit:10"></line><circle cx="328.36" cy="249.3" r="151.43" transform="translate(-80.11 305.2) rotate(-45)" style="fill:#263238;stroke:#263238;stroke-miterlimit:10"></circle><circle cx="328.36" cy="249.3" r="139.01" transform="translate(-80.11 305.2) rotate(-45)" style="fill:#fff"></circle><path d="M460,293.66a138.38,138.38,0,0,0,2.62-81.72c-35.26-3.53-81.54,3-131.94,37.36-53.87,36.77-109,23.62-140.78,10A139,139,0,0,0,460,293.66Z" style="opacity:0.2"></path><path d="M311.85,279.9a161.12,161.12,0,0,1-30.28,27.81,157.86,157.86,0,0,1,52.37-62.5A161,161,0,0,1,311.85,279.9Z" style="fill:#92E3A9;stroke:#263238;stroke-miterlimit:10"></path><path d="M290.58,220.07a248,248,0,0,1-34.88-42.15A244.57,244.57,0,0,1,334,253.42,248.58,248.58,0,0,1,290.58,220.07Z" style="fill:#92E3A9;stroke:#263238;stroke-miterlimit:10"></path><circle cx="330.65" cy="249.3" r="7.96" transform="translate(-79.44 306.83) rotate(-45)" style="fill:#263238;stroke:#263238;stroke-miterlimit:10"></circle><line x1="327.91" y1="118.59" x2="327.91" y2="141" style="fill:#fff;stroke:#263238;stroke-miterlimit:10"></line><line x1="327.91" y1="361.86" x2="327.91" y2="384.27" style="fill:#fff;stroke:#263238;stroke-miterlimit:10"></line><line x1="460.75" y1="251.43" x2="438.35" y2="251.43" style="fill:#fff;stroke:#263238;stroke-miterlimit:10"></line><line x1="217.48" y1="251.43" x2="195.07" y2="251.43" style="fill:#fff;stroke:#263238;stroke-miterlimit:10"></line><line x1="442.28" y1="183.86" x2="422.99" y2="195.26" style="fill:#fff;stroke:#263238;stroke-miterlimit:10"></line><line x1="232.83" y1="307.6" x2="213.54" y2="319" style="fill:#fff;stroke:#263238;stroke-miterlimit:10"></line><line x1="389.88" y1="133.93" x2="379.43" y2="153.75" style="fill:#fff;stroke:#263238;stroke-miterlimit:10"></line><line x1="276.4" y1="349.11" x2="265.95" y2="368.93" style="fill:#fff;stroke:#263238;stroke-miterlimit:10"></line><line x1="213.54" y1="183.86" x2="232.83" y2="195.26" style="fill:#fff;stroke:#263238;stroke-miterlimit:10"></line><line x1="422.99" y1="307.6" x2="442.28" y2="319" style="fill:#fff;stroke:#263238;stroke-miterlimit:10"></line><line x1="265.95" y1="133.93" x2="276.4" y2="153.75" style="fill:#fff;stroke:#263238;stroke-miterlimit:10"></line><line x1="379.43" y1="349.11" x2="389.88" y2="368.93" style="fill:#fff;stroke:#263238;stroke-miterlimit:10"></line></g><g id="freepik--character-2--inject-119"><path d="M436.24,411.74c.09.75-19.44.92-19.73,1.71s.6,1.83.6,1.83,9.62,6.1,11.64,7.19,6.4,1.16,8.45,2.44a36.73,36.73,0,0,0,5.63,2.77c.79.29.84.66,3-1.87s2.07-8.4,2-9.33S436.24,411.74,436.24,411.74Z" style="fill:#fff;stroke:#263238;stroke-miterlimit:10"></path><path d="M484.46,303.53l-5.11,6.66s-32.44,33.14-33,36.81-10.14,64.74-10.14,64.74l11.34,6.09,18-57.11,30.16-25.64,1.75.37,18.56,43a8.66,8.66,0,0,0,2.46-.1c.54-.25,62.54-17.69,62.54-17.69l-1.91-8.32-50.57,3L522,316.46s-.11-10.8-2.53-17Z" style="fill:#263238;stroke:#263238;stroke-miterlimit:10"></path><path d="M498.07,234l-5.26,2.13-1.61,7.4,2.94-2.43s-5.82,12.06-7.63,17.77-4.6,29.19-4.88,36.62,0,10.06,5.57,10.37,22.81-1.31,26.53-1.93,6.37-.73,7.56-5.24a33.39,33.39,0,0,0,1.17-7.91c.18-1.73,4.48-33.54,3.69-42s-2.55-12.23-5.92-16.78-5-5.63-5-5.63Z" style="fill:#92E3A9;stroke:#263238;stroke-miterlimit:10"></path><path d="M495.13,186.49s-5.34,7.51-5.44,9.59-.22,5.54-1.9,7.46-5.41,3.9-4,5.29a15.79,15.79,0,0,0,3.2,2.39s-.32,13.65,1.44,14,11.49-2,11.49-2l.72,9.22,14.65-6-.54-6.14s11.23-13.19,11.13-18.52-1-10.23-7.21-14.68-4.6-2.57-12.85-6.79-12.35-1-12.58,1.45S495.13,186.49,495.13,186.49Z" style="fill:#fff;stroke:#263238;stroke-miterlimit:10"></path><path d="M518.63,187.05c-6.2-4.46-4.6-2.57-12.85-6.79s-12.35-1-12.58,1.45,1.93,4.78,1.93,4.78,4.36-1,5.61-.65,4.46,2.76,4,3.67-3.71,2.15-2.07,4.38,4.7,3.42,4.29,5.88-2.82,3.94-1.3,5.15,2.12.44,3.1,0,5-1.27,3.76,2.67-4.12,4.61-4.12,4.61,1.95,6.5,5.44,6.79a8.44,8.44,0,0,0,2-.17c2.89-3.57,10-12.82,9.93-17.07C525.75,196.4,524.84,191.5,518.63,187.05Z" style="fill:#263238;stroke:#263238;stroke-miterlimit:10"></path><path d="M493.76,202.84c-.14,1-.58,1.76-1,1.7s-.6-.91-.46-1.9.57-1.75,1-1.7S493.9,201.85,493.76,202.84Z" style="fill:#263238"></path><path d="M491.54,197.24s3.28-3,5,.11" style="fill:none;stroke:#263238;stroke-miterlimit:10"></path><polygon points="499.88 223.17 506.44 221.72 500.12 226.76 499.88 223.17" style="fill:#263238;stroke:#263238;stroke-miterlimit:10"></polygon><path d="M514.8,222.78c-.54.25-18.32,10.66-18.32,10.66l.35,7.93L518.63,228Z" style="fill:#92E3A9;stroke:#263238;stroke-miterlimit:10"></path><path d="M433.86,243.33l40.34-5.61L478.27,268l5.05-.58,3.88,38.46L444.49,314s-4.82-31.9-4.73-39.31h-3.41Z" style="fill:#fff;stroke:#263238;stroke-miterlimit:10"></path><polygon points="443.72 241.62 488.58 235.68 488.44 225.56 443.02 228.98 443.72 241.62" style="fill:#263238;stroke:#263238;stroke-miterlimit:10"></polygon><rect x="447.07" y="230.3" width="25.45" height="6.98" transform="translate(-23.79 54.3) rotate(-6.59)" style="fill:#fff;stroke:#263238;stroke-miterlimit:10"></rect><path d="M483.47,230.86a2.17,2.17,0,1,1-2.4-1.91A2.16,2.16,0,0,1,483.47,230.86Z" style="fill:none;stroke:#263238;stroke-miterlimit:10"></path><line x1="435.72" y1="249.56" x2="457.5" y2="245.91" style="fill:none;stroke:#263238;stroke-miterlimit:10"></line><line x1="446.55" y1="251.35" x2="465.88" y2="247.79" style="fill:none;stroke:#263238;stroke-miterlimit:10"></line><line x1="471.68" y1="252.05" x2="464.26" y2="253.48" style="fill:none;stroke:#263238;stroke-miterlimit:10"></line><line x1="436.65" y1="264.26" x2="460.71" y2="260.53" style="fill:none;stroke:#263238;stroke-miterlimit:10"></line><line x1="446.73" y1="259.49" x2="457.55" y2="257.86" style="fill:none;stroke:#263238;stroke-miterlimit:10"></line><line x1="462.53" y1="259.94" x2="465.88" y2="259.37" style="fill:none;stroke:#263238;stroke-miterlimit:10"></line><line x1="441.98" y1="267.63" x2="463.64" y2="264.56" style="fill:none;stroke:#263238;stroke-miterlimit:10"></line><line x1="473.66" y1="265.87" x2="459.63" y2="267.68" style="fill:none;stroke:#263238;stroke-miterlimit:10"></line><line x1="441.19" y1="273.98" x2="476.13" y2="269.19" style="fill:none;stroke:#263238;stroke-miterlimit:10"></line><line x1="451.76" y1="276.75" x2="466.89" y2="274.62" style="fill:none;stroke:#263238;stroke-miterlimit:10"></line><line x1="442.25" y1="283.16" x2="466.74" y2="279.95" style="fill:none;stroke:#263238;stroke-miterlimit:10"></line><line x1="469.39" y1="279.84" x2="473.67" y2="279.15" style="fill:none;stroke:#263238;stroke-miterlimit:10"></line><line x1="444.44" y1="288.98" x2="456.41" y2="287.41" style="fill:none;stroke:#263238;stroke-miterlimit:10"></line><line x1="453.58" y1="292.48" x2="465.33" y2="290.74" style="fill:none;stroke:#263238;stroke-miterlimit:10"></line><line x1="481.2" y1="301.63" x2="474.13" y2="302.82" style="fill:none;stroke:#263238;stroke-miterlimit:10"></line><line x1="445.44" y1="302.53" x2="452.18" y2="301.75" style="fill:none;stroke:#263238;stroke-miterlimit:10"></line><line x1="450.21" y1="299.51" x2="455.08" y2="298.95" style="fill:none;stroke:#263238;stroke-miterlimit:10"></line><path d="M477.25,282.16,454,306.28s-5.36,2.9-5.77,4.27-2.71,7.72-2.63,8.47,1.65,1.14,2.94.8,2.75-.89,2.75-.89a10.77,10.77,0,0,0,4.27.84,8.27,8.27,0,0,0,5.69-3.32c.62-1.21,3.47-6.09,3.47-6.09l1.78-2.67L485.36,290Z" style="fill:#fff;stroke:#263238;stroke-miterlimit:10"></path><path d="M497.51,278.49s15.32-.44,19.31-2" style="fill:none;stroke:#263238;stroke-miterlimit:10"></path><path d="M495.62,280.22s12.72,8.21,21.61,7.95" style="fill:none;stroke:#263238;stroke-miterlimit:10"></path><path d="M511.34,240.45s-2.81.33-6.9,4.4-25.7,35.43-25.7,35.43l6.62,9.67S521,263.06,521.6,260.33s.46-4.23-.78-8.45" style="fill:#92E3A9;stroke:#263238;stroke-miterlimit:10"></path><path d="M521.6,260.33s-24.43,11.93-31.69,13.15" style="fill:none;stroke:#263238;stroke-miterlimit:10"></path><line x1="500" y1="267.19" x2="485.74" y2="271.88" style="fill:none;stroke:#263238;stroke-miterlimit:10"></line><path d="M475.89,281.93s7.9,10.86,8.44,10.6,5.33-4.79,5.33-4.79l-8.07-12.35Z" style="fill:#92E3A9;stroke:#263238;stroke-miterlimit:10"></path><path d="M579.18,352.31l10.41-2a6.47,6.47,0,0,1,1.51,3.24c.45,2.23,3.65,16.85,3.76,17.79s.49,2.6-.07,2.66a4.79,4.79,0,0,1-2.8-1.19c-1-.83-8.94-11.68-8.94-11.68l-2-.54Z" style="fill:#fff;stroke:#263238;stroke-miterlimit:10"></path></g><g id="freepik--character-1--inject-119"><path d="M157.29,182s-12.46-5.26-21-.28-11.76,14-13.14,21.45,2.21,18.12,2.21,20.48a11,11,0,0,1-.55,3.73s1.66,1.52,9.13,1.66,13.7,0,17.85-.69A82,82,0,0,0,162,225.6l-5.26-14.8s8-4.43,12.32-8.44,4.84-11.35.69-17S159.09,179.94,157.29,182Z" style="fill:#263238;stroke:#263238;stroke-miterlimit:10"></path><path d="M148.85,222.42a55.85,55.85,0,0,1,1.52,7.2,10,10,0,0,1-.14,3c-.28,1-.42,1.25-5.4,1s-4.15,8.85-4.15,8.85l.56,43.45a63.39,63.39,0,0,0,20.2,2.91c10.38-.42,13.28-2.91,13.28-2.91l-.83-30.71L169.05,232s-3.46.14-4.71-.42-1.52-.41-1.66-1.38-.69-4.57-.69-4.57Z" style="fill:#fff;stroke:#263238;stroke-miterlimit:10"></path><path d="M173.89,255.22l-2.15-10.34c-8.92,1.4-24,1.69-31,1.74l.51,39.31a63.39,63.39,0,0,0,20.2,2.91c10.38-.42,13.28-2.91,13.28-2.91Z" style="fill:none;stroke:#263238;stroke-miterlimit:10"></path><path d="M124.06,343.14,121,358.43s-6.19,10.84-8.13,19.55-6.39,38.13-6.39,38.13-5.22,9.29-5.61,13.74,1,4.84,3.68,3.49,6-7.36,6.77-12a55.2,55.2,0,0,1,1.36-6.78c.19-.58,19.93-42.78,21.48-46.65s10.46-23.42,10.46-23.42Z" style="fill:#fff;stroke:#263238;stroke-miterlimit:10"></path><path d="M103.35,425.79l1.54-5.62-.6.07c-1.49,3.06-3.24,7.1-3.46,9.61-.39,4.46,1,4.84,3.68,3.49s6-7.36,6.77-12l-4.06,6Z" style="fill:#fff;stroke:#263238;stroke-miterlimit:10"></path><path d="M185.61,345.26a74.7,74.7,0,0,1,.58,12.39c-.39,5-8.71,64.07-8.71,64.07a16.11,16.11,0,0,0,6.2,5.23c4.45,2.32,8.13,4.06,7.35,4.45s-6.19,1-11.61.58-9.68-1-9.68-1a1.79,1.79,0,0,1-1.16-2.32c.38-1.93,1.35-8.13,1.55-9.68s-.39-11-.58-20.71-3.1-19-2.91-25.74,1.16-14.13,1.16-14.13l-2.71-12.2Z" style="fill:#fff;stroke:#263238;stroke-miterlimit:10"></path><path d="M183.68,427l-2.33,1.55s-2.71.77-7.55-1c-1.92-.69-3.5-1.29-4.71-1.76-.2,1.22-.39,2.29-.51,2.92a1.79,1.79,0,0,0,1.16,2.32s4.26.59,9.68,1,10.84-.19,11.61-.58S188.13,429.27,183.68,427Z" style="fill:#fff;stroke:#263238;stroke-miterlimit:10"></path><path d="M137.8,284.68s-8.32,17-10.06,27.1-4.46,33.29-4.46,33.29,25,2.71,38.91,2.9a169.92,169.92,0,0,0,23.61-1.16s-4.83-37.55-6.19-46.45a92.75,92.75,0,0,0-4.06-16.26l-38.33-1.36Z" style="fill:#263238;stroke:#263238;stroke-miterlimit:10"></path><path d="M160.38,195s.44,3.95-5.93,10.1a26.37,26.37,0,0,1-14.71,6.81s6.8,10.33,7.9,11.64,10.11,4.84,15.82,3.08,5.49-10.54,5.71-16.25-6.15-15.6-6.15-15.6Z" style="fill:#fff;stroke:#263238;stroke-miterlimit:10"></path><path d="M159.28,203.78s0,3.07.66,4.17,4,1.76,4,1.76l-1.1,3.07" style="fill:none;stroke:#263238;stroke-miterlimit:10"></path><path d="M139.74,211.9c-.24-.29-2.11,2-2.21,2.27-.85,2.25.66,5.29,3.22,5.29,2.85,0,3.19-.83,3.19-.83S139.75,211.93,139.74,211.9Z" style="fill:#fff;stroke:#263238;stroke-miterlimit:10"></path><ellipse cx="160.88" cy="217.48" rx="1.62" ry="2" style="fill:#263238"></ellipse><path d="M163.76,204.69c.24.8,0,1.58-.5,1.73s-1.12-.37-1.37-1.17,0-1.58.5-1.73S163.52,203.89,163.76,204.69Z" style="fill:#263238"></path><path d="M154.34,207.29c.24.8,0,1.58-.5,1.73s-1.13-.37-1.37-1.17,0-1.58.5-1.73S154.1,206.49,154.34,207.29Z" style="fill:#263238"></path><path d="M160,201.72s2.28-2.16,4.12-1.73" style="fill:none;stroke:#263238;stroke-miterlimit:10"></path><path d="M52.05,215.19s-4.26,1.93-3.87,2.9,1.94,5.23,3.1,5a11.28,11.28,0,0,0,5-3.29C57.28,218.48,52.05,215.19,52.05,215.19Z" style="fill:#fff;stroke:#263238;stroke-miterlimit:10"></path><path d="M67.54,219.83s-8.13-3.87-9.49-4.64-11.23-6-11.23-6-1.93,1-1.54,2.13,7.16,5.42,7.93,6.19a3.24,3.24,0,0,1,.78,2.9c-.2,1-5.42,3.68-6.39,3.88s-2.13,1-.39,2.13,5.62-.2,7.16-.39,2.91.39,4.84.39a16.78,16.78,0,0,0,5-1.36l1.35.19Z" style="fill:#fff;stroke:#263238;stroke-miterlimit:10"></path><path d="M164.34,231.55s5.4,23.8,5.26,30.72.69,38.89.28,44.28-.83,10.93,6,12.73a18.21,18.21,0,0,0,12.59-1.52s-9.41-31.69-10.24-37.08-1.66-10.24-1.11-13,2.36-5.54,2.63-8.72a30.22,30.22,0,0,0-.13-6.09l17.15,12.73a7.69,7.69,0,0,0,6.37,1.66c3.6-.83,4.29-10.65,2.21-14.8S186.07,238.2,183,236.26s-9.4-4.71-11.07-4.71Z" style="fill:#92E3A9;stroke:#263238;stroke-miterlimit:10"></path><path d="M169.79,245.08l3.92-2.62-6.4-10.91h-3s5.4,23.8,5.26,30.72c0,2.26,0,7.17.1,13L175,248Z" style="fill:#92E3A9;stroke:#263238;stroke-miterlimit:10"></path><path d="M174.45,223.11l1.93,14.95s5,1,5.81.55.83-2.35.83-2.35L181,223.39Z" style="fill:#263238;stroke:#263238;stroke-miterlimit:10"></path><path d="M196.33,228.77l-.18-26.1c-15.59,8.93-28.38,10-28.38,10-1.93,0-3.5,2.58-3.5,5.78s1.57,5.78,3.5,5.78a2,2,0,0,0,.42-.05C181.91,222.6,196.33,228.77,196.33,228.77Z" style="fill:#fff;stroke:#263238;stroke-miterlimit:10"></path><ellipse cx="197.77" cy="215.81" rx="11.87" ry="15.94" style="fill:#fff;stroke:#263238;stroke-miterlimit:10"></ellipse><ellipse cx="197.77" cy="215.81" rx="9.98" ry="13.39" style="fill:#fff;stroke:#263238;stroke-miterlimit:10"></ellipse><path d="M188.44,211.09a17.59,17.59,0,0,0-.65,4.72,17,17,0,0,0,1,5.85l6.74-1.74V211.7l-6.93-.8Z" style="fill:#fff;stroke:#263238;stroke-miterlimit:10"></path><ellipse cx="195.55" cy="215.81" rx="3.06" ry="4.11" style="fill:#92E3A9;stroke:#263238;stroke-miterlimit:10"></ellipse><path d="M174.45,211.44a48.6,48.6,0,0,1-6.68,1.22c-1.93,0-3.5,2.58-3.5,5.78s1.57,5.78,3.5,5.78a2,2,0,0,0,.42-.05,42.4,42.4,0,0,1,6.56-.21C170.49,219.28,173.41,213.24,174.45,211.44Z" style="fill:#92E3A9;stroke:#263238;stroke-miterlimit:10"></path><polygon points="172.34 226.6 170.47 228.04 171.33 232.95 173.64 233.38 174.07 227.46 172.34 226.6" style="fill:#fff;stroke:#263238;stroke-miterlimit:10"></polygon><path d="M185.79,233.63l-5.36-8.91-8.09,1.88-.14,2,1,.57.86,7.37,5.78,1s1.87,2,2.88,2.16a7.63,7.63,0,0,0,2.31-.14l2,1.59,3.61-4.62Z" style="fill:#fff;stroke:#263238;stroke-miterlimit:10"></path><path d="M187.93,234.1l-4.47,7.08s10.91,23.17,14,25.24A8.68,8.68,0,0,0,208.9,265c3.46-3.87,2.49-9.69.55-12.32S187.93,234.1,187.93,234.1Z" style="fill:#92E3A9;stroke:#263238;stroke-miterlimit:10"></path><line x1="173.21" y1="229.19" x2="179.7" y2="228.33" style="fill:#fff;stroke:#263238;stroke-miterlimit:10"></line><line x1="174.07" y1="232.08" x2="179.13" y2="231.79" style="fill:#fff;stroke:#263238;stroke-miterlimit:10"></line><line x1="173.93" y1="234.39" x2="178.84" y2="234.97" style="fill:#fff;stroke:#263238;stroke-miterlimit:10"></line><path d="M150.37,229.62s-2.63,1.24-3.05,1.52-13.42-2.08-13.42-2.08a69.14,69.14,0,0,1-8.83.85c-3.59,0-16.49-1.68-16.49-1.68l-42.2-9.68-1.67,9.13,45.53,18.13,21.17,8.58s.83,9.82,1.11,17.43-4.57,19.23-5.4,21.72-10.51,19.52-10.51,19.52,14.11,6.22,20.2,7.47c6.43,1.31,15.07-1.68,17.58-8.12,1.21-3.09,1.32-6.49,1.42-9.8.49-16.53.59-34-2.81-50.3C152.17,248.57,150.37,229.62,150.37,229.62Z" style="fill:#92E3A9;stroke:#263238;stroke-miterlimit:10"></path><path d="M148.09,246.12l-4.19,3.4,12,29.62A156.36,156.36,0,0,0,153,252.31c-.83-3.74-2.63-22.69-2.63-22.69s-2.63,1.24-3.05,1.52l-4.2,12.63Z" style="fill:#92E3A9;stroke:#263238;stroke-miterlimit:10"></path></g></svg>