<svg xmlns="http://www.w3.org/2000/svg" viewBox="0 0 500 500"><g id="freepik--Floor--inject-105"><ellipse id="freepik--floor--inject-105" cx="250.12" cy="352.89" rx="227.3" ry="126.37" style="fill:#f5f5f5"></ellipse></g><g id="freepik--Shadows--inject-105"><path id="freepik--Shadow--inject-105" d="M37.39,354.79l59.49,34.37a3,3,0,0,0,2.73,0l155.27-89.65a.83.83,0,0,0,0-1.58l-59.49-34.36a3,3,0,0,0-2.73,0L37.39,353.22A.83.83,0,0,0,37.39,354.79Z" style="fill:#e0e0e0"></path><path id="freepik--shadow--inject-105" d="M291.57,364.82l39.09-26.27-25.75-14.87c-3.82-2.2-3.82-5.78,0-8L356,286.2a15.27,15.27,0,0,1,13.84,0l73.8,42.61c3.83,2.21,3.83,5.79,0,8l-51.07,29.49a15.3,15.3,0,0,1-13.85,0l-14.26-8.24-45.77,23.64c-7.84,4.06-20,4-27.18-.16S284.36,369.91,291.57,364.82Z" style="fill:#e0e0e0"></path><path id="freepik--shadow--inject-105" d="M253.24,288.73l48.62-28.05a7.61,7.61,0,0,1,6.92,0l40.4,23.44c1.91,1.11,1.9,2.9,0,4l-48.62,28.05a7.62,7.62,0,0,1-6.91,0l-40.4-23.44C251.33,291.63,251.33,289.84,253.24,288.73Z" style="fill:#e0e0e0"></path><ellipse id="freepik--shadow--inject-105" cx="448.46" cy="368.82" rx="19.89" ry="11.48" style="fill:#e0e0e0"></ellipse></g><g id="freepik--Window--inject-105"><g id="freepik--window--inject-105"><polygon points="29 190.55 31.72 192.17 151.42 123.07 148.69 121.44 29 190.55" style="fill:#fafafa"></polygon><polygon points="148.69 121.44 31.72 188.97 31.72 104.77 148.69 37.27 148.69 121.44" style="fill:#fff"></polygon><polygon points="91.03 67.8 91.03 155.2 96.17 152.23 96.17 64.83 91.03 67.8" style="fill:#f0f0f0"></polygon><polygon points="88.45 66.31 91.03 67.8 91.03 155.2 88.45 153.71 88.45 66.31" style="fill:#e0e0e0"></polygon><path d="M156.56,26.75l-130,75.05v99.28l130-75Zm-5.14,96.32-119.7,69.1v-87.4l119.7-69.11Z" style="fill:#f0f0f0"></path><polygon points="151.42 123.07 148.69 121.44 148.69 37.27 151.42 35.66 151.42 123.07" style="fill:#e0e0e0"></polygon><polygon points="156.56 26.75 153.79 25.17 23.81 100.22 26.58 101.8 156.56 26.75" style="fill:#fafafa"></polygon><polygon points="23.81 100.22 26.58 101.8 26.58 201.09 23.81 199.5 23.81 100.22" style="fill:#e0e0e0"></polygon><polygon points="91.03 70.77 96.16 67.8 96.16 70.77 91.03 73.74 91.03 70.77" style="fill:#e0e0e0"></polygon><polygon points="91.03 73.74 88.45 72.25 91.03 70.77 91.03 73.74" style="opacity:0.15"></polygon></g></g><g id="freepik--Diplomas--inject-105"><g id="freepik--diplomas--inject-105"><g id="freepik--Diploma--inject-105"><g id="freepik--window--inject-105"><polygon points="471.23 136.93 469.74 137.79 432.49 116.28 433.98 115.42 471.23 136.93" style="fill:#f0f0f0"></polygon><polygon points="433.98 115.42 469.74 136.07 469.74 105.07 433.98 84.42 433.98 115.42" style="fill:#fafafa"></polygon><path d="M431,117.14l40.24,23.23V104.21L431,81Zm1.5-33.58,37.25,21.51v32.72l-37.25-21.51Z" style="fill:#ebebeb"></path><polygon points="432.49 116.28 433.98 115.42 433.98 84.42 432.49 83.56 432.49 116.28" style="fill:#e0e0e0"></polygon><polygon points="431 80.98 432.49 80.12 472.72 103.35 471.23 104.21 431 80.98" style="fill:#f5f5f5"></polygon><polygon points="472.72 103.35 471.23 104.21 471.23 140.37 472.72 139.51 472.72 103.35" style="fill:#e0e0e0"></polygon></g><path d="M462.72,122.24a5.56,5.56,0,0,1,2.52,4.36c0,1.6-1.13,2.25-2.52,1.45a5.55,5.55,0,0,1-2.51-4.36C460.21,122.09,461.33,121.44,462.72,122.24Z" style="fill:#e0e0e0"></path><path d="M442.4,92.22l18.93,10.93a2.09,2.09,0,0,1,1,1.65v0c0,.61-.43.86-1,.55L442.4,94.49a2.11,2.11,0,0,1-1-1.65v-.07C441.44,92.16,441.87,91.92,442.4,92.22Z" style="fill:#e0e0e0"></path><path d="M439.4,97.38l24.93,14.39a1.91,1.91,0,0,1,.95,1.41c0,.48-.43.61-.95.31l-24.95-14.4a1.87,1.87,0,0,1-.94-1.41C438.44,97.21,438.87,97.07,439.4,97.38Z" style="fill:#f0f0f0"></path><path d="M439.4,100.82l24.93,14.39a1.91,1.91,0,0,1,.95,1.41c0,.47-.43.61-.95.31l-24.95-14.4a1.87,1.87,0,0,1-.94-1.41C438.44,100.65,438.87,100.51,439.4,100.82Z" style="fill:#f0f0f0"></path><path d="M439.4,104.25l24.93,14.39a1.94,1.94,0,0,1,.95,1.42c0,.47-.43.61-.95.31L439.38,106a1.84,1.84,0,0,1-.94-1.4C438.44,104.09,438.87,104,439.4,104.25Z" style="fill:#f0f0f0"></path><path d="M458.25,124.43a3.29,3.29,0,0,1-.63-.55,1.76,1.76,0,0,1-.46-1.46c0-.16-.23-.69-.35-.61a9.06,9.06,0,0,1-1.08.44c-.22.11-.62.42-1.13-.28a1.43,1.43,0,0,1-.29-.89,1.22,1.22,0,0,0,.34-1.17c0-.18-.3-.69-.38-.57a2.07,2.07,0,0,0-.33,1,1.63,1.63,0,0,1-.8.27,2.65,2.65,0,0,1-.52.11.21.21,0,0,1-.2,0,.53.53,0,0,1-.19-.4.69.69,0,0,1,.09-.41h0s0,0,0,0h0c0-.17-.21-.67-.3-.56a1.57,1.57,0,0,1-1.46.75l-.1,0c0-.1,0-.23,0-.34a3.69,3.69,0,0,0-.12-.81c0-.16-.23-.55-.33-.52-.53.16-1,.58-1.66.38a2.29,2.29,0,0,1-.35-.16c-.11-.19.07-.59.09-.66a4.16,4.16,0,0,1,.25-.52,1.08,1.08,0,0,0,.2-.43c0-.16-.33-.89-.39-.69a4.72,4.72,0,0,1-.23.46,3.54,3.54,0,0,1-1.4.76,2.15,2.15,0,0,1-1.94-.38,2.39,2.39,0,0,1-.88-.89,2.16,2.16,0,0,1-.23-1,3.64,3.64,0,0,1,.23-1.46,7.2,7.2,0,0,0,2.16,1c.6.16,1.25.33,1.64.08.22-.14.35-.65-.19-1.5a3.21,3.21,0,0,0-1.16-1.06,3.11,3.11,0,0,0-1.19-.45,1.45,1.45,0,0,0-1.48,1c-.05.1-.11.24-.17.4a11.86,11.86,0,0,1-2.75-2.71c0-.07-.07,0,0,.09a13.17,13.17,0,0,0,2.69,2.85,3.7,3.7,0,0,0,.59,3.37c1,1.48,2.14,1.53,2.66,1.43a2.19,2.19,0,0,0,1.05-.47.13.13,0,0,1,.09,0,1.73,1.73,0,0,0,.57,1.41,1,1,0,0,0,1.18.23,5.27,5.27,0,0,0,.7-.25,2.26,2.26,0,0,0,.54,1.46c.4.38.76.07,1,0a1.47,1.47,0,0,0,.47-.23,1.52,1.52,0,0,0,.09.25c.35.77.76.85,1,.81a4.52,4.52,0,0,0,1-.2,3.73,3.73,0,0,0,.41.94c.54.86,1,1,1.35,1a2.17,2.17,0,0,0,1-.45,2.79,2.79,0,0,0,.36.93,3.62,3.62,0,0,0,1.26,1.37C458.58,125.09,458.42,124.55,458.25,124.43Zm-11.67-11.38c.25.16.77.54.79,1,0,.26-.2.3-.33.34a3.12,3.12,0,0,1-1.45-.13,7.54,7.54,0,0,1-1.82-.72C444.23,112.51,445.1,112.09,446.58,113.05Z" style="fill:#e0e0e0"></path></g><g id="freepik--diploma--inject-105"><g id="freepik--window--inject-105"><polygon points="471.23 188.84 469.74 189.7 432.49 168.2 433.98 167.34 471.23 188.84" style="fill:#f0f0f0"></polygon><polygon points="433.98 167.34 469.74 187.98 469.74 156.99 433.98 136.34 433.98 167.34" style="fill:#fafafa"></polygon><path d="M431,169.06l40.24,23.23V156.13L431,132.9Zm1.5-33.58L469.74,157V189.7l-37.25-21.5Z" style="fill:#ebebeb"></path><polygon points="432.49 168.2 433.98 167.34 433.98 136.34 432.49 135.48 432.49 168.2" style="fill:#e0e0e0"></polygon><polygon points="431 132.9 432.49 132.04 472.72 155.26 471.23 156.13 431 132.9" style="fill:#f5f5f5"></polygon><polygon points="472.72 155.26 471.23 156.13 471.23 192.29 472.72 191.43 472.72 155.26" style="fill:#e0e0e0"></polygon></g><path d="M462.72,174.16a5.56,5.56,0,0,1,2.52,4.36c0,1.6-1.13,2.25-2.52,1.45a5.55,5.55,0,0,1-2.51-4.36C460.21,174,461.33,173.36,462.72,174.16Z" style="fill:#e0e0e0"></path><path d="M442.4,144.14l18.93,10.92a2.13,2.13,0,0,1,1,1.66v.05c0,.61-.43.86-1,.55L442.4,146.41a2.12,2.12,0,0,1-1-1.65v-.07C441.44,144.08,441.87,143.84,442.4,144.14Z" style="fill:#e0e0e0"></path><path d="M439.4,149.3l24.93,14.39a1.91,1.91,0,0,1,.95,1.41c0,.47-.43.61-.95.31L439.38,151a1.87,1.87,0,0,1-.94-1.41C438.44,149.13,438.87,149,439.4,149.3Z" style="fill:#f0f0f0"></path><path d="M439.4,152.73l24.93,14.39a1.94,1.94,0,0,1,.95,1.42c0,.47-.43.61-.95.31l-24.95-14.41a1.84,1.84,0,0,1-.94-1.4C438.44,152.57,438.87,152.43,439.4,152.73Z" style="fill:#f0f0f0"></path><path d="M439.4,156.17l24.93,14.39a1.94,1.94,0,0,1,.95,1.41c0,.48-.43.62-.95.31l-24.95-14.4a1.84,1.84,0,0,1-.94-1.4C438.44,156,438.87,155.87,439.4,156.17Z" style="fill:#f0f0f0"></path><path d="M458.25,176.35a3.29,3.29,0,0,1-.63-.55,1.76,1.76,0,0,1-.46-1.46c0-.16-.23-.69-.35-.61a9.06,9.06,0,0,1-1.08.44c-.22.1-.62.42-1.13-.28a1.43,1.43,0,0,1-.29-.89,1.22,1.22,0,0,0,.34-1.17c0-.18-.3-.7-.38-.57a2.07,2.07,0,0,0-.33,1.05,1.86,1.86,0,0,1-.8.27,2.65,2.65,0,0,1-.52.11.21.21,0,0,1-.2-.05.53.53,0,0,1-.19-.4.69.69,0,0,1,.09-.41h0s0,0,0,0h0c0-.18-.21-.67-.3-.56a1.56,1.56,0,0,1-1.46.74l-.1,0c0-.1,0-.23,0-.34a3.69,3.69,0,0,0-.12-.81c0-.16-.23-.55-.33-.52-.53.16-1,.58-1.66.38a2.29,2.29,0,0,1-.35-.16c-.11-.2.07-.6.09-.66a3.58,3.58,0,0,1,.25-.52,1.08,1.08,0,0,0,.2-.43c0-.16-.33-.89-.39-.69s-.12.25-.23.46a3.4,3.4,0,0,1-1.4.75,2.14,2.14,0,0,1-1.94-.37,2.39,2.39,0,0,1-.88-.89,2.19,2.19,0,0,1-.23-1,3.64,3.64,0,0,1,.23-1.46,7.46,7.46,0,0,0,2.16,1c.6.16,1.25.33,1.64.08.22-.14.35-.65-.19-1.5a3.21,3.21,0,0,0-1.16-1.06,3,3,0,0,0-1.19-.45,1.44,1.44,0,0,0-1.48,1,3.42,3.42,0,0,0-.17.4,11.86,11.86,0,0,1-2.75-2.71c0-.07-.07,0,0,.09a13.17,13.17,0,0,0,2.69,2.85,3.7,3.7,0,0,0,.59,3.37c1,1.48,2.14,1.53,2.66,1.43a2.11,2.11,0,0,0,1.05-.48l.09,0a1.75,1.75,0,0,0,.57,1.42,1,1,0,0,0,1.18.23,4.19,4.19,0,0,0,.7-.26,2.28,2.28,0,0,0,.54,1.47c.4.38.76.07,1,0a1.71,1.71,0,0,0,.47-.23,1.52,1.52,0,0,0,.09.25c.35.77.76.85,1,.81a4.52,4.52,0,0,0,1-.2,3.89,3.89,0,0,0,.41.94c.54.86,1,1,1.35,1a2.28,2.28,0,0,0,1-.45,2.79,2.79,0,0,0,.36.93,3.62,3.62,0,0,0,1.26,1.37C458.58,177,458.42,176.47,458.25,176.35ZM446.58,165c.25.16.77.54.79,1,0,.26-.2.3-.33.34a3.12,3.12,0,0,1-1.45-.13,7.54,7.54,0,0,1-1.82-.72C444.23,164.43,445.1,164,446.58,165Z" style="fill:#e0e0e0"></path></g></g></g><g id="freepik--Shelf--inject-105"><g id="freepik--book-shelf--inject-105"><g id="freepik--shelf--inject-105"><path d="M319.15,85.51V82.19h0a1.12,1.12,0,0,1,.66-.88l19.95-11.52a3.39,3.39,0,0,1,3.07,0l57.36,33.11a1.13,1.13,0,0,1,.66.89h0v3.32h0a1.11,1.11,0,0,1-.66.88l-20,11.52a3.37,3.37,0,0,1-3.06,0L319.81,86.4a1.13,1.13,0,0,1-.66-.89Z" style="fill:#f0f0f0"></path><path d="M400.19,104.67l-20,11.52a3.37,3.37,0,0,1-3.06,0L319.81,83.08a.93.93,0,0,1,0-1.77l19.95-11.52a3.39,3.39,0,0,1,3.07,0l57.36,33.11A.94.94,0,0,1,400.19,104.67Z" style="fill:#fafafa"></path><path d="M378.7,116.56v3.32a3,3,0,0,0,1.53-.37l20-11.51a1.15,1.15,0,0,0,.66-.89h0v-3.32h0a1,1,0,0,0-.13-.38c.23.43.06.92-.53,1.26l-20,11.52A3,3,0,0,1,378.7,116.56Z" style="fill:#e0e0e0"></path></g><g id="freepik--Books--inject-105"><polygon points="347.16 43.55 330.32 53.34 330.32 85.58 347.16 75.8 347.16 43.55" style="fill:#e0e0e0"></polygon><path d="M330.86,53.87l16.3-9.41a6.83,6.83,0,0,0,3.73,2l-16.17,9.37A16,16,0,0,1,330.86,53.87Z" style="fill:#fff"></path><path d="M336.29,55.83a3.45,3.45,0,0,1-3.13,0l-2.75-1.59a1,1,0,0,1,0-1.81l16.07-9.27.68.39-15.8,9.18a.58.58,0,0,0,0,1.09l2.55,1.45a2.08,2.08,0,0,0,1.88,0l15.8-9.16.77.44Z" style="fill:#fafafa"></path><path d="M352.36,46.55V78.8l-16.07,9.27a3.45,3.45,0,0,1-3.13,0l-2.75-1.58a1.11,1.11,0,0,1-.65-.91V53.34a1.1,1.1,0,0,0,.65.9l2.75,1.59a3.45,3.45,0,0,0,3.13,0Z" style="fill:#e0e0e0"></path><path d="M334.73,56.21a3.2,3.2,0,0,1-1.57-.38l-2.75-1.59a1.1,1.1,0,0,1-.65-.9V85.58a1.11,1.11,0,0,0,.65.91l2.75,1.58a3.2,3.2,0,0,0,1.57.38Z" style="fill:#ebebeb"></path><polygon points="354.06 47.53 337.21 57.32 337.21 89.56 354.06 79.78 354.06 47.53" style="fill:#ebebeb"></polygon><path d="M337.75,57.85l16.3-9.41a6.83,6.83,0,0,0,3.73,2.05l-16.16,9.37A15.87,15.87,0,0,1,337.75,57.85Z" style="fill:#fff"></path><path d="M343.18,59.81a3.45,3.45,0,0,1-3.13,0l-2.75-1.59a1,1,0,0,1,0-1.81l16.07-9.27.68.39-15.8,9.18c-.52.3-.52.79,0,1.08l2.55,1.46a2.08,2.08,0,0,0,1.88,0l15.8-9.17.77.45Z" style="fill:#fafafa"></path><path d="M359.25,50.53V82.78l-16.07,9.27a3.45,3.45,0,0,1-3.13,0l-2.75-1.58a1.11,1.11,0,0,1-.65-.91V57.32a1.1,1.1,0,0,0,.65.9l2.75,1.59a3.45,3.45,0,0,0,3.13,0Z" style="fill:#ebebeb"></path><path d="M341.62,60.18a3.2,3.2,0,0,1-1.57-.37l-2.75-1.59a1.1,1.1,0,0,1-.65-.9V89.56a1.11,1.11,0,0,0,.65.91l2.75,1.58a3.2,3.2,0,0,0,1.57.38Z" style="fill:#f0f0f0"></path><polygon points="359.65 68.35 359.65 69.99 357.16 71.26 357.16 69.5 359.65 68.35" style="fill:#e0e0e0"></polygon><polygon points="357.51 70.08 360.78 68.46 364.43 70.57 360.2 72.91 357.51 70.08" style="fill:#fff"></polygon><path d="M362.49,73.47V87.14a1.72,1.72,0,0,1-.78,1.35l-13,7.53a1.32,1.32,0,0,1-.63.18L360.2,73.71a1.64,1.64,0,0,0,.64-.18l.87-.51C362.14,72.77,362.49,73,362.49,73.47Z" style="fill:#e0e0e0"></path><path d="M359.28,73.53l-2-2.2-1.77-1c-.16-.26-.35-.45-.25-.66L343.18,91.91v0c-.1.22-.13.7.16.87L347.1,96a1.61,1.61,0,0,0,.93.18L360.2,73.71A1.75,1.75,0,0,1,359.28,73.53Z" style="fill:#f0f0f0"></path><path d="M355.51,69.4c-.43.25-.32.53,0,.9l3.77,3.23a1.7,1.7,0,0,0,1.55,0l3.32-1.91c.43-.25.5-.61.17-.81a1.57,1.57,0,0,0-1.39.1l-2.61,1.51a.59.59,0,0,1-.52,0L357.42,70a.16.16,0,0,1,0-.3l2.65-1.36c.43-.25.51-.6.17-.8a1.55,1.55,0,0,0-1.38.1Z" style="fill:#fafafa"></path><polygon points="379.09 55.41 360.17 66.41 360.17 102.63 379.09 91.64 379.09 55.41" style="fill:#e0e0e0"></polygon><path d="M360.77,67l18.32-10.57a7.74,7.74,0,0,0,4.19,2.3L365.12,69.27A18.65,18.65,0,0,1,360.77,67Z" style="fill:#fff"></path><path d="M366.88,69.21a3.9,3.9,0,0,1-3.52,0l-3.09-1.78a1.08,1.08,0,0,1,0-2L378.33,55l.76.44L361.34,65.73c-.59.33-.59.88,0,1.22l2.86,1.63a2.33,2.33,0,0,0,2.12,0l17.75-10.3.86.5Z" style="fill:#fafafa"></path><path d="M384.93,58.78V95l-18.05,10.42a3.9,3.9,0,0,1-3.52,0l-3.09-1.78a1.24,1.24,0,0,1-.72-1V66.41a1.23,1.23,0,0,0,.72,1l3.09,1.79a3.9,3.9,0,0,0,3.52,0Z" style="fill:#e0e0e0"></path><path d="M365.12,69.63a3.58,3.58,0,0,1-1.76-.42l-3.09-1.79a1.23,1.23,0,0,1-.72-1v36.22a1.24,1.24,0,0,0,.72,1l3.09,1.78a3.58,3.58,0,0,0,1.76.42Z" style="fill:#f0f0f0"></path><polygon points="386.83 59.88 367.91 70.88 367.91 107.1 386.83 96.11 386.83 59.88" style="fill:#ebebeb"></polygon><path d="M368.51,71.48l18.32-10.57a7.74,7.74,0,0,0,4.19,2.3L372.86,73.74A18.65,18.65,0,0,1,368.51,71.48Z" style="fill:#fff"></path><path d="M374.62,73.68a3.9,3.9,0,0,1-3.52,0L368,71.9a1.08,1.08,0,0,1,0-2l18.06-10.42.76.44L369.08,70.2c-.59.33-.59.88,0,1.22l2.86,1.63a2.33,2.33,0,0,0,2.12,0l17.75-10.3.86.5Z" style="fill:#fafafa"></path><path d="M392.67,63.25V99.48L374.62,109.9a3.9,3.9,0,0,1-3.52,0L368,108.12a1.24,1.24,0,0,1-.72-1V70.88a1.23,1.23,0,0,0,.72,1l3.09,1.79a3.9,3.9,0,0,0,3.52,0Z" style="fill:#ebebeb"></path><path d="M372.86,74.1a3.58,3.58,0,0,1-1.76-.42L368,71.89a1.23,1.23,0,0,1-.72-1V107.1a1.24,1.24,0,0,0,.72,1l3.09,1.78a3.58,3.58,0,0,0,1.76.42Z" style="fill:#f5f5f5"></path></g></g></g><g id="freepik--Clock--inject-105"><g id="freepik--clock--inject-105"><path d="M201.32,42.19h0l0,0h0l-4.53-2.63h0l0,0h0c-2.86-1.45-6.68-1-10.79,1.63-8.26,5.31-14.57,17.58-14.1,27.39.24,4.89,2.12,8.25,5,9.73h0l4.53,2.63h0c2.86,1.46,6.68,1,10.79-1.62,8.26-5.32,14.57-17.58,14.1-27.4C206.05,47,204.17,43.67,201.32,42.19Z" style="fill:#ebebeb"></path><path d="M181.16,80.81l-4.33-2.52h0l0,0c-2.85-1.48-4.73-4.84-5-9.72a30.58,30.58,0,0,1,3-13.76l4.54,2.63a30.58,30.58,0,0,0-3,13.76C176.61,76,178.41,79.28,181.16,80.81Z" style="fill:#e0e0e0"></path><path d="M192.19,79.31c8.26-5.32,14.57-17.58,14.1-27.4s-7.56-13.45-15.82-8.13-14.57,17.58-14.09,27.4S183.93,84.63,192.19,79.31Z" style="fill:#f0f0f0"></path><path d="M185.27,78.63c-4.87.23-5.66-5.24-5.77-7.61-.43-8.65,5.37-19.93,12.66-24.62a11.09,11.09,0,0,1,5.23-1.94c4.87-.23,5.66,5.24,5.78,7.61.42,8.65-5.38,19.92-12.67,24.62a11.09,11.09,0,0,1-5.23,1.94Z" style="fill:#fafafa"></path><path d="M192.29,63.17a.57.57,0,0,1-.18,0,.53.53,0,0,1-.35-.5V50.12a.53.53,0,0,1,.53-.54.54.54,0,0,1,.53.54v11l5.84-7.5a.53.53,0,1,1,.83.65L192.71,63A.53.53,0,0,1,192.29,63.17Z" style="fill:#e0e0e0"></path><path d="M189.3,72.41a.22.22,0,0,1-.08,0,.23.23,0,0,1-.15-.28l2.94-9.9a.23.23,0,0,1,.28-.16.24.24,0,0,1,.15.28l-2.94,9.91A.21.21,0,0,1,189.3,72.41Z" style="fill:#ebebeb"></path><path d="M192.12,60.13c1-.62,1.8-.19,1.86,1a4,4,0,0,1-1.66,3.22c-1,.63-1.8.2-1.86-1A4,4,0,0,1,192.12,60.13Z" style="fill:#ebebeb"></path></g></g><g id="freepik--side-table--inject-105"><g id="freepik--side-table--inject-105"><g id="freepik--side-table--inject-105"><polygon points="262.7 293.9 269.29 290.1 262.7 288.19 262.7 293.9" style="fill:#92E3A9"></polygon><polygon points="262.7 293.9 269.29 290.1 262.7 288.19 262.7 293.9" style="fill:#fff;opacity:0.6000000000000001"></polygon><polygon points="262.7 293.9 269.29 290.1 262.7 288.19 262.7 293.9" style="opacity:0.05"></polygon><polygon points="262.7 293.9 259.4 292 259.4 286.29 262.7 288.19 262.7 293.9" style="fill:#92E3A9"></polygon><polygon points="262.7 293.9 259.4 292 259.4 286.29 262.7 288.19 262.7 293.9" style="fill:#fff;opacity:0.75"></polygon><polygon points="295.7 307.25 295.7 313.32 343.38 285.8 343.38 279.74 295.7 307.25" style="fill:#92E3A9"></polygon><polygon points="295.7 307.25 295.7 313.32 343.38 285.8 343.38 279.74 295.7 307.25" style="fill:#fff;opacity:0.6000000000000001"></polygon><polygon points="295.7 307.25 295.7 313.32 343.38 285.8 343.38 279.74 295.7 307.25" style="opacity:0.05"></polygon><polygon points="295.7 313.32 292.41 311.42 292.41 305.35 295.7 307.25 295.7 313.32" style="fill:#92E3A9"></polygon><polygon points="295.7 313.32 292.41 311.42 292.41 305.35 295.7 307.25 295.7 313.32" style="fill:#fff;opacity:0.75"></polygon><polygon points="346.68 232.18 299 259.69 299 309.15 346.68 281.64 346.68 232.18" style="fill:#92E3A9"></polygon><polygon points="346.68 232.18 299 259.69 299 309.15 346.68 281.64 346.68 232.18" style="fill:#fff;opacity:0.6000000000000001"></polygon><polygon points="299 259.69 256.11 234.93 256.11 284.39 299 309.15 299 259.69" style="fill:#92E3A9"></polygon><polygon points="299 259.69 256.11 234.93 256.11 284.39 299 309.15 299 259.69" style="fill:#fff;opacity:0.75"></polygon><polygon points="256.11 234.93 303.79 207.41 346.68 232.18 299 259.69 256.11 234.93" style="fill:#92E3A9"></polygon><polygon points="256.11 234.93 303.79 207.41 346.68 232.18 299 259.69 256.11 234.93" style="fill:#fff;opacity:0.85"></polygon><polygon points="295.7 276.81 259.4 255.85 259.4 282.49 295.7 303.45 295.7 276.81" style="fill:#92E3A9"></polygon><polygon points="295.7 276.81 259.4 255.85 259.4 282.49 295.7 303.45 295.7 276.81" style="fill:#fff;opacity:0.7000000000000001"></polygon><polygon points="259.4 282.49 282.31 269.08 295.7 276.81 295.7 303.45 259.4 282.49" style="opacity:0.05"></polygon><polygon points="259.4 282.49 282.31 269.08 259.4 255.85 259.4 282.49" style="opacity:0.05"></polygon><polygon points="295.7 261.6 259.4 240.64 259.4 252.05 295.7 273.01 295.7 261.6" style="fill:#92E3A9"></polygon><polygon points="295.7 261.6 259.4 240.64 259.4 252.05 295.7 273.01 295.7 261.6" style="fill:#fff;opacity:0.85"></polygon><path d="M284.45,257.5c0,.53-1.57.05-3.51-1.07l-6.15-3.56c-1.94-1.12-3.52-2.45-3.52-3v-1l13.18,7.61Z" style="fill:#455a64"></path></g><g id="freepik--Pot--inject-105"><path d="M277,232.12c-3.63,2.09-3.63,5.49,0,7.58a14.45,14.45,0,0,0,13.12,0c3.63-2.09,3.63-5.49,0-7.58A14.51,14.51,0,0,0,277,232.12Z" style="opacity:0.15"></path><path d="M289.5,236.46c3.2-3.27,5.08-11.42,2-14H275.57c-3.13,2.6-1.25,10.75,1.95,14l.09.09.11.11.29.25.08.06a2.51,2.51,0,0,0,.24.19l.41.26a10.55,10.55,0,0,0,9.54,0h0a4.94,4.94,0,0,0,.42-.27,1.84,1.84,0,0,0,.22-.17l.1-.07a3.2,3.2,0,0,0,.27-.25l.13-.12Z" style="fill:#ebebeb"></path><path d="M277,221.4c-3.63,2.09-3.63,5.49,0,7.58a14.51,14.51,0,0,0,13.12,0c3.63-2.09,3.63-5.49,0-7.58A14.51,14.51,0,0,0,277,221.4Z" style="fill:#fafafa"></path><path d="M279.52,222.89c-2.21,1.27-2.21,3.33,0,4.61a8.83,8.83,0,0,0,8,0c2.21-1.28,2.21-3.34,0-4.61A8.77,8.77,0,0,0,279.52,222.89Z" style="fill:#ebebeb"></path><path d="M287.5,225.07a8.83,8.83,0,0,0-8,0,3.7,3.7,0,0,0-1.33,1.22,3.77,3.77,0,0,0,1.33,1.21,8.83,8.83,0,0,0,8,0,3.77,3.77,0,0,0,1.33-1.21A3.7,3.7,0,0,0,287.5,225.07Z" style="fill:#e0e0e0"></path><path d="M280,226.29a18.54,18.54,0,0,1-2.89-3.85c-1.33-2.35-1.58-5.52-.89-5.91s3.5,2.77,3.5,2.77a17.49,17.49,0,0,1-.3-4c.12-2.1.63-4,1.24-4.4s1.94,2.27,2.52,4.19.92,3.5.92,3.5a30,30,0,0,1,1-4.42c.7-2,1.33-2.44,1.83-2.25s.81,1.13,1,3.79a26.34,26.34,0,0,1-.12,3.8s1-1.09,2.09-2.15,1.72-1.32,2.07-1.09.44,2-1.43,5.4a19.06,19.06,0,0,1-3.53,4.65S284.42,228,280,226.29Z" style="fill:#92E3A9"></path><path d="M280,226.29a18.54,18.54,0,0,1-2.89-3.85c-1.33-2.35-1.58-5.52-.89-5.91s3.5,2.77,3.5,2.77a17.49,17.49,0,0,1-.3-4c.12-2.1.63-4,1.24-4.4s1.94,2.27,2.52,4.19.92,3.5.92,3.5a30,30,0,0,1,1-4.42c.7-2,1.33-2.44,1.83-2.25s.81,1.13,1,3.79a26.34,26.34,0,0,1-.12,3.8s1-1.09,2.09-2.15,1.72-1.32,2.07-1.09.44,2-1.43,5.4a19.06,19.06,0,0,1-3.53,4.65S284.42,228,280,226.29Z" style="opacity:0.2"></path></g><g id="freepik--Lamp--inject-105"><path d="M305.33,221c-3.8,2.2-3.8,5.76,0,8a15.25,15.25,0,0,0,13.77,0c3.81-2.2,3.81-5.76,0-8A15.25,15.25,0,0,0,305.33,221Z" style="fill:#37474f"></path><path d="M322,225h0c0-1.44-.94-2.88-2.85-4a15.25,15.25,0,0,0-13.77,0c-1.9,1.1-2.84,2.54-2.84,4h0v1.34h0c0,1.42,1,2.84,2.85,3.92a15.19,15.19,0,0,0,13.77,0c1.88-1.08,2.83-2.49,2.86-3.92h0Z" style="fill:#263238"></path><path d="M305.33,221c-3.8,2.2-3.8,5.76,0,8a15.25,15.25,0,0,0,13.77,0c3.81-2.2,3.81-5.76,0-8A15.25,15.25,0,0,0,305.33,221Z" style="fill:#37474f"></path><path d="M313.27,194.15h-2.1v30.19h0a.48.48,0,0,0,.3.48,1.61,1.61,0,0,0,1.48,0,.5.5,0,0,0,.3-.48h0Z" style="fill:#455a64"></path><path d="M296.4,192.37c0-7.57,11.32-18.9,11.32-18.9h9S328,184.8,328,192.37h0c0,2.33-1.54,4.67-4.63,6.45-6.18,3.57-16.19,3.57-22.37,0-3.09-1.78-4.63-4.12-4.63-6.45Z" style="fill:#92E3A9"></path><path d="M296.4,192.37c0-7.57,11.32-18.9,11.32-18.9h9S328,184.8,328,192.37h0c0,2.33-1.54,4.67-4.63,6.45-6.18,3.57-16.19,3.57-22.37,0-3.09-1.78-4.63-4.12-4.63-6.45Z" style="fill:#fff;opacity:0.30000000000000004"></path><path d="M316.09,173a8.54,8.54,0,0,0-7.75,0c-2.14,1.23-2.14,3.24,0,4.47a8.54,8.54,0,0,0,7.75,0C318.23,176.28,318.23,174.27,316.09,173Z" style="fill:#92E3A9"></path><path d="M316.09,173a8.54,8.54,0,0,0-7.75,0c-2.14,1.23-2.14,3.24,0,4.47a8.54,8.54,0,0,0,7.75,0C318.23,176.28,318.23,174.27,316.09,173Z" style="fill:#fff;opacity:0.2"></path><path d="M316.09,173a8.54,8.54,0,0,0-7.75,0c-2.14,1.23-2.14,3.24,0,4.47a8.54,8.54,0,0,0,7.75,0C318.23,176.28,318.23,174.27,316.09,173Z" style="fill:#fff;opacity:0.6000000000000001"></path><path d="M315,173.67a6.16,6.16,0,0,0-5.55,0c-1.54.89-1.54,2.32,0,3.21a6.16,6.16,0,0,0,5.55,0C316.53,176,316.53,174.56,315,173.67Z" style="fill:#92E3A9"></path></g></g></g><g id="freepik--character-3--inject-105"><g id="freepik--character-on-the-couch--inject-105"><g id="freepik--Couch--inject-105"><path d="M379.14,351.55h9.11l-1.46,8.88h0a1.62,1.62,0,0,1-.88,1.09,4.83,4.83,0,0,1-4.41,0,1.62,1.62,0,0,1-.88-1.09h0Z" style="fill:#fafafa"></path><path d="M429.57,324.45h9.1l-1.45,8.88h0a1.62,1.62,0,0,1-.88,1.1,4.87,4.87,0,0,1-4.4,0,1.62,1.62,0,0,1-.88-1.1h0Z" style="fill:#fafafa"></path><path d="M311,312.19h9.1l-1.45,8.88h0a1.65,1.65,0,0,1-.88,1.1,4.87,4.87,0,0,1-4.4,0,1.67,1.67,0,0,1-.89-1.1h0Z" style="fill:#fafafa"></path><path d="M358.45,286.53h9.1l-1.45,8.88h0a1.62,1.62,0,0,1-.88,1.09,4.81,4.81,0,0,1-4.4,0,1.63,1.63,0,0,1-.89-1.09h0Z" style="fill:#fafafa"></path><path d="M304.87,266.8v42.4a9.79,9.79,0,0,0,4.42,7.65l3.6,2.08.06,0a10,10,0,0,0,5.51,1l54,28.59a9.85,9.85,0,0,0,4.36,7.34l0,0,3.59,2.07a1.8,1.8,0,0,0,.34.17.81.81,0,0,0,.18.1l.05,0a10.06,10.06,0,0,0,6.85.31,6.39,6.39,0,0,0,.77-.28l.12-.05a5,5,0,0,0,.52-.27l52-29.94a9.78,9.78,0,0,0,4.42-7.65l.07-53.68V248a9.8,9.8,0,0,0-4.42-7.65l-58.15-33.51a9.14,9.14,0,0,0-8.52.14l-3.6,2.07A11.73,11.73,0,0,0,366,216.7l-3.46,20.93-3.2-1.85a9.59,9.59,0,0,0-9.61,0l-40.48,23.37A9.8,9.8,0,0,0,304.87,266.8Z" style="fill:#37474f"></path><path d="M371.13,209.1l3.6-2.08a9.11,9.11,0,0,1,8.52-.14l58.15,33.51a4.92,4.92,0,0,1,.45.29,10.11,10.11,0,0,1,3.92,6.61c-.33-2.25-2.16-3.07-4.37-1.8l-3.6,2.08a9.81,9.81,0,0,1-8.83,0l-57.84-33.38C368.69,212.79,368.69,210.51,371.13,209.1Z" style="fill:#455a64"></path><path d="M304.87,266.8v42.4a9.79,9.79,0,0,0,4.42,7.65l3.6,2.08.06,0a9.46,9.46,0,0,0,5.17,1,8.63,8.63,0,0,0,3.59-1l40.87-23.6a9.82,9.82,0,0,0,4.41-7.65v-42.4a9.78,9.78,0,0,0-4.41-7.65l-3.2-1.85a9.59,9.59,0,0,0-9.61,0l-40.48,23.37A9.8,9.8,0,0,0,304.87,266.8Z" style="fill:#263238"></path><path d="M359.37,235.78l3.21,1.85c2.43,1.4,2.43,3.7,0,5.1l-40.87,23.59A9.8,9.8,0,0,0,317.3,274v42.41c0,2.8-2,3.95-4.42,2.55l-3.59-2.08a9.79,9.79,0,0,1-4.42-7.65V266.8a9.79,9.79,0,0,1,4.42-7.65l40.48-23.37A9.58,9.58,0,0,1,359.37,235.78Z" style="fill:#455a64"></path><path d="M317.3,274v42.41c0,2.8-2,3.95-4.42,2.55l-3.59-2.08a9.79,9.79,0,0,1-4.42-7.65V266.8a9,9,0,0,1,1.3-4.35l12.43,7.17A9.06,9.06,0,0,0,317.3,274Z" style="fill:#37474f"></path><path d="M319.14,319.94a10.26,10.26,0,0,0,1.61,2.43,19,19,0,0,0,4.15,2.9c15.53,9,26.73,15.41,42.26,24.38a4.89,4.89,0,0,0,4.41,0l14.36-8.3,28.72-16.57a8.3,8.3,0,0,0,0-14.66l-16.29-9.41-12.43-7.17-13.5-7.78a9.81,9.81,0,0,0-8.83,0l-40.87,23.61a9.47,9.47,0,0,0-4.41,7.33A7.8,7.8,0,0,0,319.14,319.94Z" style="fill:#263238"></path><path d="M367.15,340.08l-46.62-26.9c-1.22-.7-2.21-.13-2.21,1.28v4.46a4.9,4.9,0,0,0,2.21,3.83l46.63,26.9c1.22.7,2.2.13,2.2-1.28v-4.46A4.9,4.9,0,0,0,367.15,340.08Z" style="fill:#37474f"></path><path d="M372.43,263.9l42.22,24.35a9.73,9.73,0,0,1,4.41,7.64v8.93a9.78,9.78,0,0,1-4.41,7.65l-40.87,23.6a9.81,9.81,0,0,1-8.83,0l-42.22-24.35a9.78,9.78,0,0,1-4.41-7.65v-8.93a9.78,9.78,0,0,1,4.41-7.65L363.6,263.9A9.74,9.74,0,0,1,372.43,263.9Z" style="fill:#37474f"></path><path d="M369.36,318v19.13a8.91,8.91,0,0,0,4.41-1.06l40.88-23.59a9.76,9.76,0,0,0,4.41-7.64v-8.94a9.88,9.88,0,0,0-4-7.36c2,1.42,1.82,3.5-.45,4.82l-40.88,23.59A9,9,0,0,1,369.36,318Z" style="fill:#263238"></path><path d="M365,316.94l-42.22-24.35c-2.43-1.41-2.43-3.69,0-5.1L363.6,263.9a9.74,9.74,0,0,1,8.83,0l42.22,24.35c2.44,1.4,2.44,3.69,0,5.09l-40.87,23.6A9.74,9.74,0,0,1,365,316.94Z" style="fill:#455a64"></path></g><g id="freepik--Character--inject-105"><g id="freepik--Legs--inject-105"><path d="M332.46,339.76c.56-7.5-4.55-26.88-4.55-26.88l13.86-8.16s.64,4.74,1.42,11.1,2.2,9,2.2,9,2.57,3.28,2.49,5.44-2,7.06-3.1,10.85-1.86,6.71-4.15,10.36S328.48,357.74,329,354C329.81,348.86,331.84,345.87,332.46,339.76Z" style="fill:#9e6767"></path><polygon points="349.46 339.46 344.81 339.6 345.01 336.33 348.44 337.62 349.46 339.46"></polygon><path d="M350.65,330.49s1.24,2.55,1.61,3.37-2.1,4.82-2.8,5.6l-1-1.84a16.66,16.66,0,0,0-.74,4c-.19,1.45-.15,4-1.39,6.32-1.84,3.39-5.69,6.3-10,8.26s-7.3,1.91-8.94,1.47a3.12,3.12,0,0,1-2.64-2.64C324.56,353.74,350.65,330.49,350.65,330.49Z" style="fill:#263238"></path><path d="M335.22,326.35l-.68-1.5c-.82.31,0,2.55-.41,5a42.51,42.51,0,0,1-2.95,10.46c-2.8,5.89-5.74,10.08-7,12.72-1.66,3.54,4.62,5.52,11.63,2.18,3.49-1.66,9.09-6.05,10-8.88s.67-6.57,1.47-8.68,3.23-4.91,3.35-7.13c.07-1.22-1.16-3.5-2.28-5.41-1-1.74-2.25-4.57-3.2-3.91l.31,1c-.09,1-.53,2.73-3.21,4.39C340.93,327.38,336.71,329.26,335.22,326.35Z" style="fill:#92E3A9"></path><path d="M335.22,326.35l-.68-1.5c-.82.31,0,2.55-.41,5a42.51,42.51,0,0,1-2.95,10.46c-2.8,5.89-5.74,10.08-7,12.72-1.66,3.54,4.62,5.52,11.63,2.18,3.49-1.66,9.09-6.05,10-8.88s.67-6.57,1.47-8.68,3.23-4.91,3.35-7.13c.07-1.22-1.16-3.5-2.28-5.41-1-1.74-2.25-4.57-3.2-3.91l.31,1c-.09,1-.53,2.73-3.21,4.39C340.93,327.38,336.71,329.26,335.22,326.35Z" style="opacity:0.4"></path><path d="M340,327.57c-1.42.45-3.08.6-4.16-.4,0,0,0,0,0,0a3.74,3.74,0,0,1,.27,3.3c-.67,2-4.45,15.95-4.45,15.95s4-11.83,4.75-14.07c1.15-3.31,1.71-3.88,3.64-4.75Z" style="opacity:0.15"></path><path d="M339.35,331.12a.47.47,0,1,0,.19-.65A.48.48,0,0,0,339.35,331.12Z" style="opacity:0.15"></path><path d="M338.19,334.33a.47.47,0,0,0,.64.19.48.48,0,0,0,.19-.65.47.47,0,0,0-.64-.19A.48.48,0,0,0,338.19,334.33Z" style="opacity:0.15"></path><path d="M337,337.54a.47.47,0,0,0,.64.19.48.48,0,0,0,.19-.65.47.47,0,0,0-.64-.19A.48.48,0,0,0,337,337.54Z" style="opacity:0.15"></path><path d="M335.87,340.75a.47.47,0,0,0,.64.19.47.47,0,1,0-.64-.19Z" style="opacity:0.15"></path><path d="M334.71,344a.47.47,0,1,0,.19-.64A.47.47,0,0,0,334.71,344Z" style="opacity:0.15"></path><path d="M339.85,331.06a.15.15,0,0,0,.09-.1.19.19,0,0,0-.1-.25,7.83,7.83,0,0,0-5.77.07h0a.19.19,0,0,0-.09.26.18.18,0,0,0,.25.08,7.52,7.52,0,0,1,5.46-.05A.21.21,0,0,0,339.85,331.06Z" style="fill:#263238"></path><path d="M338.69,334.26a.18.18,0,0,0,.09-.1.18.18,0,0,0-.11-.24,7.8,7.8,0,0,0-5.77.06h0a.19.19,0,0,0-.09.25.21.21,0,0,0,.26.09,7.56,7.56,0,0,1,5.46-.06A.18.18,0,0,0,338.69,334.26Z" style="fill:#263238"></path><path d="M337.53,337.48a.18.18,0,0,0,.09-.1.2.2,0,0,0-.1-.25,7.83,7.83,0,0,0-5.77.07h0a.19.19,0,0,0,.17.35,7.55,7.55,0,0,1,5.46-.06A.18.18,0,0,0,337.53,337.48Z" style="fill:#263238"></path><path d="M336.37,340.69a.19.19,0,0,0,0-.34,7.75,7.75,0,0,0-5.77.06h0a.19.19,0,0,0,.17.35,7.55,7.55,0,0,1,5.46-.06A.18.18,0,0,0,336.37,340.69Z" style="fill:#263238"></path><path d="M335.21,343.9a.19.19,0,0,0,0-.34,7.81,7.81,0,0,0-5.77.06h0a.18.18,0,0,0-.08.25.2.2,0,0,0,.25.09,7.56,7.56,0,0,1,5.46-.06A.18.18,0,0,0,335.21,343.9Z" style="fill:#263238"></path><path d="M323.16,335.93s-4,12.72-6.79,17.06-7.07,7.76-11.46,11.35c-1,.78-3.07,2.18-3.85,2.81a1.46,1.46,0,0,0-.24,2.25c1.36,1.83,8.19,3.41,12.56,1.18s9.12-7.07,11.83-9c1.36-1,2.64-1.89,3.58-2.58s.85-1.07.75-2.18l.46-1.77c.72-3.66,6.21-11.66,6.21-11.66Z" style="fill:#9e6767"></path><polygon points="325.07 369.81 320.69 367.72 322.43 364.78 325 367.61 325.07 369.81"></polygon><path d="M330.45,362s-.07,3-.11,3.9-4.24,3.48-5.27,3.87l-.07-2.2a17,17,0,0,0-2.57,3.33c-.87,1.25-2.06,3.68-4.3,5.2-3.33,2.27-8.28,3.15-13.24,2.9s-7.69-1.7-9-2.89a3.27,3.27,0,0,1-1.2-3.71C295.15,371.22,330.45,362,330.45,362Z" style="fill:#263238"></path><path d="M318.08,350.85l.09-1.71c-.91-.11-1.23,2.36-2.74,4.42a44.39,44.39,0,0,1-7.72,8.3c-5.41,4.14-10.13,6.63-12.54,8.5-3.23,2.49,1.66,7.32,9.77,7.55,4,.12,11.31-1.29,13.51-3.48s3.74-5.78,5.49-7.37,5.34-3,6.51-5c.65-1.1.59-3.8.45-6.1-.12-2.12.09-5.32-1.11-5.16l-.17,1.07c-.56.87-1.8,2.28-5.08,2.55C322.9,354.53,318.08,354.27,318.08,350.85Z" style="fill:#92E3A9"></path><path d="M318.08,350.85l.09-1.71c-.91-.11-1.23,2.36-2.74,4.42a44.39,44.39,0,0,1-7.72,8.3c-5.41,4.14-10.13,6.63-12.54,8.5-3.23,2.49,1.66,7.32,9.77,7.55,4,.12,11.31-1.29,13.51-3.48s3.74-5.78,5.49-7.37,5.34-3,6.51-5c.65-1.1.59-3.8.45-6.1-.12-2.12.09-5.32-1.11-5.16l-.17,1.07c-.56.87-1.8,2.28-5.08,2.55C322.9,354.53,318.08,354.27,318.08,350.85Z" style="opacity:0.30000000000000004"></path><path d="M321.94,354.26c-1.53-.26-3.15-.92-3.67-2.36l0,0a3.91,3.91,0,0,1-1.32,3.2c-1.59,1.57-11.72,12.69-11.72,12.69s9.32-9.09,11.11-10.8c2.64-2.53,3.43-2.79,5.64-2.67Z" style="opacity:0.15"></path><path d="M319.66,357.24a.49.49,0,0,0,.5.49.51.51,0,0,0,.49-.51.5.5,0,0,0-.51-.48A.48.48,0,0,0,319.66,357.24Z" style="opacity:0.15"></path><path d="M317.05,359.67a.5.5,0,1,0,1,0,.49.49,0,0,0-.51-.48A.48.48,0,0,0,317.05,359.67Z" style="opacity:0.15"></path><path d="M314.44,362.1a.51.51,0,0,0,.51.49.5.5,0,0,0,.48-.51.48.48,0,0,0-.5-.48A.49.49,0,0,0,314.44,362.1Z" style="opacity:0.15"></path><path d="M311.84,364.53a.48.48,0,0,0,.5.48.49.49,0,0,0,.49-.5.51.51,0,0,0-.51-.49A.5.5,0,0,0,311.84,364.53Z" style="opacity:0.15"></path><path d="M309.23,367a.49.49,0,0,0,.51.48.48.48,0,0,0,.48-.5.5.5,0,1,0-1,0Z" style="opacity:0.15"></path><path d="M320.15,357.43a.17.17,0,0,0,.13-.05.2.2,0,0,0,0-.28,8.15,8.15,0,0,0-5.39-2.68h0a.19.19,0,0,0-.2.19.2.2,0,0,0,.19.21,7.89,7.89,0,0,1,5.1,2.54A.18.18,0,0,0,320.15,357.43Z" style="fill:#263238"></path><path d="M317.54,359.85a.15.15,0,0,0,.13-.05.19.19,0,0,0,0-.28,8.19,8.19,0,0,0-5.4-2.68h0a.19.19,0,0,0-.2.19.21.21,0,0,0,.19.21,7.89,7.89,0,0,1,5.1,2.54A.19.19,0,0,0,317.54,359.85Z" style="fill:#263238"></path><path d="M314.94,362.29a.24.24,0,0,0,.13-.05.2.2,0,0,0,0-.28,8.11,8.11,0,0,0-5.39-2.68h0a.21.21,0,0,0-.2.19.2.2,0,0,0,.2.2,8,8,0,0,1,5.1,2.55A.18.18,0,0,0,314.94,362.29Z" style="fill:#263238"></path><path d="M312.33,364.72a.21.21,0,0,0,.13-.05.19.19,0,0,0,0-.28,8.14,8.14,0,0,0-5.39-2.69h0a.2.2,0,0,0-.2.2.19.19,0,0,0,.19.2,7.91,7.91,0,0,1,5.1,2.55A.19.19,0,0,0,312.33,364.72Z" style="fill:#263238"></path><path d="M309.72,367.15a.24.24,0,0,0,.14,0,.2.2,0,0,0,0-.28,8.14,8.14,0,0,0-5.39-2.69h0a.2.2,0,1,0,0,.4,7.82,7.82,0,0,1,5.09,2.55A.23.23,0,0,0,309.72,367.15Z" style="fill:#263238"></path><path d="M327.32,323.36c-.63-5.2-1.56-13.16-2.12-18.47-.88-8.46-1.31-17.26.38-21,1.61-3.5,9.29-7.74,17.37-12.08s22.38-11.06,22.38-11.06l40.92,8.58c-1.31,7.12-1.87,10.61-5.8,16.83-3.8,6-8.87,9.69-18.67,14.16-8.78,4-19.16,8.26-21.46,9.27-2.92,1.29-5.63,2.26-7.17,6.61-1.47,4.15-3.54,11.43-9.31,20l-12.49,18.44s-9.81.56-14.66-7.39C316.69,347.25,321.8,335.66,327.32,323.36Z" style="fill:#37474f"></path><path d="M327.32,323.36q-.7-4.92-1.32-9.84c-.41-3.29-.81-6.57-1.17-9.87s-.56-6.6-.58-9.92a48.46,48.46,0,0,1,.19-5,15.92,15.92,0,0,1,1.14-4.83,16,16,0,0,0-.9,4.85c-.1,1.64-.1,3.29-.05,4.94.1,3.3.35,6.6.7,9.89l1.05,9.86Q326.89,318.4,327.32,323.36Z" style="fill:#263238"></path><path d="M398.93,273l-26.12-1.08-2.56,4.63c2.19,5.51,4.8,5.56,10.33,5.88a108.12,108.12,0,0,1,13.12,1.93s-29.87,16.22-35.6,19.08-9.75,8.42-13.29,19.92C342,332.59,331.92,347,326.19,354a19,19,0,0,0,5.16.62l12.49-18.44c5.77-8.53,7.84-15.81,9.31-20,1.54-4.35,4.25-5.32,7.17-6.61,2.3-1,12.68-5.27,21.46-9.27,9.8-4.47,14.87-8.15,18.67-14.16a32.2,32.2,0,0,0,4.71-11.2Z" style="opacity:0.05"></path><path d="M328.62,320.45c5.18-11.53,10.4-22.93,11.82-25.35,3-5.14,27.18-18.58,27.94-19h0l-1-1.63a15.7,15.7,0,0,1-1.91-6.24,16.74,16.74,0,0,0,.62,7c-3.71,2.16-13.17,7.64-17,10-4.77,3-9.87,6.57-12.21,12C335.22,301.23,330.79,314.07,328.62,320.45Z" style="opacity:0.15"></path><path d="M334.17,350.87l-2.42,4S320,356,316.37,347.28l1.82-4C319.87,348.19,328.4,351.78,334.17,350.87Z" style="fill:#263238"></path></g><g id="freepik--Arm--inject-105"><path d="M385.31,214.28c-9.19-.85-11.45,2.88-13.68,6.56C367.85,227.08,360.8,247,360.8,247l-26.69,12.1,4.67,8.68s25-7.36,28.51-8.91a8.55,8.55,0,0,0,4.94-4.55c3.19-5.81,8.27-16.89,8.27-16.89Z" style="fill:#9e6767"></path><path d="M385.31,214.11c-2.71-.43-6.71-.21-9.55,1.58s-4,3.92-7.35,10.72-7.88,20.39-7.88,20.39l-5.48,2.7c2.31,1,6.45,8.35,5.51,11.62,0,0,6-1.91,8.25-2.59s2.79-2.21,4.59-5.52,7.57-15.9,7.57-15.9S386.36,214.52,385.31,214.11Z" style="fill:#92E3A9"></path><path d="M385.31,214.11c-2.71-.43-6.71-.21-9.55,1.58s-4,3.92-7.35,10.72-7.88,20.39-7.88,20.39l-5.48,2.7c2.31,1,6.45,8.35,5.51,11.62,0,0,6-1.91,8.25-2.59s2.79-2.21,4.59-5.52,7.57-15.9,7.57-15.9S386.36,214.52,385.31,214.11Z" style="fill:#fff;opacity:0.05"></path><path d="M360.53,246.8c1.32-.32,4.93.6,7.14,2.13,0,0-1.69-2.82-6.74-3.33Z" style="opacity:0.15"></path></g><g id="freepik--Chest--inject-105"><path d="M402,217.48l9.41,3.59c1.86.86-1.51,12-2.33,25.07-.85,13.42-3.41,30.32-3.41,30.32s-10.42,2.88-25.41-3.62c-13.26-5.75-14.92-12-14.92-12l4.16-5.81s2.8-24,6.83-31.56,9-9.31,9-9.31l4.95.76Z" style="fill:#92E3A9"></path></g><g id="freepik--chest--inject-105" style="opacity:0.30000000000000004"><path d="M402,217.48l9.41,3.59c1.86.86-1.51,12-2.33,25.07-.85,13.42-3.41,30.32-3.41,30.32s-10.42,2.88-25.41-3.62c-13.26-5.75-14.92-12-14.92-12l4.16-5.81s2.8-24,6.83-31.56,9-9.31,9-9.31l4.95.76Z" style="fill:#fff"></path></g><g id="freepik--writting-hand--inject-105"><path d="M361.33,272.41l-3.2,3.9a.16.16,0,0,0,.16.25l4.94-1.16Z" style="fill:#9e6767"></path><path d="M358.29,276.56a.16.16,0,0,1-.16-.25l.63-.76h0a.85.85,0,0,0,.5.73l.08,0Z" style="fill:#263238"></path><path d="M381.29,264.15l-.4.25-.47.3-17.19,10.7a2.22,2.22,0,0,1-1.38-.9,2.32,2.32,0,0,1-.52-2.09l17.18-10.69.92-.57C378.85,261.55,380.71,264.55,381.29,264.15Z" style="fill:#92E3A9"></path><path d="M379.78,265.1l-.88.55c-.25.17-.76-.28-1.21-.88-.6-.79-1-1.91-.65-2.14l.66-.4.23-.15c-.33.23.05,1.36.65,2.15.43.57.92,1,1.18.88h0Z" style="fill:#ebebeb"></path><path d="M379.56,265.23c-.58.39-2.44-2.62-1.85-3l.88-.55c-.58.39,1.27,3.4,1.86,3Z" style="fill:#92E3A9"></path><path d="M381.29,264.15l-.87.55c-.57.39-2.39-2.5-1.91-3l0,0,.89-.54C378.85,261.55,380.71,264.55,381.29,264.15Z" style="fill:#ebebeb"></path><path d="M358.13,276.5v-.19l3.43-2.23,18.18-11.32c0-.05,0-.08,0-.08.47.85,1.2,1.69,1.52,1.47l-.4.25-.47.3-17.19,10.7h0l-4.94,1.16A.14.14,0,0,1,358.13,276.5Z" style="opacity:0.15"></path><path d="M385,261.84l-3.71,2.31c-.25.17-.75-.26-1.2-.85-.6-.79-1-1.92-.66-2.15h0l3.72-2.33c.74-.45,1.86.94,2.11,2A.9.9,0,0,1,385,261.84Z" style="fill:#ffa8a7"></path><path d="M383.86,261.48a2.72,2.72,0,0,1-.92-2.25.6.6,0,0,1,.33-.46c.74-.25,1.75,1,2,2.08a.93.93,0,0,1-.24,1C384.73,262,384.3,261.89,383.86,261.48Z" style="fill:#f28f8f"></path><path d="M372.81,265.27a3.44,3.44,0,0,0-3,.67c-1,.61-2.39.71-2.5,1.19s.56,1.2.56,1.2Z" style="fill:#874c4c"></path><path d="M384.35,280.25c-2.07-.19-8.76-.34-10.94-.82a8.91,8.91,0,0,1-4.93-2.75c-.31-.37-.6-.76-.91-1.13a2.75,2.75,0,0,0-.82-.81c-.27-.15-.56-.26-.83-.41a2.48,2.48,0,0,1-1.16-1.83,2.3,2.3,0,0,0-.05-.45.53.53,0,0,0-.24-.36.83.83,0,0,0-.47-.05,6.94,6.94,0,0,1-1.76.1,3.38,3.38,0,0,1-1.24-.42c-.28-.18-.8-.72-.33-1,.63-.38,1.25-.79,1.75-1a21,21,0,0,1,7.76-1.74c1.34-.12,3.22-.11,4.56-.2.57,0,1.18-.16,1.78-.23l.88-.54a3.79,3.79,0,0,1,1.57.55c.77.45,1.61,1.18,2.4,1.6,2,1.06,5.62,1.1,8.49,1" style="fill:#9e6767"></path></g><g id="freepik--Notebook--inject-105"><polygon points="335.98 246.51 357.85 256.91 363.55 282.47 361.69 284.37 341.13 273.92 334.11 248.42 335.98 246.51" style="fill:#f5f5f5"></polygon><polygon points="355.98 258.81 361.69 284.37 363.55 282.47 357.85 256.91 355.98 258.81" style="fill:#ebebeb"></polygon><polygon points="333.84 247.89 356.19 258.53 362.08 284.71 361.5 285.33 340.43 274.63 333.26 248.51 333.84 247.89" style="fill:#92E3A9"></polygon><polygon points="333.84 247.89 356.19 258.53 362.08 284.71 361.5 285.33 340.43 274.63 333.26 248.51 333.84 247.89" style="fill:#fff;opacity:0.7000000000000001"></polygon><polygon points="355.61 259.14 361.5 285.33 362.08 284.71 356.19 258.53 355.61 259.14" style="fill:#92E3A9"></polygon><polygon points="355.61 259.14 361.5 285.33 362.08 284.71 356.19 258.53 355.61 259.14" style="opacity:0.15"></polygon><polygon points="333.26 248.51 355.61 259.14 361.5 285.33 340.43 274.63 333.26 248.51" style="fill:#92E3A9"></polygon><g style="opacity:0.2"><path d="M344.62,268.37c-.25.65-2.36,2.06-5.41,1.81l-.52-1.89Z"></path></g><path d="M354.66,260.35c.1.34,0,.51-.3.39a1.5,1.5,0,0,1-.65-.85c-.09-.34.05-.51.31-.39A1.49,1.49,0,0,1,354.66,260.35Z" style="opacity:0.35000000000000003"></path><path d="M353.09,259a1.92,1.92,0,0,0,.87,1.35.85.85,0,0,0,.22.09,1.22,1.22,0,0,0,.32,0,.62.62,0,0,0,.19,0l0-.14a1,1,0,0,0-.12-.29.65.65,0,0,1-.24,0,1.07,1.07,0,0,1-.57-.51,2.34,2.34,0,0,1-.21-.6,5,5,0,0,1,1.13-4.1,1.21,1.21,0,0,1,1.13-.47,1.36,1.36,0,0,1,.79,1.11,4.08,4.08,0,0,1,.08.87l.44.21a4.57,4.57,0,0,0-.08-1.18,1.79,1.79,0,0,0-1.1-1.44,1.66,1.66,0,0,0-1.59.59A5.48,5.48,0,0,0,353.09,259Z" style="fill:#e0e0e0"></path><path d="M351.59,258.88c.1.34,0,.52-.3.39a1.41,1.41,0,0,1-.65-.84c-.09-.34,0-.51.31-.39A1.46,1.46,0,0,1,351.59,258.88Z" style="opacity:0.35000000000000003"></path><path d="M350,257.57a1.93,1.93,0,0,0,.88,1.35l.22.09a1.22,1.22,0,0,0,.32,0l.19,0,0-.15a1.69,1.69,0,0,0-.12-.28.65.65,0,0,1-.24,0,1,1,0,0,1-.57-.52,2.14,2.14,0,0,1-.21-.59,5,5,0,0,1,1.13-4.1,1.19,1.19,0,0,1,1.13-.47,1.36,1.36,0,0,1,.79,1.11,4,4,0,0,1,.08.87l.44.21a4.16,4.16,0,0,0-.09-1.18,1.73,1.73,0,0,0-1.09-1.44,1.64,1.64,0,0,0-1.59.59A5.51,5.51,0,0,0,350,257.57Z" style="fill:#e0e0e0"></path><path d="M348.52,257.42c.09.34,0,.52-.31.39a1.43,1.43,0,0,1-.64-.84c-.09-.34,0-.52.31-.39A1.43,1.43,0,0,1,348.52,257.42Z" style="opacity:0.35000000000000003"></path><path d="M346.94,256.1a2,2,0,0,0,.88,1.36l.22.09a1.17,1.17,0,0,0,.32,0l.19,0,0-.15a1.39,1.39,0,0,0-.12-.28.63.63,0,0,1-.24,0,1,1,0,0,1-.57-.52,2.27,2.27,0,0,1-.21-.59,5,5,0,0,1,1.13-4.1,1.18,1.18,0,0,1,1.13-.47c.37.1.65.51.79,1.1a4.18,4.18,0,0,1,.08.88l.44.21a4.1,4.1,0,0,0-.09-1.18,1.73,1.73,0,0,0-1.09-1.44,1.63,1.63,0,0,0-1.59.58A5.52,5.52,0,0,0,346.94,256.1Z" style="fill:#e0e0e0"></path><path d="M345.45,256c.09.34,0,.51-.31.39a1.46,1.46,0,0,1-.64-.84c-.1-.34,0-.52.3-.39A1.41,1.41,0,0,1,345.45,256Z" style="opacity:0.35000000000000003"></path><path d="M343.87,254.64a1.9,1.9,0,0,0,.88,1.35.85.85,0,0,0,.22.09,1.13,1.13,0,0,0,.32.05l.19,0,0-.15a1.39,1.39,0,0,0-.12-.28.61.61,0,0,1-.24,0,1,1,0,0,1-.57-.51,2.41,2.41,0,0,1-.21-.59,5,5,0,0,1,1.12-4.1,1.24,1.24,0,0,1,1.14-.48,1.35,1.35,0,0,1,.78,1.11,4.14,4.14,0,0,1,.09.87l.44.21a4.06,4.06,0,0,0-.09-1.17,1.77,1.77,0,0,0-1.09-1.45,1.66,1.66,0,0,0-1.59.59A5.52,5.52,0,0,0,343.87,254.64Z" style="fill:#e0e0e0"></path><path d="M342.38,254.5c.09.34-.05.51-.31.39a1.49,1.49,0,0,1-.64-.85c-.1-.34,0-.51.3-.39A1.5,1.5,0,0,1,342.38,254.5Z" style="opacity:0.35000000000000003"></path><path d="M340.8,253.18a2,2,0,0,0,.87,1.35,1.09,1.09,0,0,0,.23.09,1.12,1.12,0,0,0,.32,0,.55.55,0,0,0,.18,0,.39.39,0,0,0,0-.14.81.81,0,0,0-.12-.29.58.58,0,0,1-.23,0,1,1,0,0,1-.57-.51,2.34,2.34,0,0,1-.21-.6,5,5,0,0,1,1.12-4.1,1.23,1.23,0,0,1,1.14-.47,1.37,1.37,0,0,1,.78,1.11,4.07,4.07,0,0,1,.09.87l.43.21a4.17,4.17,0,0,0-.08-1.18,1.76,1.76,0,0,0-1.09-1.44,1.65,1.65,0,0,0-1.59.59A5.48,5.48,0,0,0,340.8,253.18Z" style="fill:#e0e0e0"></path><path d="M339.31,253c.09.34-.05.52-.31.39a1.43,1.43,0,0,1-.64-.84c-.1-.34,0-.51.3-.39A1.52,1.52,0,0,1,339.31,253Z" style="opacity:0.35000000000000003"></path><path d="M337.73,251.72a1.92,1.92,0,0,0,.87,1.35l.22.09a1.24,1.24,0,0,0,.33,0l.18,0a.44.44,0,0,0,0-.15.85.85,0,0,0-.12-.28.65.65,0,0,1-.24,0,1,1,0,0,1-.56-.52,1.86,1.86,0,0,1-.21-.59,5,5,0,0,1,1.12-4.1,1.21,1.21,0,0,1,1.14-.47,1.37,1.37,0,0,1,.78,1.11,4,4,0,0,1,.09.87l.43.21a4.17,4.17,0,0,0-.08-1.18,1.73,1.73,0,0,0-1.1-1.44,1.62,1.62,0,0,0-1.58.59A5.47,5.47,0,0,0,337.73,251.72Z" style="fill:#e0e0e0"></path><path d="M336.23,251.57c.1.34,0,.52-.3.39a1.48,1.48,0,0,1-.65-.84c-.09-.34.05-.52.31-.39A1.43,1.43,0,0,1,336.23,251.57Z" style="opacity:0.35000000000000003"></path><path d="M334.66,250.25a1.94,1.94,0,0,0,.87,1.36l.22.09a1.24,1.24,0,0,0,.33,0l.18,0a.8.8,0,0,0,0-.15.77.77,0,0,0-.12-.28.65.65,0,0,1-.24,0,1,1,0,0,1-.57-.52,2,2,0,0,1-.2-.59,4.94,4.94,0,0,1,1.12-4.1,1.21,1.21,0,0,1,1.14-.47,1.35,1.35,0,0,1,.78,1.1,4.18,4.18,0,0,1,.08.88l.44.21a4.11,4.11,0,0,0-.08-1.18,1.76,1.76,0,0,0-1.1-1.44,1.61,1.61,0,0,0-1.58.58A5.48,5.48,0,0,0,334.66,250.25Z" style="fill:#e0e0e0"></path><path d="M334.67,253.64l1.23,4.5c.6,2.18,4.76,3,7,3.27,4.31.54,4.8,1.47,3.76,4.53-1,2.83-3.76,3.89-7.66,3.43a7,7,0,0,1-5.33-4.66c-1.27-3.61-.59-7.46-1.09-9.57S333.57,252.39,334.67,253.64Z" style="fill:#9e6767"></path></g><path d="M384.19,197.69a57.44,57.44,0,0,0,5.84,3.5,40,40,0,0,0,6,2.54c2.19.71,4-.06,6.26.05l.13,6.26a34.67,34.67,0,0,1,1.3-3.22c.86-1.87,1.54-3.84,2.26-5.76a30.7,30.7,0,0,0,2.18-8,11,11,0,0,0-.63-5.28,11.54,11.54,0,0,0-1.3-2.29,15,15,0,0,0-2.08-2.42,18.44,18.44,0,0,0-12.7-4.88,13.84,13.84,0,0,0-9.95,4,10.63,10.63,0,0,0-1.52,2.56,15.64,15.64,0,0,0-1.09,6,7.42,7.42,0,0,0,.57,3,4.94,4.94,0,0,0,2,2.11C382.33,196.38,383.25,197.06,384.19,197.69Z" style="fill:#e0e0e0"></path><path d="M395.52,183.09c.08,1.95,2.43,6.15,5.29,8.44a19.42,19.42,0,0,0,.1,6.59,3.75,3.75,0,0,0,.55,1.3,1.65,1.65,0,0,0,1.19.69c.64,0,.88-.38,1.06-.88a16.29,16.29,0,0,1,.89-1.89,3.71,3.71,0,0,1,.54-.74c.93-.93,3.75-2.13,5.2.86s-.87,7.38-3.15,8.11c-3.93,1.27-4.9-1.4-4.9-1.4l.27,13.19c-1,3.38-8.15,10.56-16.92,12.35,0,0-2.49-4.64,1.82-11.89l-.28-4.07a11.48,11.48,0,0,1-3.64-.19c-2.08-.31-3.85-2.18-4.83-5.28a48,48,0,0,1-1.33-18.22c.6-3.74,2.9-7.09,4.11-7.95,0,.8.83,2.88,4.25,3.3C390,185.92,392.51,184.47,395.52,183.09Z" style="fill:#9e6767"></path><path d="M385.64,229.71s1.78-3.93,2.57-5.93c0,0,8.49-3.75,10.92-6.63s2.58-4,2.58-4l.39,4.87S397.39,229.13,385.64,229.71Z" style="fill:#e0e0e0"></path><path d="M388.21,223.78c1-1.17,6.86,4.41,7.61,5.93,0,0,5.88-3,7.75-5.86,2.16-3.31,2.31-4.89,2.31-4.89s-1.37-2.93-1.82-4.17c-.66-1.81-.93-3.19-1.61-2.95a22.42,22.42,0,0,1-7.22,7.3C390.29,222.26,388.65,222.82,388.21,223.78Z" style="fill:#f5f5f5"></path><path d="M387.46,217.82l-.09-3.83-1.1,0c-2.79.05-7.89,9-8.3,11.31,1.57-1.64,4.34-3.62,5.17-1.48.72,4.56,2.5,5.91,2.5,5.91S384.65,223.17,387.46,217.82Z" style="fill:#e0e0e0"></path><path d="M390.52,190.31l3,1.7a1.83,1.83,0,0,0-.7-2.43A1.69,1.69,0,0,0,390.52,190.31Z" style="fill:#e0e0e0"></path><path d="M378.61,191.08l3.13-1.36a1.66,1.66,0,0,0-2.2-.87A1.74,1.74,0,0,0,378.61,191.08Z" style="fill:#e0e0e0"></path><path d="M387.37,213.92c3.66-.48,8.08-1.48,10.1-2.65,1.49-.86,3.77-2.82,4.13-3.72a9,9,0,0,1-2.76,4.55c-3.88,3.18-11.41,3.63-11.41,3.63Z" style="fill:#874c4c"></path><path d="M400.61,194c-.19,1.67-2,9.22-4.08,10-3.3,1.27-5.81-.66-9.81-1.08-2.66-.27-4.38.77-6.18,1.45-.35.13-.76.26-1.15.38a1.37,1.37,0,0,1-1.72-1.11c-.26-1.69-.61-7.57-.6-10.15h0s-.49,9.77,0,12.65,1,5.19,3.46,6.76,7.35,2,13.06.38,8.19-5.25,8.67-7.36c1.43-6.38.85-6.66,2.89-9.33C406,195.44,400.61,194,400.61,194Z" style="fill:#e0e0e0"></path><path d="M374.53,191.78a2,2,0,0,0,.43,1.16.74.74,0,0,1,.18.41,18,18,0,0,0,.43,3.07,3.55,3.55,0,0,0,3.43,2.4,6,6,0,0,0,1.27,0h.1a4.08,4.08,0,0,0,1.07-.28l.07,0,.09,0,.12-.06.11-.06.12-.07.12-.07.22-.16a4.45,4.45,0,0,0,1-1.09c.67-1,.72-2.49,1.62-2.6h.22c1.19.1.86,1.69,1.38,2.89s1.49,2.39,4.08,2.61l.33,0h.27a6.28,6.28,0,0,0,.64,0l.2,0,.19,0,.12,0a3.57,3.57,0,0,0,.74-.24l.25-.12a3.4,3.4,0,0,0,.45-.28,4.17,4.17,0,0,0,.92-1,17.44,17.44,0,0,0,1.08-2.93,1.4,1.4,0,0,1,.25-.42,2,2,0,0,0,.72-1,.9.9,0,0,0-.6-1l-.63-.12a22.43,22.43,0,0,0-6.31-.39c-2.07.33-2.83.84-3.94.75s-1.65-.73-3.47-1.41a19.23,19.23,0,0,0-5.88-.69h-.6A.94.94,0,0,0,374.53,191.78Zm13,2.05a1.8,1.8,0,0,1,.63-.37l.1,0,.06,0,.3-.1.27-.07a7.8,7.8,0,0,1,.89-.17l.35-.05c.29,0,.59,0,.89-.06h.21a5.55,5.55,0,0,1,3.49.87c.4.39,0,1.93-.28,2.71l0,.06,0,.06-.13.31a1.54,1.54,0,0,1-.08.19h0a3.37,3.37,0,0,1-.17.32h0l-.06.11-.05.07-.05.07-.06.09-.08.1-.09.1a.52.52,0,0,1-.1.11,3.37,3.37,0,0,1-2.83.92,3.83,3.83,0,0,1-2.72-1.16h0a4,4,0,0,1-.43-4.06Zm-11.22-1.65a1.69,1.69,0,0,1,.5-.22h0a1.41,1.41,0,0,1,.22-.06l.13,0,.11,0h.21l.45,0h.5l.31,0H379c.27,0,.56.07.87.13a5.55,5.55,0,0,1,3,1.46,3.44,3.44,0,0,1-.19,2.4,3.9,3.9,0,0,1-.25.58l0,0,0,.05,0,0-.05.07-.09.14-.09.12,0,0-.07.08a.19.19,0,0,1-.06.07h0a3.33,3.33,0,0,1-3,.94,3.68,3.68,0,0,1-1.4-.41,3.36,3.36,0,0,1-1.56-2.71C376,194.08,375.88,192.5,376.33,192.18Z" style="fill:#455a64"></path><path d="M388.81,195.6a1.33,1.33,0,1,0,2.66,0,1.33,1.33,0,1,0-2.66,0Z" style="fill:#263238"></path><path d="M390.41,205.53l-2.78,1a1.47,1.47,0,0,0,1.87.94A1.56,1.56,0,0,0,390.41,205.53Z" style="fill:#874c4c"></path><path d="M378.71,195.09a1.34,1.34,0,1,0,1.33-1.4A1.36,1.36,0,0,0,378.71,195.09Z" style="fill:#263238"></path><path d="M386,201.85l-4.92-.94a16.06,16.06,0,0,1,4-6.56c.42.08.82.07,1.05,1.62Z" style="fill:#874c4c"></path></g><path d="M384.91,355.39V313a9.82,9.82,0,0,1,4.41-7.65l40.92-23.62a2.9,2.9,0,0,0,0-5l-1-.58,3.47-20.93a11.74,11.74,0,0,1,5.08-7.6l3.6-2.08c2.43-1.4,4.41-.25,4.41,2.55v18.62l-.07,53.68a9.8,9.8,0,0,1-4.41,7.65l-52,29.95C386.9,359.34,384.91,358.19,384.91,355.39Z" style="fill:#263238"></path><path d="M372.49,305.8v42.42a2.62,2.62,0,0,0,0,.28,9.85,9.85,0,0,0,4.36,7.34l0,0,3.59,2.07a1.8,1.8,0,0,0,.34.17.81.81,0,0,0,.18.1l.05,0,.36.13a10.22,10.22,0,0,0,6.49.18,6.39,6.39,0,0,0,.77-.28c-2.12.87-3.76-.32-3.77-2.86h0V313a9.82,9.82,0,0,1,4.41-7.65l8-4.62,32.91-19a2.91,2.91,0,0,0,0-5l-3.65-2.11a9.87,9.87,0,0,0-8.83,0l-32.86,19-8,4.62A9.78,9.78,0,0,0,372.49,305.8Z" style="fill:#455a64"></path><path d="M384.91,313v42.4h0c0,2.54,1.65,3.73,3.77,2.86a6.39,6.39,0,0,1-.77.28,10.22,10.22,0,0,1-6.49-.18l-.36-.13-.05,0a.81.81,0,0,1-.18-.1,1.8,1.8,0,0,1-.34-.17l-3.59-2.07,0,0a9.85,9.85,0,0,1-4.36-7.34,2.62,2.62,0,0,1,0-.28V305.8a9,9,0,0,1,1.29-4.34l12.42,7.17A9,9,0,0,0,384.91,313Z" style="fill:#37474f"></path><g id="freepik--arm--inject-105"><path d="M389.86,269.72c5.65-.21,18.53-2,18.53-2l-2.86-25.05c-1.45-6,2.65-19.6,5.87-21.61,1.43.43,4.37,1.27,7.62,6.19,1.77,2.68,2.18,7.26,3.41,18.34.87,7.88,1.22,18.68,1.33,25.82.13,7.95-3.1,10.13-10.27,10.55-12,.71-24.43-1.28-29.14-1.72" style="fill:#9e6767"></path><path d="M410.69,220.76c4.69,1.15,6.53,2.69,8.82,6.5s3.21,15.37,4.26,27.67.74,19.48.54,21.53-2,5.2-7.09,5.63a73.85,73.85,0,0,1-10.21,0s1-8.91-2.79-13.84l3.89-.72-3.63-27.36S404.79,226.06,410.69,220.76Z" style="fill:#92E3A9"></path><path d="M410.69,220.76c4.69,1.15,6.53,2.69,8.82,6.5s3.21,15.37,4.26,27.67.74,19.48.54,21.53-2,5.2-7.09,5.63a73.85,73.85,0,0,1-10.21,0s1-8.91-2.79-13.84l3.89-.72-3.63-27.36S404.79,226.06,410.69,220.76Z" style="fill:#fff;opacity:0.05"></path><path d="M408.11,267.56a16.46,16.46,0,0,1,8.57,1.69s-1.83-3-8.82-3.57Z" style="opacity:0.15"></path></g></g></g><g id="freepik--characters-1-and-2--inject-105"><g id="freepik--love-seat--inject-105"><polygon points="227.01 285.59 230.22 301.54 233.35 303.34 236.44 301.55 239.69 285.59 233.35 281.93 227.01 285.59" style="fill:#455a64"></polygon><polygon points="233.35 303.34 233.35 289.25 227.01 285.59 230.22 301.54 233.35 303.34" style="fill:#37474f"></polygon><polygon points="227.01 285.59 229.08 295.89 233.35 298.35 237.59 295.9 239.69 285.59 233.35 281.93 227.01 285.59" style="opacity:0.2"></polygon><polygon points="182.15 259.69 185.37 275.64 188.49 277.44 191.59 275.65 194.83 259.69 188.49 256.03 182.15 259.69" style="fill:#455a64"></polygon><polygon points="188.49 277.44 188.49 263.35 182.15 259.69 185.37 275.64 188.49 277.44" style="fill:#37474f"></polygon><polygon points="182.15 259.69 184.23 269.99 188.49 272.45 192.74 270 194.83 259.69 188.49 256.03 182.15 259.69" style="opacity:0.2"></polygon><polygon points="175.68 203.45 188.49 196.05 246.16 229.35 233.35 236.75 175.68 203.45" style="fill:#92E3A9"></polygon><g style="opacity:0.30000000000000004"><polygon points="175.68 203.45 188.49 196.05 246.16 229.35 233.35 236.75 175.68 203.45" style="fill:#fff"></polygon></g><polygon points="233.35 236.75 233.35 295.94 246.16 288.54 246.16 229.35 233.35 236.75" style="fill:#92E3A9"></polygon><path d="M175.67,203.45v59.19l57.68,33.3V236.75Zm52.94,84.29L180.4,259.91V211.65l48.21,27.83Z" style="fill:#92E3A9"></path><path d="M175.67,203.45v59.19l57.68,33.3V236.75Zm52.94,84.29L180.4,259.91V211.65l48.21,27.83Z" style="opacity:0.2"></path><polygon points="193.22 252.5 180.4 259.91 228.61 287.74 228.61 272.93 193.22 252.5" style="fill:#92E3A9"></polygon><polygon points="193.22 252.5 180.4 259.91 228.61 287.74 228.61 272.93 193.22 252.5" style="opacity:0.2"></polygon><polygon points="193.22 252.5 193.22 219.05 180.4 211.65 180.4 259.91 193.22 252.5" style="fill:#92E3A9"></polygon><polygon points="193.22 252.5 193.22 219.05 180.4 211.65 180.4 259.91 193.22 252.5" style="opacity:0.4"></polygon><path d="M171.63,246.23l-53.71,31a7.55,7.55,0,0,0-3.42,5.92V294a7.55,7.55,0,0,0,3.42,5.92l50.85,29.35a7.54,7.54,0,0,0,6.83,0l53.71-31a7.53,7.53,0,0,0,3.41-5.91V281.5a7.56,7.56,0,0,0-3.41-5.91l-50.85-29.36A7.54,7.54,0,0,0,171.63,246.23Z" style="fill:#455a64"></path><path d="M229.31,275.59l-50.85-29.36a7.54,7.54,0,0,0-6.83,0l-53.71,31c-1.89,1.09-1.89,2.86,0,3.95l50.85,29.36a7.54,7.54,0,0,0,6.83,0l53.71-31C231.19,278.44,231.19,276.68,229.31,275.59Z"></path><path d="M114.5,294V283.15c0-2.18,1.53-3.06,3.42-2l50.85,29.36a7.53,7.53,0,0,1,3.42,5.91v10.86c0,2.18-1.53,3.06-3.42,2l-50.85-29.35A7.55,7.55,0,0,1,114.5,294Z" style="fill:#263238"></path><path d="M172.19,327.31V316.45a7.55,7.55,0,0,1,3.41-5.91l53.71-31c1.88-1.09,3.41-.2,3.41,2v10.86a7.53,7.53,0,0,1-3.41,5.91l-53.71,31C173.72,330.37,172.19,329.49,172.19,327.31Z" style="fill:#37474f"></path><path d="M171.63,226l-53.71,31a7.55,7.55,0,0,0-3.42,5.92v10.86a7.55,7.55,0,0,0,3.42,5.92l50.85,29.35a7.54,7.54,0,0,0,6.83,0l53.71-31a7.55,7.55,0,0,0,3.41-5.91V261.27a7.55,7.55,0,0,0-3.41-5.91L178.46,226A7.54,7.54,0,0,0,171.63,226Z" style="fill:#455a64"></path><path d="M229.31,255.36,178.46,226a7.54,7.54,0,0,0-6.83,0l-53.71,31c-1.89,1.09-1.89,2.86,0,3.94l50.85,29.37a7.54,7.54,0,0,0,6.83,0l53.71-31C231.19,258.21,231.19,256.45,229.31,255.36Z" style="fill:#455a64"></path><path d="M114.5,273.78V262.92c0-2.18,1.53-3.06,3.42-2l50.85,29.37a7.53,7.53,0,0,1,3.42,5.91v10.86c0,2.18-1.53,3.06-3.42,2L117.92,279.7A7.55,7.55,0,0,1,114.5,273.78Z" style="fill:#263238"></path><path d="M172.19,307.08V296.22a7.55,7.55,0,0,1,3.41-5.91l53.71-31c1.88-1.09,3.41-.21,3.41,2v10.86a7.55,7.55,0,0,1-3.41,5.91l-53.71,31C173.72,310.14,172.19,309.26,172.19,307.08Z" style="fill:#37474f"></path><path d="M173.78,178.89l6,3.45a9.06,9.06,0,0,1,3.93,5.88l5.37,40.28a6.36,6.36,0,0,1-2.9,5.88l-53.7,31a7.54,7.54,0,0,1-6.83,0l-6-3.45a9,9,0,0,1-3.93-5.88l-5.36-40.29a6.36,6.36,0,0,1,2.9-5.88l53.7-31A7.54,7.54,0,0,1,173.78,178.89Z" style="fill:#455a64"></path><path d="M119.59,262l6,3.44c1.89,1.08,3.19.21,2.9-1.95l-5.36-40.28a9,9,0,0,0-3.94-5.88l-6-3.45c-1.89-1.09-3.19-.23-2.9,1.93l5.3,40.32A9,9,0,0,0,119.59,262Z" style="fill:#263238"></path><path d="M113.25,209.89l53.7-31a7.54,7.54,0,0,1,6.83,0l6,3.45c1.88,1.09,1.88,2.86,0,3.95l-53.71,31a7.54,7.54,0,0,1-6.83,0l-6-3.45C111.36,212.75,111.36,211,113.25,209.89Z" style="fill:#455a64"></path><path d="M179.77,186.29l-53.71,31a6.37,6.37,0,0,0-2.89,5.88l5.36,40.28a2.45,2.45,0,0,0,3.94,1.94l53.7-31a6.36,6.36,0,0,0,2.9-5.88l-5.37-40.28A2.44,2.44,0,0,0,179.77,186.29Z" style="fill:#37474f"></path><polygon points="91.03 364.1 94.24 380.05 97.37 381.85 100.47 380.06 103.71 364.1 97.37 360.44 91.03 364.1" style="fill:#455a64"></polygon><polygon points="97.37 381.85 97.37 367.76 91.03 364.1 94.24 380.05 97.37 381.85" style="fill:#37474f"></polygon><polygon points="91.03 364.1 93.1 374.4 97.37 376.86 101.61 374.41 103.71 364.1 97.37 360.44 91.03 364.1" style="opacity:0.2"></polygon><polygon points="46.17 338.2 49.39 354.15 52.51 355.95 55.61 354.16 58.85 338.2 52.51 334.54 46.17 338.2" style="fill:#455a64"></polygon><polygon points="52.51 355.95 52.51 341.86 46.17 338.2 49.39 354.15 52.51 355.95" style="fill:#37474f"></polygon><polygon points="46.17 338.2 48.25 348.5 52.51 350.96 56.76 348.51 58.85 338.2 52.51 334.54 46.17 338.2" style="opacity:0.2"></polygon><path d="M108.11,282.91,55.92,313A7.55,7.55,0,0,0,52.5,319v10.86a7.52,7.52,0,0,0,3.42,5.91l50.85,29.36a7.54,7.54,0,0,0,6.83,0L165.78,335a7.54,7.54,0,0,0,3.41-5.91V318.18a7.54,7.54,0,0,0-3.41-5.92l-50.84-29.35A7.54,7.54,0,0,0,108.11,282.91Z" style="fill:#455a64"></path><path d="M165.78,312.26l-50.84-29.35a7.54,7.54,0,0,0-6.83,0L55.92,313c-1.89,1.09-1.89,2.86,0,3.94l50.85,29.37a7.6,7.6,0,0,0,6.83,0l52.18-30.13C167.67,315.12,167.67,313.35,165.78,312.26Z"></path><path d="M52.5,329.81V319c0-2.18,1.53-3.06,3.42-2l50.85,29.37a7.52,7.52,0,0,1,3.42,5.91v10.86c0,2.17-1.53,3.06-3.42,2L55.92,335.72A7.52,7.52,0,0,1,52.5,329.81Z" style="fill:#263238"></path><path d="M110.19,363.11V352.25a7.53,7.53,0,0,1,3.41-5.91l52.18-30.13c1.89-1.09,3.41-.21,3.41,2V329a7.54,7.54,0,0,1-3.41,5.91L113.6,365.08C111.72,366.17,110.19,365.28,110.19,363.11Z" style="fill:#37474f"></path><path d="M108.11,262.68,55.92,292.8a7.55,7.55,0,0,0-3.42,5.92v10.86a7.52,7.52,0,0,0,3.42,5.91l50.85,29.36a7.54,7.54,0,0,0,6.83,0l52.18-30.13a7.54,7.54,0,0,0,3.41-5.92V298a7.54,7.54,0,0,0-3.41-5.92l-50.84-29.35A7.54,7.54,0,0,0,108.11,262.68Z" style="fill:#455a64"></path><path d="M165.78,292l-50.84-29.35a7.54,7.54,0,0,0-6.83,0L55.92,292.8c-1.89,1.09-1.89,2.85,0,3.94l50.85,29.36a7.54,7.54,0,0,0,6.83,0L165.78,296C167.67,294.89,167.67,293.12,165.78,292Z" style="fill:#455a64"></path><path d="M52.5,309.58V298.72c0-2.18,1.53-3.07,3.42-2l50.85,29.36a7.55,7.55,0,0,1,3.42,5.92v10.86c0,2.17-1.53,3.06-3.42,2L55.92,315.49A7.52,7.52,0,0,1,52.5,309.58Z" style="fill:#263238"></path><path d="M110.19,342.88V332a7.57,7.57,0,0,1,3.41-5.92L165.78,296c1.89-1.09,3.41-.21,3.41,2V308.8a7.54,7.54,0,0,1-3.41,5.92L113.6,344.85C111.72,345.94,110.19,345.05,110.19,342.88Z" style="fill:#37474f"></path><path d="M110.25,215.56l6,3.46a9,9,0,0,1,3.94,5.88l5.36,40.28a6.37,6.37,0,0,1-2.89,5.88L70.47,301.19a7.54,7.54,0,0,1-6.83,0l-6-3.45a9,9,0,0,1-3.94-5.88l-5.35-40.29a6.37,6.37,0,0,1,2.89-5.88l52.18-30.13A7.54,7.54,0,0,1,110.25,215.56Z" style="fill:#455a64"></path><path d="M57.59,297.76l6,3.44c1.89,1.08,3.19.21,2.9-1.95L61.17,259a9,9,0,0,0-3.94-5.88l-6-3.46c-1.89-1.08-3.19-.22-2.91,1.94l5.31,40.32A9,9,0,0,0,57.59,297.76Z" style="fill:#263238"></path><path d="M51.25,245.69l52.17-30.13a7.54,7.54,0,0,1,6.83,0l6,3.46c1.89,1.09,1.89,2.85,0,3.94L64.06,253.09a7.54,7.54,0,0,1-6.83,0l-6-3.46C49.36,248.55,49.36,246.78,51.25,245.69Z" style="fill:#455a64"></path><path d="M116.24,223,64.06,253.09A6.37,6.37,0,0,0,61.17,259l5.36,40.28a2.45,2.45,0,0,0,3.94,1.94l52.18-30.13a6.37,6.37,0,0,0,2.89-5.88l-5.36-40.28A2.45,2.45,0,0,0,116.24,223Z" style="fill:#37474f"></path><g id="freepik--character--inject-105"><path d="M143.1,349.62l0,18.46a7.18,7.18,0,0,1-5.71,5.73c-5,.92-5.56-5.29-5.56-5.29l-3.43-21.78Z" style="fill:#f28f8f"></path><path d="M130.35,378a6.09,6.09,0,0,0,.32,2.12c.37.86,2.63,2,3.87,2.58a7.17,7.17,0,0,1,3.9,3.85,14.26,14.26,0,0,0,6.55,6.63,20.36,20.36,0,0,0,12,1.31c5-.87,5.47-3.84,5.47-3.84s.28-2.79-1-3.24S130.35,378,130.35,378Z" style="fill:#263238"></path><path d="M131.6,367.17c-.39.06-.44.49-.52,1.76s-.59,2.89-.76,4.11a14.64,14.64,0,0,0,0,5.32c1.39,2.44,4.33,2.08,7.09,4.66,2.53,2.36,5,7.91,11.55,9.26s11.61-.72,12.84-2.59.13-3.65-4.09-5.95c-4.47-2.45-10.34-9.71-10.34-9.71-.71-1-1.42-2-2.08-3a7.58,7.58,0,0,1-.71-1.8l-.66-2.12c-.11-.33-.25-.69-.57-.8a1.13,1.13,0,0,0-.84.19,25.18,25.18,0,0,1-6,2.2,1,1,0,0,0-.65.31,1.23,1.23,0,0,0-.07,1,4.36,4.36,0,0,1,.06,1.35c0,.2-.1.45-.3.47s-.33-.17-.42-.34l-.92-1.69a2.73,2.73,0,0,0-1.42-1.28,7.44,7.44,0,0,1-1-.62Z" style="fill:#455a64"></path><path d="M144.69,390.68a8.38,8.38,0,0,1,4.93-7.13c5-2.52,8-.86,9.51.24,1.81,1.32,4.38,4.06,2.8,6-1.71,2.12-4.44,3.12-9.52,3.15S144.69,390.68,144.69,390.68Z" style="fill:#fafafa"></path><path d="M138,375.22a.56.56,0,0,0,.46-.23c.57-.78,4.2-3.71,7.69-2.71.18-.4-.11-.82-.82-1.26-3.67-.35-7.13,2.4-7.81,3.35a.53.53,0,0,0,.14.76A.55.55,0,0,0,138,375.22Z" style="fill:#fafafa"></path><path d="M148.1,374.92a1.7,1.7,0,0,0-1-1.22,10.44,10.44,0,0,0-7.35,3.37.54.54,0,0,0,.14.77.58.58,0,0,0,.34.09.56.56,0,0,0,.46-.23C141.26,376.94,144.71,374.17,148.1,374.92Z" style="fill:#fafafa"></path><path d="M153.56,380.61a3.22,3.22,0,0,0-1.56-1.48c-3.61-.26-7,2.43-7.66,3.36a.53.53,0,0,0,.15.76.59.59,0,0,0,.34.1.56.56,0,0,0,.45-.23C145.88,382.29,149.9,379.08,153.56,380.61Z" style="fill:#fafafa"></path><path d="M142.54,380.64a.53.53,0,0,0,.45-.23c.57-.78,4.13-3.63,7.58-2.74a2,2,0,0,0-1.16-1.26,10.45,10.45,0,0,0-7.36,3.37.53.53,0,0,0,.15.76A.59.59,0,0,0,142.54,380.64Z" style="fill:#fafafa"></path><path d="M168.6,334.45l.88,18.44a7.16,7.16,0,0,1-5.43,6c-4.93,1.16-5.78-5.08-5.78-5.08l-4.73-19.45Z" style="fill:#f28f8f"></path><path d="M157.25,363.4a6.14,6.14,0,0,0,.42,2.11c.41.83,2.72,1.83,4,2.38a7.18,7.18,0,0,1,4.08,3.65,14.18,14.18,0,0,0,6.87,6.31,20.39,20.39,0,0,0,12.08.73c5-1.12,5.27-4.11,5.27-4.11s.15-2.8-1.12-3.19S157.25,363.4,157.25,363.4Z" style="fill:#263238"></path><path d="M158,352.52c-.38.08-.41.52-.43,1.8s-.45,2.91-.56,4.14a14.82,14.82,0,0,0,.25,5.31c1.51,2.37,4.43,1.87,7.31,4.31,2.65,2.24,5.35,7.67,12,8.69s11.56-1.28,12.7-3.21-.05-3.65-4.37-5.75c-4.59-2.23-10.81-9.19-10.81-9.19-.75-.94-1.51-1.89-2.22-2.9A7.63,7.63,0,0,1,171,354c-.26-.7-.51-1.39-.76-2.09-.12-.32-.28-.68-.61-.77a1.1,1.1,0,0,0-.82.23,25,25,0,0,1-5.92,2.49,1.11,1.11,0,0,0-.64.34c-.21.28-.1.67,0,1a4.66,4.66,0,0,1,.13,1.34c0,.2-.08.45-.28.49s-.34-.15-.44-.32l-1-1.65a2.79,2.79,0,0,0-1.49-1.21,6.1,6.1,0,0,1-1.05-.57Z" style="fill:#455a64"></path><path d="M172.19,375.38a8.37,8.37,0,0,1,4.57-7.36c4.86-2.76,8-1.25,9.52-.22,1.86,1.23,4.57,3.84,3.08,5.88-1.6,2.21-4.28,3.34-9.35,3.62S172.19,375.38,172.19,375.38Z" style="fill:#fafafa"></path><path d="M164.72,360.27a.56.56,0,0,0,.44-.26c.53-.81,4-3.9,7.55-3.08.16-.41-.15-.81-.88-1.21-3.69-.17-7,2.74-7.64,3.72a.53.53,0,0,0,.18.75A.62.62,0,0,0,164.72,360.27Z" style="fill:#fafafa"></path><path d="M174.83,359.47a1.73,1.73,0,0,0-1.05-1.17,10.41,10.41,0,0,0-7.17,3.73.55.55,0,0,0,.52.83.56.56,0,0,0,.44-.25C168.09,361.82,171.4,358.89,174.83,359.47Z" style="fill:#fafafa"></path><path d="M180.55,364.89a3.23,3.23,0,0,0-1.62-1.4,10.33,10.33,0,0,0-7.49,3.73.52.52,0,0,0,.18.75.55.55,0,0,0,.35.08.58.58,0,0,0,.44-.25C173,366.94,176.83,363.54,180.55,364.89Z" style="fill:#fafafa"></path><path d="M169.55,365.46a.57.57,0,0,0,.44-.26c.53-.8,3.95-3.83,7.44-3.1a2,2,0,0,0-1.23-1.21,10.51,10.51,0,0,0-7.18,3.73.54.54,0,0,0,.18.76A.62.62,0,0,0,169.55,365.46Z" style="fill:#fafafa"></path><path d="M164.67,297.17c-2.22-5.94-22-15.35-28.78-19.12s-10.48-6.12-18.16-11.19l-16.32-11.09c-1.12,6.77-1.46,10.69.82,17.3l-21.65,8.69c1.19,8.73,3.56,13.11,6,15.77,3.69,4,7,6.47,16.91,11.86,8.2,4.46,16.58,9.64,18.83,11,2.56,1.56,3.19,3.09,2.89,6.48-1.17,13.42,3,27.81,4.84,38.67a14.93,14.93,0,0,0,13.82-1.45s1.65-48.89-.57-54.83a11.52,11.52,0,0,0-2.14-3.1c1.17.46,2.07.82,2.55,1.05,3,1.42,3.59,2.48,4.09,7.56.73,7.4,1.75,11.77,4,20.65,1.22,4.73,4.08,16.09,4.08,16.09,3.12,1.49,11.85.37,14.74-2.59C170.67,348.93,166.89,303.12,164.67,297.17Z" style="fill:#92E3A9"></path><path d="M164.67,297.17c-2.22-5.94-22-15.35-28.78-19.12s-10.48-6.12-18.16-11.19l-16.32-11.09c-1.12,6.77-1.46,10.69.82,17.3l-21.65,8.69c1.19,8.73,3.56,13.11,6,15.77,3.69,4,7,6.47,16.91,11.86,8.2,4.46,16.58,9.64,18.83,11,2.56,1.56,3.19,3.09,2.89,6.48-1.17,13.42,3,27.81,4.84,38.67a14.93,14.93,0,0,0,13.82-1.45s1.65-48.89-.57-54.83a11.52,11.52,0,0,0-2.14-3.1c1.17.46,2.07.82,2.55,1.05,3,1.42,3.59,2.48,4.09,7.56.73,7.4,1.75,11.77,4,20.65,1.22,4.73,4.08,16.09,4.08,16.09,3.12,1.49,11.85.37,14.74-2.59C170.67,348.93,166.89,303.12,164.67,297.17Z" style="opacity:0.30000000000000004"></path><path d="M143.71,307.22c3,1.42,3.6,2.48,4.1,7.56a92.12,92.12,0,0,0,2.84,15.72c-.46-1.91-1.27-11.47-1.42-12.66-.66-5.48-.42-9.16-1.15-10.95s-7.77-5.3-7.77-5.3l-17.4-14.39c3.11-3.69,2.18-9.57,2.18-9.57-.72,7.36-5.67,9.86-5.67,9.86a228.66,228.66,0,0,1,21.89,18.74C142.42,306.66,143.25,307,143.71,307.22Z" style="opacity:0.2"></path><g id="freepik--Top--inject-105"><path d="M106.68,218.71c3.3-.42,7.87-.2,10.83,3,3.52,3.81,4.72,6.35,9.17,18,3,7.73,8.41,24.26,6.31,27.26s-9,1.81-9,1.81Z" style="fill:#f28f8f"></path><path d="M121.59,253.44c3.43.67,6.69,4.58,6.69,4.58s-.16-4.13-6.9-5.82Z" style="fill:#b16668;opacity:0.8"></path><path d="M105,218.61c5.91-1.46,10.49-.25,14.42,4.68,4.2,5.26,13.54,32.73,13.62,37.31,0,0-4.73-7.24-11.6-7.92S105,218.61,105,218.61Z" style="fill:#f0f0f0"></path><path d="M117.23,247.59c6.18-1.38,10.82.08,13,1.92s1.26,3.66,2,4.4,2.49,8.57,1,8.36L133,260.6s-4.89-6.4-11.6-7.92Z" style="fill:#e0e0e0"></path><path d="M130.1,254.09c-4.33-2.59-7.49-2.56-9-2.31l-.91-1C123.2,249.93,127.74,252,130.1,254.09Z" style="opacity:0.05"></path><path d="M131.77,252.47a2.42,2.42,0,0,0,.45,1.44c-2.31-2.27-5.71-4.35-9.28-4.54C122.94,249.37,126.2,248.5,131.77,252.47Z" style="opacity:0.05"></path><path d="M90.53,219.21c-3.76.7-11.4,4.46-14.32,5.37-2.43,1.44-4.95,6.22-4.47,9.9,1.64,12.65,1.55,16.44,4.86,32.08,2.73,12.91,4.74,19.54,4.74,19.54,11.13.66,33.16-5.39,43.49-14.62A320.75,320.75,0,0,0,118,236.11c-4-14.86-8.45-17.62-12.53-17.53Z" style="fill:#fafafa"></path><path d="M109.48,199.11q-.14-1-.33-2c-.12-.58-.18-1.1-.33-1.78L82.39,188.9c-3.52,2.2-3.8,7.64-.87,13a36.05,36.05,0,0,0,4.52,6.7c1.63,2.16,2.76,3.63,2.76,3.63l-.11-4.8-.25-2.89a17.7,17.7,0,0,0,10.15,2.64h.26a17.91,17.91,0,0,0,7.86-2.27,5,5,0,0,0,2.58-2.29A7.11,7.11,0,0,0,109.48,199.11Z" style="fill:#455a64"></path><path d="M117.05,188.18a2.77,2.77,0,0,0-2.58-2.06,5,5,0,0,0,1.87-3.81,7,7,0,0,0-.21-3,4.13,4.13,0,0,1-1.89.92,10.42,10.42,0,0,1-3.34.3,17.47,17.47,0,0,1-4.88-1.06,24.63,24.63,0,0,0-5.4-1.45,26.89,26.89,0,0,0-5-.19c-6.57.55-9,2.68-10.58,4.47a9.7,9.7,0,0,0-2.66,6.58c4.86,2.29,14.74,4.39,26.43,6.42a4.07,4.07,0,0,0,2.76.59,3,3,0,0,0,2.46-1.5,3.2,3.2,0,0,0,.26-2.37A3.06,3.06,0,0,0,117.05,188.18Z" style="fill:#263238"></path><path d="M88.41,202.16c-1,.25-1.73-1.49-2.68-2.39a3.24,3.24,0,0,0-5.24,1.45c-1.32,3.24.77,6.14,3.36,7.24a4.42,4.42,0,0,0,4.48-1.17l.29,14.9c3,3.4,8.76,1.53,14.37,2.93,1.43-4.35,1.14-2.26-.26-4.13l-.25-4.39a20.17,20.17,0,0,0,5.72-.07c3.28-.51,4.31-3,5-6.21,1.15-5.19.29-10.4-.49-16.84a15.7,15.7,0,0,0-2-6.16c-.38.94-1.17,2.94-6.58,4.38-4.47,1.2-11.28.48-13.2,0a12.17,12.17,0,0,1-.49,7.92C90.16,200.25,89.29,202.09,88.41,202.16Z" style="fill:#f28f8f"></path><path d="M105.12,210.77l-4.16-.9a2.09,2.09,0,0,1,2.49-1.7A2.22,2.22,0,0,1,105.12,210.77Z" style="fill:#b16668"></path><path d="M102.48,216.6s-6.63-.95-9-2a7.58,7.58,0,0,1-3.34-3,10.18,10.18,0,0,0,2,3.59c1.8,2.05,10.42,3.16,10.42,3.16Z" style="fill:#b16668"></path><path d="M107,194.76l3.17-1.86a1.76,1.76,0,0,1-.58,2.49A2,2,0,0,1,107,194.76Z" style="fill:#263238"></path><path d="M99.84,195.52l-3.62-.88a1.78,1.78,0,0,0,1.3,2.24A1.94,1.94,0,0,0,99.84,195.52Z" style="fill:#263238"></path><path d="M103.29,196.66l1.62,9.34,4.92-2A18.59,18.59,0,0,0,103.29,196.66Z" style="fill:#b16668"></path><path d="M108.3,199a1.57,1.57,0,0,0,1.45,1.63,1.48,1.48,0,0,0,1.61-1.39,1.59,1.59,0,0,0-1.45-1.64A1.48,1.48,0,0,0,108.3,199Z" style="fill:#263238"></path><path d="M97.17,199.8a1.57,1.57,0,0,0,1.45,1.64,1.47,1.47,0,0,0,1.61-1.39,1.58,1.58,0,0,0-1.45-1.64A1.47,1.47,0,0,0,97.17,199.8Z" style="fill:#263238"></path><path d="M105.46,227.36a5,5,0,0,0,.41-2.76l-1.93-1.33,0,2.4Z" style="fill:#92E3A9"></path><path d="M105.46,227.36a5,5,0,0,0,.41-2.76l-1.93-1.33,0,2.4Z" style="opacity:0.25"></path><polygon points="101.73 226 96.73 223.31 93.12 226.34 100.67 229.24 101.73 226" style="fill:#92E3A9"></polygon><polygon points="101.73 226 96.73 223.31 93.12 226.34 100.67 229.24 101.73 226" style="opacity:0.25"></polygon><path d="M102.62,231.35c.61,3.38,2,22,2.28,33.35.07,2.79,5.11,5.75,6.07,5.61s1.75-2.93,1.91-6c-.58-7.47-5.83-29.51-7.91-33.42Z" style="fill:#92E3A9"></path><path d="M105.13,231.19l-.16-.32-2.35.48.17,1A4.11,4.11,0,0,0,105.13,231.19Z" style="opacity:0.15"></path><path d="M101.73,226a10.1,10.1,0,0,1,2.24-.33,5.3,5.3,0,0,1,1.49,1.69,8.15,8.15,0,0,1-.49,3.51,2.84,2.84,0,0,1-2.35.48,5,5,0,0,1-2-2.11A4.48,4.48,0,0,1,101.73,226Z" style="fill:#92E3A9"></path><path d="M84.75,261l-1-16.6c-.37-13.31-4.67-18.09-6.42-19.23-4.31,1.21-7,1.59-7.8,13.06-.3,4.25-.25,6.34.43,14.26.53,6.25,1.48,12.65,2.68,19.93.86,5.25,3,6.11,8.64,6,4.72-.06,19.13-3.13,27.08-5.53,3.21-1,7.87-2.83,10.33-3.82,1.79-.72,8.69-3,7.89-6.28a3.33,3.33,0,0,0-1.7-2.05,6.37,6.37,0,0,0-2.4-.59,32.29,32.29,0,0,0-10.49.7c-2.54.6-5,1.33-7.55,1.75s-8.46-3-11-2.72C88.77,260.47,84.75,261,84.75,261Z" style="fill:#f28f8f"></path><path d="M78.68,268.18s-.36-4.68,6.07-7.19c0,0,4-.52,8.73-1.08,2.52-.29,8.49,3.14,11,2.72s5-1.15,7.55-1.75a32.29,32.29,0,0,1,10.49-.7,6.37,6.37,0,0,1,2.4.59,3.33,3.33,0,0,1,1.7,2.05c.8,3.25-6.1,5.56-7.89,6.28l-2.7,1.08c-6.06-1.11-28.2-8.45-31-7.61C81.81,263.51,79.3,265.7,78.68,268.18Z" style="fill:#b16668;opacity:0.8"></path><path d="M68.31,241.45c-.6-6-.38-8.47,1.07-11.59,1.14-2.44,4.1-4.6,9.26-6.19,5.5,7,5.52,18.42,5.52,18.42l.59,18.9c-4,2-8.38,6-11.9,13a21.67,21.67,0,0,1-1.11-4.81S69.27,251.05,68.31,241.45Z" style="fill:#f0f0f0"></path><path d="M87.83,261.18c6.4.87,29.51,9.05,40.87,7.77.43-.9,1.79-2,1.72-6.56-.07-4.73-5.9-8.69-8.83-8.95-31.22-1.39-36.88,6.44-36.88,6.44l0,1.11S86,261,87.83,261.18Z" style="fill:#f28f8f"></path><polygon points="84.71 259.88 84.75 260.99 86.03 261.04 85.68 259.4 84.71 259.88" style="fill:#b16668;opacity:0.8"></polygon><path d="M84.75,261a31.72,31.72,0,0,0-7.35,6.4A20.28,20.28,0,0,0,73.32,275l.58,1.14s-.5.64-1.19-.49-.62-2.52-1-3.08-1.4-2.29-1.13-3.53a8.91,8.91,0,0,0-.37-3.38c-.14-.89-.69-3.91,4.52-7.64s9.11-3.6,9.8-3.27c.44.63.29.86.4,1.74a5.27,5.27,0,0,1,.1,2.28C84.79,259.48,85.24,260,84.75,261Z" style="fill:#e0e0e0"></path><path d="M74,268.7s.25-2.8,4.41-6.45a14.24,14.24,0,0,1,6.7-3.6s0,.08,0,.12a2.26,2.26,0,0,0-.07,1C83.07,259.76,76.09,263.93,74,268.7Z" style="opacity:0.05"></path><path d="M70.42,266.57h0c4.61-6.52,9.08-7.41,9.08-7.41a17.3,17.3,0,0,0-8.83,9.2h0A7.31,7.31,0,0,0,70.42,266.57Z" style="opacity:0.05"></path><path d="M88.49,215.38l0,1.81c.22.94,2.73,2.08,7.47,4.06s6.74,4.16,6.74,4.16a12.07,12.07,0,0,0-3.69.79c-2.12.82-5.59,3.61-6.6,3.61s-2.57-2.49-5.29-5.2c-2.29-2.28-2.67-3.38-2.67-3.38C86.16,219.31,86.9,215.23,88.49,215.38Z" style="fill:#e6e6e6"></path><path d="M102.76,225.33c2.95-.27,4.89,2.15,5.29,1.52s-2-7.6-5.46-8.79Z" style="fill:#e6e6e6"></path></g></g><polygon points="39.7 281.96 52.51 274.56 110.19 307.86 97.37 315.25 39.7 281.96" style="fill:#92E3A9"></polygon><g style="opacity:0.30000000000000004"><polygon points="39.7 281.96 52.51 274.56 110.19 307.86 97.37 315.25 39.7 281.96" style="fill:#fff"></polygon></g><polygon points="97.37 315.25 97.37 374.45 110.19 367.05 110.19 307.86 97.37 315.25" style="fill:#92E3A9"></polygon><path d="M39.69,282v59.19l57.68,33.3V315.26Zm52.94,84.29L44.42,338.42V290.16L92.63,318Z" style="fill:#92E3A9"></path><path d="M39.69,282v59.19l57.68,33.3V315.26Zm52.94,84.29L44.42,338.42V290.16L92.63,318Z" style="opacity:0.2"></path><polygon points="57.24 331.01 44.42 338.42 92.63 366.25 92.63 351.44 57.24 331.01" style="fill:#92E3A9"></polygon><polygon points="57.24 331.01 44.42 338.42 92.63 366.25 92.63 351.44 57.24 331.01" style="opacity:0.30000000000000004"></polygon><polygon points="57.24 331.01 57.24 297.56 44.42 290.16 44.42 338.42 57.24 331.01" style="fill:#92E3A9"></polygon><polygon points="57.24 331.01 57.24 297.56 44.42 290.16 44.42 338.42 57.24 331.01" style="opacity:0.4"></polygon><g id="freepik--character--inject-105"><g id="freepik--bottom--inject-105"><path d="M201.61,301.29c-.73.69-1.55,1.49-1.51,2.41a9.28,9.28,0,0,0,2.23,5.27c1.81,2.15,2.88,6.14,3.11,8.82s.17,9.51,3.43,12.34,11.42,4.55,11.64-.41-8.7-24.51-8.7-24.51Z" style="fill:#263238"></path><path d="M206,304.69a74.14,74.14,0,0,1,2.83,10.82c.66,4,1.71,6.88,3.69,8.05s5,1.11,4-1.65-4.73-16.7-4.73-16.7Z" style="fill:#9a4a4d"></path><path d="M219.18,330c-.68.41-.67,2.06-.66,3.26s-.93,2.75.74,4.69,4.61,2.24,6.88,4.88,5.72,7.5,12.27,8.14,11.18-2,12.16-4.07-.29-3.72-4.65-5.6c-4.62-2-5.93-2.58-5.93-2.58Z" style="fill:#263238"></path><path d="M224.58,316.1s4.06,8.2,6.38,11.91a45.11,45.11,0,0,0,9.39,10.2c.8.67,2.57,1.88,3.23,2.42a1.24,1.24,0,0,1,.17,1.91c-1.17,1.54-7,2.79-10.66.86s-7.65-6.11-9.93-7.78c-1.14-.83-2.21-1.63-3-2.22A2.7,2.7,0,0,1,219.1,331c0-.26.06-.58.08-.94.15-2-3.59-9.34-3.59-9.34Z" style="fill:#b16668"></path><path d="M219.12,299.78c.83-5,2.17-13.16,3-18.53,1.23-8.19,2-16.72.56-20.39-1.41-3.46-8.69-7.93-16.34-12.5s-23.47-12.7-23.47-12.7l-37.94,7.49c.68,7.59,0,9.48,3.52,15.69,3.43,6,12.77,11,22.53,14.8,8.08,3.13,20,7.61,22.33,8.24s2.81,1.92,3.17,6.19,2.92,10.93,9,18.81a205.27,205.27,0,0,1,12.21,18.23s6.7.31,9.46-4C227.11,321.07,223.36,311,219.12,299.78Z" style="fill:#92E3A9"></path><g style="opacity:0.30000000000000004"><path d="M219.12,299.78c.83-5,2.17-13.16,3-18.53,1.23-8.19,2-16.72.56-20.39-1.41-3.46-8.69-7.93-16.34-12.5s-23.47-12.7-23.47-12.7l-37.94,7.49c.68,7.59,0,9.48,3.52,15.69,3.43,6,12.77,11,22.53,14.8,8.08,3.13,20,7.61,22.33,8.24s2.81,1.92,3.17,6.19,2.92,10.93,9,18.81a205.27,205.27,0,0,1,12.21,18.23s6.7.31,9.46-4C227.11,321.07,223.36,311,219.12,299.78Z" style="fill:#fff"></path></g><path d="M219.13,299.79c-4.69-12.34-10-26-11.41-28.72-2.66-5.05-24.87-18.82-26.25-19.68l-.05,0h0l1-1.53c1.44-2.29,2.69-4.84,2.69-4.84a17,17,0,0,1-1.47,5.62c3.51,2.25,12.46,8,16,10.46,4.51,3.09,9.3,6.82,11.33,12.2C213,278.47,218.77,298.55,219.13,299.79Z" style="opacity:0.2"></path></g><g id="freepik--top--inject-105"><path d="M221.37,176.56c0-.62-.42-.77-.92-.75a3.57,3.57,0,0,0-2,.81,23.57,23.57,0,0,0-2.42,2.57c-1.24,1.29-3.23,3.39-5,3.86-.36.1-1.13.19-.79-.4a15.71,15.71,0,0,0,1.27-2.35,3.18,3.18,0,0,0,0-2.6,1.07,1.07,0,0,0-.56-.55c-.36-.12-.52.08-.69.32a7.22,7.22,0,0,1-.63.72c-.45.48-.9,1-1.34,1.45-2.57,2.85-5.05,6-5.89,9.84-.13.56-.59,4.78-1,7.2-.26,2.17-2.47,15.81-2.47,15.81s-11.48-11.33-16-15.8c-2.67-2.65-6.19-5.08-8.54-5.53a14.74,14.74,0,0,0-5.41-.23l8.46,21s13,10.5,19.41,15c5.83,4.07,9.14,2,10.11.38,1.59-2.74,3-3.94,3.22-20.3,0-1.51,0-3,0-4.53a31.94,31.94,0,0,1,.47-5.81c.42-1.93,1.92-2.53,2.89-3.2a18,18,0,0,0,3.66-3.2,16.38,16.38,0,0,0,2.51-3.45,5,5,0,0,0,.78-1.91,13.76,13.76,0,0,1-.2-1.71,17.47,17.47,0,0,0,.45-2,6.4,6.4,0,0,0-.37-1.54,2.65,2.65,0,0,1,.52-2.13A2.49,2.49,0,0,0,221.37,176.56Z" style="fill:#b16668"></path><path d="M198.91,212.49a30.83,30.83,0,0,0-.77,9.07s-2.23-5.66-.75-10.57Z" style="fill:#9a4a4d"></path><path d="M209.6,185.26a11.76,11.76,0,0,1-2.34,6.11,6.93,6.93,0,0,0,2.23-2.75A3.93,3.93,0,0,0,209.6,185.26Z" style="fill:#9a4a4d"></path><path d="M144.44,195.2s5.1,5.71,4,15.63c-.77,7-3.11,8.13-6.68,10.12,0,11.63,3.15,29.75,3.15,29.75a43.12,43.12,0,0,0,27.66-1.13c13.47-5.2,14.51-11.71,14.51-11.71L180.4,229l-1.57-10s4.94-7.58,2.39-13.87A29.35,29.35,0,0,0,169,190.93a79.51,79.51,0,0,0-8.28.21c-3.78.35-8.67.72-8.67.72Z" style="fill:#fafafa"></path><path d="M173.69,181.31c.67,1.49,2.84,2.19,3.91.72a2.7,2.7,0,0,1-3.14,3c-.06,1.95-2.25,5.12-7.85,5.45-6.7.4-9.43-3.18-9.67-3.7a31.5,31.5,0,0,1-3,3.22,7.89,7.89,0,0,1-3.12,1.37,8.31,8.31,0,0,1-3.51,0,6.9,6.9,0,0,1-3.19-1.83,3.58,3.58,0,0,1-.84-2,2.52,2.52,0,0,0-.41,2.78,4,4,0,0,1-2.6-2.18,6.51,6.51,0,0,1,.13-4.31,6.68,6.68,0,0,0,.66-3.37,11.67,11.67,0,0,0-.79-3,17.39,17.39,0,0,1-1.48-11.31,12.17,12.17,0,0,1,4.72-7.8,6.07,6.07,0,0,1,2.41-1.24,9.78,9.78,0,0,1,7.13-6.73c6.09-1.69,14-1.4,19,2.89,2.78,2.38,6,6.66,5.73,10.52a4.75,4.75,0,0,0-1.81-1.23,7.41,7.41,0,0,1,.22,4.83,7.94,7.94,0,0,1-1.32,2.59,14,14,0,0,0-.81,1.2A11.6,11.6,0,0,0,173.69,181.31Z" style="fill:#263238"></path><path d="M170.35,159.19c2,2,4.15,4.06,4.37,15.28.18,9.5-2.36,12.09-3.88,12.83s-4.51.46-7.43.1l.31,4.13c1.13.7,5,3.09,4.43,5.13-.65,2.51-6.38,1.76-10.53.28-4.8-1.72-6.43-4-6.43-4L150.31,181a3.86,3.86,0,0,1-4.8-.82c-2.25-2.24-3.07-5.4-1.29-7.37a4,4,0,0,1,3.79-1.15,3.44,3.44,0,0,1,1.5.94,12.24,12.24,0,0,1,1.29,1.74c.25.37.74,1,1.25,1s.75-.79.9-1.19a10.92,10.92,0,0,1,2.91-4.3,13.14,13.14,0,0,1,4.51-2.49,22.14,22.14,0,0,0,6.38-3.31,11.21,11.21,0,0,0,2-2.1A24.92,24.92,0,0,0,170.35,159.19Z" style="fill:#b16668"></path><path d="M163.41,187.4c-4.7-1-7.8-1.47-9.53-4.65a6,6,0,0,0,2.05,3.64c2.92,2.23,7.6,2.57,7.6,2.57Z" style="fill:#9a4a4d"></path><path d="M164,172.56c.27.63-.18,1-.78,1.24s-1.14.34-1.41-.29a1.21,1.21,0,0,1,.59-1.61A1.23,1.23,0,0,1,164,172.56Z" style="fill:#263238"></path><path d="M172.82,172.24c-.15.67-.72.68-1.36.54s-1.12-.39-1-1.06a1.19,1.19,0,1,1,2.33.52Z" style="fill:#263238"></path><path d="M170.51,167.35l2.54,1.48a1.25,1.25,0,0,1-1.87.4A1.39,1.39,0,0,1,170.51,167.35Z" style="fill:#263238"></path><path d="M160.43,170l2.26-1.88a1.3,1.3,0,0,1-.26,1.93A1.39,1.39,0,0,1,160.43,170Z" style="fill:#263238"></path><polygon points="166.61 171.34 167.68 178.47 171.29 177.31 166.61 171.34" style="fill:#9a4a4d"></polygon><path d="M166,180c-1.35-.11-2.77.89-2.62,1.66.11.56.65.71,1.4.59a2.73,2.73,0,0,1,2,.29.84.84,0,0,0,1.26-.85A2,2,0,0,0,166,180Z" style="fill:#9a4a4d"></path><path d="M164.21,180.94a1.51,1.51,0,0,0-.78.29.77.77,0,0,0-.05.39c.11.56.65.71,1.4.59a3.11,3.11,0,0,1,1,0A1.47,1.47,0,0,0,164.21,180.94Z" style="fill:#f28f8f"></path><path d="M144.44,195.2c-5.62,2.16-10,4.66-9.16,13.46s8.15,30,9.57,32.77c2.26,4.52,5.18,7.35,8.12,7.95a6.29,6.29,0,0,0,4.92-1.25c6-4.35,12.11-16.93,14.39-22.14a38.32,38.32,0,0,0,3-9.42c.47-2.8.57-6.12-1.38-8.39-.91-1.06-1.61-2.49-3.14-2.76-.59-.1-.74,0-1.19-.51s-1-1-1.43-1.49-.82-.77-1.31-.64a1,1,0,0,0-.66.72,3.1,3.1,0,0,0,0,1,51.67,51.67,0,0,1,.24,5.83,8.66,8.66,0,0,1-.71,3.59c-.11.21-.24.44-.47.5a.57.57,0,0,1-.47-.11,1.21,1.21,0,0,1-.33-.38c-.39-.63-.69-1.31-1-2A4.78,4.78,0,0,0,161.5,210a1.79,1.79,0,0,0-.95-.26.9.9,0,0,0-.79.52,1.59,1.59,0,0,0,.27,1.26c1,2,.92,4.29,1.43,6.41.23,1,.62,2,.91,3,.38,1.22-.31,3.12-1,4.32a31.29,31.29,0,0,1-5.53,7.07l-4.78-16.87s1.49-8.79-1.94-15.38C146.87,195.76,144.44,195.2,144.44,195.2Z" style="fill:#b16668"></path><path d="M155.84,232.34c-2.87,1.39-5.28,4.13-5.74,5.69,0,0-.43-4.86,5.2-7.58Z" style="fill:#9a4a4d"></path></g></g></g><g id="freepik--Handbag--inject-105"><g id="freepik--handbag--inject-105"><path id="freepik--shadow--inject-105" d="M243.52,326l18.74-10.71c2-1.17,2-3.07,0-4.25l-5.75-3.32a8.14,8.14,0,0,0-7.38,0L230.5,318.47c-2,1.18-2,3.08,0,4.26l5.63,3.25A8.19,8.19,0,0,0,243.52,326Z" style="fill:#e0e0e0"></path></g><g id="freepik--Bag--inject-105"><path d="M257,279.73c-.85-3.72-2.31-5.7-4.12-6.66a3.45,3.45,0,0,0-4,.47c3.08-.62,5.74,3.92,6.22,9.26.15,1.66.3,5.26.3,5.26l2.89,1.66A53.14,53.14,0,0,0,257,279.73Z" style="fill:#92E3A9"></path><path d="M257,279.73c-.85-3.72-2.31-5.7-4.12-6.66a3.45,3.45,0,0,0-4,.47c3.08-.62,5.74,3.92,6.22,9.26.15,1.66.3,5.26.3,5.26l2.89,1.66A53.14,53.14,0,0,0,257,279.73Z" style="opacity:0.5"></path><path d="M258.44,290.64l-.11-.92-.1.06v-.06l-2.88-1.66c-.38,1.07-.82,2.52-1.29,4.15l-15.89,9.16,3.06,23.16,20-11.61h0a1.8,1.8,0,0,0,.83-1C262.89,309.49,259.38,294.52,258.44,290.64Z" style="fill:#92E3A9"></path><path d="M258.44,290.64l-.11-.92-.1.06v-.06l-2.88-1.66c-.38,1.07-.82,2.52-1.29,4.15l-15.89,9.16,3.06,23.16,20-11.61h0a1.8,1.8,0,0,0,.83-1C262.89,309.49,259.38,294.52,258.44,290.64Z" style="opacity:0.2"></path><polygon points="258.33 289.72 238.16 301.37 235.28 299.7 255.45 288.06 258.33 289.72" style="fill:#92E3A9"></polygon><path d="M239.33,306.36s-.12.53,1.84.95,10.11.32,11.19-.32,3.95-4.17,5.26-6.56a31.42,31.42,0,0,0,2-4.54Z" style="opacity:0.2"></path><path d="M235.28,299.7c-1.68,4.85-4.88,17.31-4.4,19.17s2.94,3.28,4.4,4.12,5.73,3.31,6.7.55-3.82-22.17-3.82-22.17Z" style="fill:#92E3A9"></path><path d="M235.28,299.7c-1.68,4.85-4.88,17.31-4.4,19.17s2.94,3.28,4.4,4.12,5.73,3.31,6.7.55-3.82-22.17-3.82-22.17Z" style="opacity:0.30000000000000004"></path><path d="M238.16,301.37c0,.28.43,3.83,1.17,5s10.64.47,12.34,0,7.77-9.12,8-10.47-1.33-6.17-1.33-6.17Z" style="fill:#92E3A9"></path><path d="M238.16,301.37c0,.28.43,3.83,1.17,5s10.64.47,12.34,0,7.77-9.12,8-10.47-1.33-6.17-1.33-6.17Z" style="opacity:0.05"></path><path d="M251.29,304.56c.05.43.37.57.72.31a1.49,1.49,0,0,0,.55-1.25c-.05-.43-.37-.57-.72-.31A1.51,1.51,0,0,0,251.29,304.56Z" style="fill:#37474f"></path><path d="M248.56,271.16C238,273,235.28,299.7,235.28,299.7l2.88,1.67c.52-15.79,6.27-25.63,10.06-27.52,5.23-2.62,8.51,2.74,9.27,8.11C256.2,274.23,254.25,270.39,248.56,271.16Z" style="fill:#92E3A9"></path><path d="M248.56,271.16C238,273,235.28,299.7,235.28,299.7l2.88,1.67c.52-15.79,6.27-25.63,10.06-27.52,5.23-2.62,8.51,2.74,9.27,8.11C256.2,274.23,254.25,270.39,248.56,271.16Z" style="opacity:0.30000000000000004"></path></g></g><g id="freepik--Bolt--inject-105"><polygon points="55.84 179.47 65.91 181.95 65.78 185.27 71.56 184.41 71.12 187.32 78.14 187.63 67.4 191.04 68 187.83 60.82 190.04 61.17 185.44 54.5 187.09 55.84 179.47" style="fill:#92E3A9"></polygon><polygon points="55.84 179.47 65.91 181.95 65.78 185.27 71.56 184.41 71.12 187.32 78.14 187.63 67.4 191.04 68 187.83 60.82 190.04 61.17 185.44 54.5 187.09 55.84 179.47" style="fill:#fff;opacity:0.30000000000000004"></polygon><polygon points="76.78 176.98 74.96 180.06 79.78 185.17 71.06 180.83 72.35 178.25 65.66 174.85 69.63 170.53 76.78 176.98" style="fill:#92E3A9"></polygon><polygon points="76.78 176.98 74.96 180.06 79.78 185.17 71.06 180.83 72.35 178.25 65.66 174.85 69.63 170.53 76.78 176.98" style="fill:#fff;opacity:0.30000000000000004"></polygon><polygon points="66.16 193.37 68.94 195.61 77.88 190.74 69.53 199.83 66.93 197.86 61.77 203.16 58.72 197.81 66.16 193.37" style="fill:#92E3A9"></polygon><polygon points="66.16 193.37 68.94 195.61 77.88 190.74 69.53 199.83 66.93 197.86 61.77 203.16 58.72 197.81 66.16 193.37" style="fill:#fff;opacity:0.30000000000000004"></polygon></g><g id="freepik--broken-heart--inject-105"><path d="M215.35,143h0l0,0a8.05,8.05,0,0,0-6.05-2.66c-3.09,0-5.76,2.57-7.11,5.52a25.76,25.76,0,0,1-2,3.65L198.52,152l5.77,4-4.46,3.62,2.32,4.13-3.63-4L201,156l-4.94-3.42,3.72-7.85c-1.49-2.42-3.88-4.31-6.55-4.28a8.07,8.07,0,0,0-6,2.74l0,0h0a8.17,8.17,0,0,0-2,5.38c0,11.86,16.13,19.67,16.13,19.67s16.13-7.81,16.13-19.89A8,8,0,0,0,215.35,143Z" style="fill:#92E3A9"></path><path d="M191.77,160.47a6,6,0,0,1-5.94,5.13c2,1.88,8.82,2,11.13-1.34Z" style="fill:#92E3A9"></path></g></g><g id="freepik--Plant--inject-105"><g id="freepik--pot--inject-105"><g id="freepik--pot--inject-105"><g id="freepik--pot--inject-105"><path d="M460.19,370.45c6.21-6.4,9.85-32.45,3.8-37.53H433.2C427.15,338,430.79,364,437,370.45l.17.17.21.22c.18.17.36.34.56.5l.15.12c.15.12.3.24.47.36a7.68,7.68,0,0,0,.8.51c5.1,3,13.38,3,18.48,0h0a7,7,0,0,0,.81-.52l.44-.33.18-.15.54-.48.25-.25A1,1,0,0,0,460.19,370.45Z" style="fill:#455a64"></path><path d="M435.87,330.87c-7,4.11-7,10.76,0,14.86s18.42,4.1,25.44,0,7-10.75,0-14.86S442.9,326.77,435.87,330.87Z" style="fill:#37474f"></path><path d="M439.25,332.85c-5.16,3-5.16,7.89,0,10.91s13.52,3,18.68,0,5.16-7.9,0-10.91S444.41,329.83,439.25,332.85Z" style="fill:#263238"></path><path d="M457.93,338c-5.16-3-13.52-3-18.68,0a8.65,8.65,0,0,0-3.09,2.87,8.65,8.65,0,0,0,3.09,2.87c5.16,3,13.52,3,18.68,0a8.49,8.49,0,0,0,3.09-2.87A8.49,8.49,0,0,0,457.93,338Z" style="fill:#fafafa"></path></g></g><g id="freepik--Plants--inject-105"><path d="M462.41,284.49l-11.69,9.27L462,288.54a31.34,31.34,0,0,1-2,10.71,69.37,69.37,0,0,0-8.81,6.24l8.67-3.42s.59,5.71-1.78,14.42c-.62,2.29-3.19,6.64-4.81,9.9a36,36,0,0,1-2.52,4.35c-.05.09-.11.17-.17.26q-3-1.69-6.18-3.29c-1.39-2.94-3.21-10.17-3.87-16.1-2.49-22.69,14.67-35.7,28.46-40.06A41.22,41.22,0,0,0,462.41,284.49Z" style="fill:#92E3A9"></path><path d="M462.41,284.49l-11.69,9.27L462,288.54a31.34,31.34,0,0,1-2,10.71,69.37,69.37,0,0,0-8.81,6.24l8.67-3.42s.59,5.71-1.78,14.42c-.62,2.29-3.19,6.64-4.81,9.9a36,36,0,0,1-2.52,4.35c-.05.09-.11.17-.17.26q-3-1.69-6.18-3.29c-1.39-2.94-3.21-10.17-3.87-16.1-2.49-22.69,14.67-35.7,28.46-40.06A41.22,41.22,0,0,0,462.41,284.49Z" style="fill:#fff;opacity:0.5"></path><path d="M452.64,285.43a22.1,22.1,0,0,0-4.86,8.72,45.79,45.79,0,0,0-2.07,9.82,42.54,42.54,0,0,0,2.47,19.7h0a.33.33,0,0,1-.62.24h0a43,43,0,0,1-2.19-20,46,46,0,0,1,2.25-9.83A22.14,22.14,0,0,1,452.64,285.43Z" style="fill:#fafafa"></path><path d="M411.8,296.38l0,0A176.73,176.73,0,0,1,424,313.57l11.86,1.91L427.15,317l4.7,7.44,11.68,2.41-9.12,1.49s2.53,8.89,9.06,12.6c3.6,2.05,5.36,2.36,6.44,1.34.76-.72.93-5,1.56-8.8s.69-10-2.91-17.48a23.2,23.2,0,0,0-3.74-5.49C436.19,300.9,419.87,296.27,411.8,296.38Z" style="fill:#92E3A9"></path><path d="M411.8,296.38l0,0A176.73,176.73,0,0,1,424,313.57l11.86,1.91L427.15,317l4.7,7.44,11.68,2.41-9.12,1.49s2.53,8.89,9.06,12.6c3.6,2.05,5.36,2.36,6.44,1.34.76-.72.93-5,1.56-8.8s.69-10-2.91-17.48a23.2,23.2,0,0,0-3.74-5.49C436.19,300.9,419.87,296.27,411.8,296.38Z" style="fill:#fff;opacity:0.65"></path><path d="M424.21,300.27a48.4,48.4,0,0,1,16.51,11.39,32.81,32.81,0,0,1,5.65,8.39A31.08,31.08,0,0,1,449,329.8s0,0,0,0,0,0,0,0a39,39,0,0,0-3.11-9.48,36.52,36.52,0,0,0-5.45-8.32,49.27,49.27,0,0,0-16.13-11.68,0,0,0,0,1,0-.05S424.2,300.26,424.21,300.27Z" style="fill:#fafafa"></path><path d="M482.49,301.28h0a24.74,24.74,0,0,0-3,.14,47.44,47.44,0,0,0-11.42,2.78c-1.36.51-2.73,1.08-4.08,1.72-.67.33-1.34.66-2,1a33,33,0,0,0-8.75,6.62,20.36,20.36,0,0,0-3,4.23c-.11.2-.23.39-.32.59h0c-.25.53-.48,1-.7,1.54A28.6,28.6,0,0,0,446.65,334c.12,3.4,1.28,7.29,1.94,7.93a1.29,1.29,0,0,0,.3.22c1,.62,2.51.26,5.4-1.35,5.78-3.24,8-11.43,8-11.43l-8-1.36,10.32-2.06,4.19-6.54L461.1,318l10.48-1.61a153.61,153.61,0,0,1,10.89-15.07l0,0Z" style="fill:#92E3A9"></path><path d="M482.49,301.28h0a24.74,24.74,0,0,0-3,.14,47.44,47.44,0,0,0-11.42,2.78c-1.36.51-2.73,1.08-4.08,1.72-.67.33-1.34.66-2,1a33,33,0,0,0-8.75,6.62,20.36,20.36,0,0,0-3,4.23c-.11.2-.23.39-.32.59h0c-.25.53-.48,1-.7,1.54A28.6,28.6,0,0,0,446.65,334c.12,3.4,1.28,7.29,1.94,7.93a1.29,1.29,0,0,0,.3.22c1,.62,2.51.26,5.4-1.35,5.78-3.24,8-11.43,8-11.43l-8-1.36,10.32-2.06,4.19-6.54L461.1,318l10.48-1.61a153.61,153.61,0,0,1,10.89-15.07l0,0Z" style="fill:#fff;opacity:0.65"></path><path d="M479.5,301.42a47.44,47.44,0,0,0-11.42,2.78c-1.36.51-2.73,1.08-4.08,1.72-.67.33-1.34.66-2,1a33,33,0,0,0-8.75,6.62,20.36,20.36,0,0,0-3,4.23c-.11.2-.23.39-.32.59h0c-.25.53-.48,1-.7,1.54A28.6,28.6,0,0,0,446.65,334c.12,3.4,1.28,7.29,1.94,7.93a1.29,1.29,0,0,0,.3.22,1.84,1.84,0,0,0,.63.24c-.71-5.28,1.89-18.67,5.82-24.17,4.09-5.73,13.79-14,27.13-16.9v0A24.27,24.27,0,0,0,479.5,301.42Z" style="fill:#92E3A9;opacity:0.30000000000000004"></path><path d="M449.49,342.37a45.35,45.35,0,0,1,.76-11.68,37.79,37.79,0,0,1,3.87-11.07,32.93,32.93,0,0,1,7.84-8.75,43.6,43.6,0,0,1,10.06-6s0,0,0,0,0,0,0,0a57.48,57.48,0,0,0-9.67,6.48,40.73,40.73,0,0,0-4.25,3.95,25.17,25.17,0,0,0-3.55,4.56,37.21,37.21,0,0,0-4,10.87,45.2,45.2,0,0,0-1,11.6s0,0,0,0S449.49,342.39,449.49,342.37Z" style="fill:#fafafa"></path></g></g></g><g id="freepik--Table--inject-105"><g id="freepik--table--inject-105"><g id="freepik--table--inject-105"><path id="freepik--shadow--inject-105" d="M198.76,378.08c-28.29,16.34-28.29,42.83,0,59.16s74.18,16.34,102.48,0,28.29-42.82,0-59.16S227.06,361.74,198.76,378.08Z" style="opacity:0.05"></path><g id="freepik--table--inject-105"><path d="M186.87,390a2,2,0,0,1,1.18-1.65,6.33,6.33,0,0,1,5.72,0A2,2,0,0,1,195,390l-1.18,29.8h0a1.43,1.43,0,0,1-.83,1.14,4.49,4.49,0,0,1-4,0,1.43,1.43,0,0,1-.83-1.14h0Z" style="fill:#455a64"></path><path d="M193.77,388.33a6.33,6.33,0,0,0-5.72,0,2,2,0,0,0-1.18,1.65l.39,9.89a43.68,43.68,0,0,0,7.07,5.78L195,390A2,2,0,0,0,193.77,388.33Z" style="fill:#263238"></path><path d="M312.44,390a2,2,0,0,0-1.18-1.65,6.33,6.33,0,0,0-5.72,0,2,2,0,0,0-1.18,1.65l1.18,29.8h0a1.46,1.46,0,0,0,.84,1.14,4.49,4.49,0,0,0,4,0,1.45,1.45,0,0,0,.83-1.14h0Z" style="fill:#455a64"></path><path d="M311.26,388.33a6.33,6.33,0,0,0-5.72,0,2,2,0,0,0-1.18,1.65l.63,16a45.28,45.28,0,0,0,7-5.5l.42-10.49A2,2,0,0,0,311.26,388.33Z" style="fill:#263238"></path><path d="M254,412.34a2,2,0,0,0-1.18-1.65,6.33,6.33,0,0,0-5.72,0,2,2,0,0,0-1.18,1.65l1.18,29.8h0a1.43,1.43,0,0,0,.83,1.14,4.49,4.49,0,0,0,4,0,1.43,1.43,0,0,0,.83-1.14h0Z" style="fill:#455a64"></path><path d="M253.67,421.72l.37-9.38a2,2,0,0,0-1.18-1.65,6.33,6.33,0,0,0-5.72,0,2,2,0,0,0-1.18,1.65l.37,9.38C248.71,421.8,251.29,421.8,253.67,421.72Z" style="fill:#263238"></path><path d="M322.46,368.88h-.07c0-10.7-7-21.41-21.15-29.58-28.3-16.34-74.18-16.34-102.48,0-14.15,8.17-21.16,18.88-21.15,29.58h-.07v5.75h0c.17,10.57,7.26,21.1,21.22,29.16,28.3,16.34,74.18,16.34,102.48,0,14-8.06,21.05-18.59,21.22-29.16h0Z" style="fill:#92E3A9"></path><path d="M322.46,368.88h-.07c0-10.7-7-21.41-21.15-29.58-28.3-16.34-74.18-16.34-102.48,0-14.15,8.17-21.16,18.88-21.15,29.58h-.07v5.75h0c.17,10.57,7.26,21.1,21.22,29.16,28.3,16.34,74.18,16.34,102.48,0,14-8.06,21.05-18.59,21.22-29.16h0Z" style="fill:#fff;opacity:0.35000000000000003"></path><path d="M198.76,339.3c-28.29,16.34-28.29,42.83,0,59.16s74.18,16.34,102.48,0,28.29-42.82,0-59.16S227.06,323,198.76,339.3Z" style="fill:#92E3A9"></path><path d="M198.76,339.3c-28.29,16.34-28.29,42.83,0,59.16s74.18,16.34,102.48,0,28.29-42.82,0-59.16S227.06,323,198.76,339.3Z" style="fill:#fff;opacity:0.85"></path></g></g><g id="freepik--books--inject-105"><path id="freepik--shadow--inject-105" d="M278.88,386.17,255.74,372.8a.65.65,0,0,1,0-1.24L288,352.93a2.41,2.41,0,0,1,2.16,0L313.3,366.3a.66.66,0,0,1,0,1.24L281,386.17A2.41,2.41,0,0,1,278.88,386.17Z" style="opacity:0.30000000000000004"></path><g id="freepik--Book--inject-105"><path d="M257.52,372.25l.88-.47-.8-.19A.58.58,0,0,0,257.52,372.25Z" style="fill:#92E3A9"></path><path d="M257.52,372.25l.88-.47-.8-.19A.58.58,0,0,0,257.52,372.25Z" style="opacity:0.5"></path><path d="M280.84,384a2,2,0,0,1-1.79,0L259,372.39,289,355.3l.7-.41,20.1,11.32a.55.55,0,0,1,0,1Z" style="fill:#92E3A9"></path><path d="M273.29,362.35l-7,4-4.53-2.62-5.28,3.05v3.52c0,.46.52,1.12.7,1a4.65,4.65,0,0,1,1,.36,7.34,7.34,0,0,1,1.46,1.08l16.11-9Z" style="fill:#92E3A9"></path><path d="M273.29,362.35l-7,4-4.53-2.62-5.28,3.05v3.52c0,.46.52,1.12.7,1a4.65,4.65,0,0,1,1,.36,7.34,7.34,0,0,1,1.46,1.08l16.11-9Z" style="opacity:0.15"></path><path d="M259.36,367.24v3.83l-.06,0a1.72,1.72,0,0,0-.86-.27.92.92,0,0,0-.56.13v-4.51Z" style="fill:#37474f"></path><path d="M260.35,372.38a1.17,1.17,0,0,0-.25-.65,2.26,2.26,0,0,0-.25-.29.6.6,0,0,1-.08-.08l-.11-.09-.1-.07a1.37,1.37,0,0,0-.2-.13v-3.81l1,.57v4.55Z" style="fill:#e0e0e0"></path><path d="M256.47,370.34c0,.46.52,1.12.7,1h0l.71-.46V368l-.71-1.22-.38-.14-.32.19Z" style="opacity:0.4"></path><path d="M280,379.12v4.37a1.27,1.27,0,0,1-.6-.14l-2.21-1.28-16.79-9.69v-4.57Z" style="fill:#ebebeb"></path><path d="M309.34,362.74V366a1.3,1.3,0,0,1-.6,1l-26,15-2.2,1.28a1.25,1.25,0,0,1-.59.14v-3.87Z" style="fill:#f5f5f5"></path><path d="M289,349.63,259,367v.41c0,.22-.31.3-.7.08s-.7-.5-.7-.89l0-.38,30.66-17.7.12-.07a.41.41,0,0,1,0,.18v.19C288.34,349,288.65,349.4,289,349.63Z" style="fill:#92E3A9"></path><path d="M289,349.63,259,367v.41c0,.22-.31.3-.7.08s-.7-.5-.7-.89l0-.38,30.66-17.7.12-.07a.41.41,0,0,1,0,.18v.19C288.34,349,288.65,349.4,289,349.63Z" style="opacity:0.05"></path><path d="M279.05,378.61,259.4,367.26c-.25-.13-.48-.24-.58-.19L259,367,289,349.63l.35-.2a1.11,1.11,0,0,1,.95.14l19.5,11.26a.54.54,0,0,1,0,1l-29,16.75A2,2,0,0,1,279.05,378.61Z" style="fill:#92E3A9"></path><path d="M288.29,348.45l-.12.07-30.66,17.7a.25.25,0,0,0-.07-.09l-.1-.05-.22-.13-.27-.16a.28.28,0,0,0-.35,0l0,0a.64.64,0,0,0-.1.13.89.89,0,0,0-.08.17l-.06.2a1.72,1.72,0,0,0,0,.24.59.59,0,0,0,0,.14s0,.07,0,.11a2.44,2.44,0,0,0,0,.27v-.86a1.83,1.83,0,0,1,.9-1.38l29-16.75a1.81,1.81,0,0,1,1.59-.11l.37.21h0l.16.09h0A.36.36,0,0,1,288.29,348.45Z" style="fill:#92E3A9"></path><path d="M279.05,384l-1.21-.7-18.2-10.51a1.2,1.2,0,0,0-.25-.65,2.75,2.75,0,0,0-.79-.7,1.89,1.89,0,0,0-.86-.26.9.9,0,0,0-.57.18,3.24,3.24,0,0,1-.33-1.5h-.69a2.79,2.79,0,0,0,.7,2.12l.35.2c.19.12.35.13.35,0V372c0-.2.31-.19.7,0s.7.57.7.78V373c0,.11.27.35.6.54l17.59,10.16,1.91,1.1h0a1.87,1.87,0,0,0,.9.21v-.79A1.77,1.77,0,0,1,279.05,384Z" style="fill:#92E3A9"></path><path d="M279.05,384l-1.21-.7-18.2-10.51a1.2,1.2,0,0,0-.25-.65,2.75,2.75,0,0,0-.79-.7,1.89,1.89,0,0,0-.86-.26.9.9,0,0,0-.57.18,3.24,3.24,0,0,1-.33-1.5h-.69a2.79,2.79,0,0,0,.7,2.12l.35.2c.19.12.35.13.35,0V372c0-.2.31-.19.7,0s.7.57.7.78V373c0,.11.27.35.6.54l17.59,10.16,1.91,1.1h0a1.87,1.87,0,0,0,.9.21v-.79A1.77,1.77,0,0,1,279.05,384Z" style="opacity:0.30000000000000004"></path><path d="M279.06,378.61h0l-1.21-.71-14-8.06-4.46-2.58c-.32-.19-.58-.25-.6-.15h0v.2c0,.22-.31.22-.7,0a1,1,0,0,1-.55-.7v-.22a.34.34,0,0,0-.11-.27l-.1-.05-.22-.13-.27-.16a.28.28,0,0,0-.35,0l0,0-.07.08,0,.05a.89.89,0,0,0-.08.17l-.06.2a1.72,1.72,0,0,0,0,.24.59.59,0,0,0,0,.14s0,.07,0,.11a2.44,2.44,0,0,0,0,.27v2.74h.69v-2.74a1.41,1.41,0,0,1,0-.21v-.18a0,0,0,0,1,0,0,2,2,0,0,0,1,1.29,1.7,1.7,0,0,0,.84.26.89.89,0,0,0,.61-.22l.07,0,.12.07,17.59,10.16,1.91,1.1h0a1.79,1.79,0,0,0,.88.21v-.8A1.86,1.86,0,0,1,279.06,378.61Z" style="fill:#92E3A9"></path><path d="M279.06,378.61h0l-1.21-.71-14-8.06-4.46-2.58c-.32-.19-.58-.25-.6-.15h0v.2c0,.22-.31.22-.7,0a1,1,0,0,1-.55-.7v-.22a.34.34,0,0,0-.11-.27l-.1-.05-.22-.13-.27-.16a.28.28,0,0,0-.35,0l0,0-.07.08,0,.05a.89.89,0,0,0-.08.17l-.06.2a1.72,1.72,0,0,0,0,.24.59.59,0,0,0,0,.14s0,.07,0,.11a2.44,2.44,0,0,0,0,.27v2.74h.69v-2.74a1.41,1.41,0,0,1,0-.21v-.18a0,0,0,0,1,0,0,2,2,0,0,0,1,1.29,1.7,1.7,0,0,0,.84.26.89.89,0,0,0,.61-.22l.07,0,.12.07,17.59,10.16,1.91,1.1h0a1.79,1.79,0,0,0,.88.21v-.8A1.86,1.86,0,0,1,279.06,378.61Z" style="opacity:0.30000000000000004"></path><path d="M310.21,361.33v.81a.61.61,0,0,1-.36.51h0l-27.1,15.65-1.9,1.09h0a1.86,1.86,0,0,1-.89.21v-.8a1.86,1.86,0,0,0,.89-.21l1.21-.7h0l27.79-16.05A.61.61,0,0,0,310.21,361.33Z" style="fill:#92E3A9"></path><path d="M310.21,361.33v.81a.61.61,0,0,1-.36.51h0l-27.1,15.65-1.9,1.09h0a1.86,1.86,0,0,1-.89.21v-.8a1.86,1.86,0,0,0,.89-.21l1.21-.7h0l27.79-16.05A.61.61,0,0,0,310.21,361.33Z" style="opacity:0.2"></path><path d="M310.21,366.72v.81a.61.61,0,0,1-.36.51h0l-27.1,15.64-1.9,1.1h0a1.86,1.86,0,0,1-.89.21v-.79a1.75,1.75,0,0,0,.89-.22l1.21-.7h0l27.79-16A.62.62,0,0,0,310.21,366.72Z" style="fill:#92E3A9"></path><path d="M310.21,366.72v.81a.61.61,0,0,1-.36.51h0l-27.1,15.64-1.9,1.1h0a1.86,1.86,0,0,1-.89.21v-.79a1.75,1.75,0,0,0,.89-.22l1.21-.7h0l27.79-16A.62.62,0,0,0,310.21,366.72Z" style="opacity:0.2"></path></g></g><g id="freepik--disposable-tissue-box--inject-105"><path d="M252.13,358.78l-19.72-11.3a3.88,3.88,0,0,0-3.51,0l-33,19.06a1.06,1.06,0,0,0,0,2l19.72,11.3a3.91,3.91,0,0,0,3.51,0l33-19.07A1.06,1.06,0,0,0,252.13,358.78Z" style="opacity:0.30000000000000004"></path><polygon points="250.05 348.34 230.19 336.88 197.09 355.99 216.95 367.45 250.05 348.34" style="fill:#92E3A9"></polygon><polygon points="250.05 348.34 230.19 336.88 197.09 355.99 216.95 367.45 250.05 348.34" style="fill:#fff;opacity:0.4"></polygon><polygon points="250.05 359.81 216.95 378.92 216.95 367.45 250.05 348.34 250.05 359.81" style="fill:#92E3A9"></polygon><polygon points="197.09 355.99 216.95 367.45 216.95 378.92 197.09 367.45 197.09 355.99" style="fill:#92E3A9"></polygon><polygon points="197.09 355.99 216.95 367.45 216.95 378.92 197.09 367.45 197.09 355.99" style="opacity:0.30000000000000004"></polygon><path d="M233.28,350.38l-12.8,7.39a7.57,7.57,0,0,1-6.84.13c-1.83-1.06-1.73-2.83.22-3.95l12.8-7.39a7.57,7.57,0,0,1,6.84-.13C235.33,347.49,235.23,349.25,233.28,350.38Z" style="fill:#455a64"></path><path d="M230.65,349.74s2.11-14.08-2.27-19.82c0,0-.77,4.12-2.73,4.88-3.21,1.26-6.41.3-8.24,2.41s-1,3.58-3.31,5.17c-1.41,1-5.52-.29-7.72,1.63,0,0,8.24,4.78,11,13.37Z" style="fill:#fff"></path><path d="M220.2,335.81c1.18-.21,2.52-.26,3.9-.55,1.71,4.53.86,12.24.86,12.24C224.69,342.73,221.85,336.85,220.2,335.81Z" style="fill:#e6e6e6"></path><path d="M214.1,342.38a5,5,0,0,0,.79-.66c3.12,3.15,5.07,9.51,5.07,9.51-1.27-2.27-7.76-8.22-9.76-8.38C211.8,342.78,213.34,342.9,214.1,342.38Z" style="fill:#e6e6e6"></path></g></g></g><g id="freepik--speech-bubble--inject-105"><g id="freepik--speech-bubble--inject-105"><g id="freepik--speech-bubble--inject-105"><path d="M393.17,168.38l2.39-4.49-1.92-5.55v-3.4l5.88,3.4v3.39L397,166.11a.33.33,0,0,1-.17.16h0Z" style="fill:#92E3A9"></path><path d="M393.17,168.38l2.39-4.49-1.92-5.55v-3.4l5.88,3.4v3.39L397,166.11a.33.33,0,0,1-.17.16h0Z" style="opacity:0.2"></path><path d="M378,134.37a3.92,3.92,0,0,1,1.76-3.06l1.44-.83a3.92,3.92,0,0,1,3.53,0l28.06,16.2a3.92,3.92,0,0,1,1.76,3.06v17.2a3.92,3.92,0,0,1-1.76,3.06l-1.44.82a3.86,3.86,0,0,1-3.53,0l-11.95-6.95-2.52,4.37a.38.38,0,0,1-.68-.06l-2.67-7.7-10.24-5.85a3.92,3.92,0,0,1-1.76-3.06Z" style="fill:#92E3A9"></path><path d="M414.5,166.94a3.92,3.92,0,0,1-1.76,3.06l-1.44.82a4,4,0,0,1-3.23.15c.83.31,1.47-.16,1.47-1.16V152.6a3.57,3.57,0,0,0-.52-1.73l5-2.87a3.61,3.61,0,0,1,.52,1.74Z" style="opacity:0.2"></path><path d="M378,133.87c.2-.75.89-1,1.7-.52l28.06,16.2a3.54,3.54,0,0,1,1.25,1.32l5-2.87a3.51,3.51,0,0,0-1.25-1.31l-28.05-16.2a3.92,3.92,0,0,0-3.53,0l-1.44.83A3.85,3.85,0,0,0,378,133.87Z" style="fill:#fff;opacity:0.30000000000000004"></path></g><path d="M402.37,154.35a5.21,5.21,0,0,1,2.35,4.08c0,1.5-1.05,2.11-2.35,1.36a5.21,5.21,0,0,1-2.35-4.08C400,154.21,401.07,153.6,402.37,154.35Z" style="fill:#fff"></path><path d="M393.69,149.33a5.22,5.22,0,0,1,2.36,4.08c0,1.5-1.06,2.11-2.36,1.36a5.21,5.21,0,0,1-2.35-4.08C391.34,149.19,392.39,148.58,393.69,149.33Z" style="fill:#fff"></path><path d="M385,144.31a5.22,5.22,0,0,1,2.36,4.08c0,1.5-1.06,2.11-2.36,1.36a5.21,5.21,0,0,1-2.35-4.08C382.66,144.17,383.71,143.56,385,144.31Z" style="fill:#fff"></path></g></g></svg>