<svg width="561" height="379" viewBox="0 0 561 379" fill="none" xmlns="http://www.w3.org/2000/svg">
<path d="M84.0541 299.978C59.9376 274.61 28.2126 264.78 1.06705 271.202C-3.53653 301.333 6.81733 335.772 30.935 361.142C35.9701 366.433 41.3923 370.897 46.9803 374.832H114.838C114.623 348.749 104.228 321.2 84.0541 299.978Z" fill="#CFE2FA"/>
<path d="M94.6486 370.299L98.9576 374.832H100.201L74.894 348.21L74.3123 329.128L88.4512 304.885C88.2528 304.65 88.0365 304.427 87.8345 304.193L74.2606 327.466L73.1175 289.975C72.8254 289.741 72.5309 289.516 72.2377 289.286L74.0082 347.275L20.8711 291.381L17.0344 269.305C16.7423 269.305 16.4526 269.32 16.1617 269.327L19.7989 290.259L1.59014 271.104C1.41705 271.144 1.24036 271.167 1.06728 271.208C1.03843 271.399 1.0252 271.595 0.997559 271.787L54.9917 328.583L30.5386 325.645L6.94976 322.811C7.06996 323.142 7.17693 323.472 7.30434 323.805L29.3462 326.45L14.4116 338.753C14.5643 339.017 14.7073 339.295 14.8624 339.565L30.5999 326.601L56.0121 329.654L93.8601 369.472L60.3717 374.835H66.3395L94.6486 370.299Z" fill="white"/>
<path d="M152.256 269.79C85.7185 269.79 31.5874 210.215 31.5874 136.985C31.5874 63.7559 85.7221 4.1797 152.256 4.1797C218.791 4.1797 272.935 63.7559 272.935 136.985C272.935 210.215 218.798 269.79 152.256 269.79ZM152.256 9.23831C88.2535 9.23831 36.1838 66.5458 36.1838 136.985C36.1838 207.425 88.2571 264.728 152.256 264.728C216.256 264.728 268.33 207.422 268.33 136.983C268.33 66.5431 216.263 9.23831 152.256 9.23831Z" fill="#F3F3F3"/>
<path d="M152.257 269.79C104.157 269.79 65.0244 210.215 65.0244 136.985C65.0244 63.7559 104.161 4.1797 152.257 4.1797C200.353 4.1797 239.489 63.7559 239.489 136.985C239.489 210.215 200.36 269.79 152.257 269.79ZM152.257 9.23831C106.691 9.23831 69.622 66.5458 69.622 136.985C69.622 207.425 106.695 264.728 152.257 264.728C197.819 264.728 234.893 207.422 234.893 136.983C234.893 66.5431 197.826 9.23831 152.257 9.23831Z" fill="#F3F3F3"/>
<path d="M152.257 269.79C130.089 269.79 116.842 202.266 116.842 136.985C116.842 71.7049 130.092 4.1797 152.257 4.1797C174.421 4.1797 187.672 71.7049 187.672 136.985C187.672 202.266 174.427 269.79 152.257 269.79ZM152.257 9.23831C137.374 9.23831 121.438 60.5651 121.438 136.985C121.438 213.405 137.378 264.728 152.257 264.728C167.136 264.728 183.076 213.401 183.076 136.983C183.076 60.5638 167.143 9.23831 152.257 9.23831Z" fill="#F3F3F3"/>
<path d="M152.256 232.989C85.7185 232.989 31.5874 189.922 31.5874 136.985C31.5874 84.0485 85.7221 40.9803 152.256 40.9803C218.791 40.9803 272.935 84.0485 272.935 136.985C272.935 189.922 218.798 232.989 152.256 232.989ZM152.256 46.0402C88.2535 46.0402 36.1838 86.8371 36.1838 136.985C36.1838 187.133 88.2535 227.93 152.256 227.93C216.259 227.93 268.33 187.133 268.33 136.985C268.33 86.8371 216.263 46.0402 152.256 46.0402Z" fill="#F3F3F3"/>
<path d="M152.256 175.965C92.9412 175.965 31.5874 161.384 31.5874 136.988C31.5874 112.592 92.9448 98.0086 152.256 98.0086C211.568 98.0086 272.935 112.588 272.935 136.985C272.935 161.383 211.575 175.965 152.256 175.965ZM152.256 103.075C82.8254 103.075 36.1838 120.614 36.1838 136.993C36.1838 153.373 82.8206 170.911 152.256 170.911C221.692 170.911 268.33 153.373 268.33 136.993C268.33 120.614 221.692 103.067 152.256 103.067V103.075Z" fill="#F3F3F3"/>
<path d="M479.891 290.31C504.369 216.027 495.637 138.233 462.373 84.2351C406.235 99.657 354.79 151.48 330.313 225.761C313.678 276.245 312.419 328.334 323.738 373.49H434.342C453.419 350.799 469.219 322.692 479.891 290.31Z" fill="#BBD8FA"/>
<path d="M369.916 367.715L469.099 317.907C469.529 316.964 469.933 315.998 470.352 315.046L426.586 337.026L460.173 288.275L481.921 283.575C482.146 282.834 482.373 282.092 482.591 281.349L461.858 285.829L490.854 243.735C491.059 242.355 491.248 240.978 491.429 239.602L423.105 338.771L370.796 365.04L419.5 217.238L492.46 176.908C492.387 176.196 492.286 175.494 492.207 174.782L452.569 196.694L485.897 140.277C485.681 139.448 485.417 138.648 485.192 137.824L449.373 198.462L420.416 214.469L462.983 85.2947C462.773 84.9481 462.587 84.579 462.376 84.2364C462.015 84.3343 461.667 84.4732 461.311 84.5737L449.026 121.86L445.155 90.2607C444.584 90.4988 444.006 90.7065 443.435 90.9512L447.703 125.856L386.265 312.305L359.617 223.806L376.084 142.294C375.243 143.287 374.457 144.363 373.63 145.379L358.516 220.17L347.799 184.586C347.402 185.34 346.98 186.069 346.588 186.828L385.275 315.301L366.1 373.493H368.012L369.916 367.715Z" fill="white"/>
<path d="M319.645 353.373C319.885 354.884 320.153 356.384 320.423 357.881L330.931 373.491H333.187L319.645 353.373Z" fill="white"/>
<path d="M511.221 360.741C544.574 327.081 561.871 277.269 559.93 231.167C526.819 216.525 485.927 225.439 452.568 259.103C427.313 284.592 411.273 319.345 405.811 354.734L407.285 373.49H496.472C501.503 369.688 506.456 365.551 511.221 360.741Z" fill="#CFE2FA"/>
<path d="M559.944 232.054C559.932 231.76 559.945 231.464 559.93 231.171C559.719 231.077 559.5 231.01 559.288 230.919L484.618 306.279L493.488 263.022L519.221 224.82C518.695 224.873 518.165 224.962 517.637 225.023L494.122 259.93L500.525 228.704C500.128 228.836 499.73 228.922 499.333 229.053L483.205 307.7L442.698 348.576L443.394 269.337C443.034 269.778 442.661 270.21 442.302 270.652L441.982 307.089L428.4 290.853C428.18 291.23 427.955 291.607 427.737 291.988L441.97 308.998L441.609 349.677L418.015 373.488H419.795L426.386 366.837L467.232 373.488H476.07L427.617 365.597L515.555 276.847L537.031 275.932L551.477 292.786C551.623 292.321 551.768 291.856 551.912 291.389L538.606 275.864L556.155 275.115C556.257 274.635 556.337 274.154 556.435 273.672L517.04 275.353L559.944 232.054Z" fill="white"/>
<path d="M439.015 249.531C439.228 249.976 459.608 294.49 447.621 353.111C490.192 313.378 515.925 246.801 517.357 238.251C517.367 238.158 517.396 238.068 517.441 237.988C517.486 237.908 517.546 237.84 517.617 237.787C517.688 237.734 517.768 237.699 517.852 237.683C517.936 237.668 518.023 237.672 518.105 237.696C518.277 237.754 518.423 237.88 518.516 238.049C518.608 238.219 518.641 238.42 518.607 238.614C517.086 247.694 491.433 315.228 446.959 355.713C446.738 355.914 422.889 376.311 421.085 376.747C420.932 376.776 420.774 376.743 420.641 376.653C420.509 376.564 420.41 376.425 420.364 376.261C420.354 376.233 420.346 376.204 420.339 376.175C420.291 375.992 420.309 375.795 420.388 375.625C420.467 375.456 420.602 375.326 420.765 375.261C422.392 374.701 443.622 356.709 445.99 354.639C458.723 295.659 438.121 250.672 437.912 250.227C437.827 250.055 437.805 249.854 437.85 249.665C437.894 249.475 438.002 249.311 438.152 249.206C438.228 249.163 438.311 249.137 438.396 249.13C438.481 249.123 438.566 249.135 438.647 249.166C438.727 249.196 438.801 249.244 438.865 249.307C438.928 249.37 438.979 249.446 439.015 249.531Z" fill="#4E84F2"/>
<path d="M446.08 270.284C456.135 242.342 430.734 234.156 430.734 234.156C430.734 234.156 424.787 246.9 430.188 258.557C434.395 267.635 441.381 270.493 444.268 271.315C444.633 271.421 445.02 271.374 445.354 271.184C445.689 270.993 445.948 270.673 446.08 270.284Z" fill="#4E84F2"/>
<g style="mix-blend-mode:screen" opacity="0.5">
<g style="mix-blend-mode:screen" opacity="0.5">
<path d="M446.08 270.284C445.958 270.631 445.737 270.926 445.451 271.123L430.734 234.156C430.734 234.156 456.135 242.338 446.08 270.284Z" fill="#4E84F2"/>
</g>
</g>
<path d="M449.606 301.034C447.116 270.135 422.043 277.112 422.043 277.112C422.043 277.112 422.01 291.974 431.289 299.439C438.515 305.252 445.654 303.881 448.461 302.989C449.191 302.757 449.679 301.946 449.606 301.034Z" fill="#4E84F2"/>
<g style="mix-blend-mode:screen" opacity="0.5">
<g style="mix-blend-mode:screen" opacity="0.5">
<path d="M449.606 301.034C449.639 301.419 449.568 301.806 449.401 302.147L422.044 277.112C422.044 277.112 447.116 270.135 449.606 301.034Z" fill="#4E84F2"/>
</g>
</g>
<path d="M451.221 301.961C477.167 304.456 473.484 273.574 473.484 273.574C473.484 273.574 461.11 270.918 454.104 280.585C448.651 288.108 449.186 296.793 449.691 300.269C449.822 301.169 450.455 301.889 451.221 301.961Z" fill="#4E84F2"/>
<g style="mix-blend-mode:screen" opacity="0.5">
<g style="mix-blend-mode:screen" opacity="0.5">
<path d="M451.222 301.961C450.884 301.927 450.565 301.772 450.313 301.522L473.486 273.574C473.486 273.574 477.168 304.456 451.222 301.961Z" fill="#4E84F2"/>
</g>
</g>
<path d="M461.588 340.736C479.858 323.289 462.449 303.034 462.449 303.034C462.449 303.034 453.02 310.265 453.105 322.668C453.169 332.325 457.738 338.392 459.757 340.605C460.284 341.189 461.045 341.25 461.588 340.736Z" fill="#4E84F2"/>
<g style="mix-blend-mode:screen" opacity="0.5">
<g style="mix-blend-mode:screen" opacity="0.5">
<path d="M461.589 340.736C461.365 340.954 461.078 341.077 460.779 341.085L462.45 303.04C462.45 303.04 479.864 323.289 461.589 340.736Z" fill="#4E84F2"/>
</g>
</g>
<path d="M431.255 367.514C451.284 348.391 432.198 326.2 432.198 326.2C432.198 326.2 421.861 334.124 421.957 347.718C422.028 358.301 427.035 364.952 429.248 367.377C429.825 368.014 430.664 368.085 431.255 367.514Z" fill="#4E84F2"/>
<g style="mix-blend-mode:screen" opacity="0.5">
<g style="mix-blend-mode:screen" opacity="0.5">
<path d="M431.256 367.514C431.01 367.754 430.694 367.889 430.366 367.897L432.198 326.2C432.198 326.2 451.284 348.398 431.256 367.514Z" fill="#4E84F2"/>
</g>
</g>
<path d="M482.967 310.814C499.594 288.942 479.394 270.251 479.394 270.251C479.394 270.251 470.608 279.637 472.158 292.92C473.36 303.262 478.753 308.975 481.08 310.997C481.686 311.523 482.477 311.46 482.967 310.814Z" fill="#4E84F2"/>
<g style="mix-blend-mode:screen" opacity="0.5">
<g style="mix-blend-mode:screen" opacity="0.5">
<path d="M482.967 310.814C482.768 311.084 482.489 311.267 482.178 311.329L479.393 270.251C479.393 270.251 499.594 288.937 482.967 310.814Z" fill="#4E84F2"/>
</g>
</g>
<path d="M498.647 283.343C515.891 255.577 489.414 238.308 489.414 238.308C489.414 238.308 480.039 250.533 483.514 265.208C486.223 276.635 493.37 282.062 496.408 283.903C496.776 284.141 497.212 284.216 497.628 284.112C498.044 284.008 498.408 283.733 498.647 283.343Z" fill="#4E84F2"/>
<g style="mix-blend-mode:screen" opacity="0.5">
<g style="mix-blend-mode:screen" opacity="0.5">
<path d="M498.646 283.343C498.436 283.689 498.125 283.945 497.765 284.071L489.412 238.308C489.412 238.308 515.891 255.577 498.646 283.343Z" fill="#4E84F2"/>
</g>
</g>
<path d="M442.782 358.835C464.025 342.818 474.985 371.037 474.985 371.037C474.985 371.037 465.524 379.924 455.058 375.464C446.91 371.991 443.399 364.322 442.239 361.097C441.934 360.257 442.156 359.313 442.782 358.835Z" fill="#4E84F2"/>
<g style="mix-blend-mode:screen" opacity="0.5">
<g style="mix-blend-mode:screen" opacity="0.5">
<path d="M442.782 358.835C442.508 359.045 442.304 359.346 442.199 359.695L474.988 371.038C474.988 371.038 464.025 342.818 442.782 358.835Z" fill="#4E84F2"/>
</g>
</g>
<path d="M459.88 340.793C482.014 325.02 493.706 353.442 493.706 353.442C493.706 353.442 483.862 362.222 472.865 357.615C464.302 354.03 460.564 346.3 459.328 343.053C459.002 342.207 459.227 341.257 459.88 340.793Z" fill="#4E84F2"/>
<g style="mix-blend-mode:screen" opacity="0.5">
<g style="mix-blend-mode:screen" opacity="0.5">
<path d="M459.879 340.793C459.599 340.997 459.387 341.297 459.278 341.647L493.709 353.443C493.709 353.443 482.014 325.02 459.879 340.793Z" fill="#4E84F2"/>
</g>
</g>
<path d="M475.971 322.204C495.558 297.685 512.125 327.571 512.125 327.571C512.125 327.571 503.711 340.535 491.875 338.214C482.658 336.407 477.591 328.433 475.798 324.986C475.332 324.096 475.393 322.934 475.971 322.204Z" fill="#4E84F2"/>
<g style="mix-blend-mode:screen" opacity="0.5">
<g style="mix-blend-mode:screen" opacity="0.5">
<path d="M475.972 322.204C475.716 322.533 475.555 322.938 475.509 323.368L512.13 327.571C512.13 327.571 495.558 297.685 475.972 322.204Z" fill="#4E84F2"/>
</g>
</g>
<path d="M490.677 298.404C510.263 273.885 526.83 303.771 526.83 303.771C526.83 303.771 518.416 316.735 506.58 314.414C497.363 312.608 492.296 304.634 490.505 301.185C490.037 300.296 490.099 299.123 490.677 298.404Z" fill="#4E84F2"/>
<g style="mix-blend-mode:screen" opacity="0.5">
<g style="mix-blend-mode:screen" opacity="0.5">
<path d="M490.677 298.404C490.421 298.733 490.259 299.137 490.214 299.567L526.83 303.771C526.83 303.771 510.263 273.885 490.677 298.404Z" fill="#4E84F2"/>
</g>
</g>
<path d="M503.454 275.537C518.582 246.798 539.487 272.627 539.487 272.627C539.487 272.627 533.378 287.38 521.491 287.774C512.236 288.082 506.028 281.337 503.733 278.335C503.136 277.56 503.008 276.385 503.454 275.537Z" fill="#4E84F2"/>
<g style="mix-blend-mode:screen" opacity="0.5">
<g style="mix-blend-mode:screen" opacity="0.5">
<path d="M503.453 275.537C503.258 275.92 503.166 276.357 503.189 276.795L539.489 272.63C539.489 272.63 518.582 246.798 503.453 275.537Z" fill="#4E84F2"/>
</g>
</g>
<path d="M512.078 259.205C539.644 250.123 524.6 219.378 524.6 219.378C524.6 219.378 510.917 222.172 507.244 235.468C504.383 245.821 508.101 254.693 509.888 258.114C510.352 259.004 511.265 259.474 512.078 259.205Z" fill="#4E84F2"/>
<g style="mix-blend-mode:screen" opacity="0.5">
<g style="mix-blend-mode:screen" opacity="0.5">
<path d="M512.079 259.205C511.719 259.32 511.335 259.302 510.985 259.155L524.6 219.378C524.6 219.378 539.644 250.123 512.079 259.205Z" fill="#4E84F2"/>
</g>
</g>
<path d="M449.563 328.769C447.072 297.87 422 304.845 422 304.845C422 304.845 421.968 319.708 431.247 327.173C438.472 332.985 445.612 331.615 448.419 330.723C449.146 330.49 449.636 329.681 449.563 328.769Z" fill="#4E84F2"/>
<g style="mix-blend-mode:screen" opacity="0.5">
<g style="mix-blend-mode:screen" opacity="0.5">
<path d="M449.563 328.769C449.597 329.154 449.525 329.542 449.358 329.882L422 304.845C422 304.845 447.073 297.87 449.563 328.769Z" fill="#4E84F2"/>
</g>
</g>
<path d="M505.583 52.1359C502.399 52.1359 499.426 53.2405 496.866 55.1348C492.979 40.6786 482.155 30.2651 469.382 30.2651C457.672 30.2651 447.608 39.0264 443.013 51.6187C440.039 49.477 436.604 48.2348 432.934 48.2348C424.989 48.2348 418.124 53.9826 414.764 62.3497C413.034 60.9197 410.973 60.0731 408.754 60.0731C402.683 60.0731 397.762 66.2812 397.762 73.9393H522.864C522.864 61.896 515.127 52.1359 505.583 52.1359Z" fill="#F3F3F3"/>
<path d="M409.823 238.188C406.16 240.541 403.926 244.428 403.572 248.326C406.83 249.906 411.004 249.677 414.668 247.324C418.331 244.97 420.566 241.084 420.918 237.185C417.661 235.606 413.486 235.835 409.823 238.188Z" fill="#3A3AA5"/>
<path opacity="0.5" d="M403.572 248.325C406.83 249.904 411.004 249.675 414.668 247.322C418.331 244.969 420.566 241.082 420.918 237.184L403.572 248.325Z" fill="#5252BB"/>
<path d="M403.831 254.82C403.831 254.82 403.853 254.688 403.89 254.436C403.935 254.14 403.95 253.839 403.935 253.538C403.919 252.771 403.717 251.727 403.396 250.713C403.1 249.777 402.741 248.866 402.322 247.989L401.894 247.133L401.731 246.833L401.711 246.798C401.572 246.544 401.531 246.239 401.596 245.951C401.661 245.663 401.828 245.415 402.059 245.262C402.29 245.109 402.568 245.063 402.829 245.135C403.091 245.207 403.316 245.39 403.455 245.645C403.476 245.684 403.495 245.725 403.512 245.766L403.67 246.163C403.765 246.404 403.892 246.747 404.031 247.162C404.381 248.177 404.662 249.218 404.872 250.279C405.1 251.442 405.202 252.66 405.119 253.586C405.091 253.968 405.028 254.346 404.932 254.714C404.868 254.951 404.832 255.086 404.832 255.086C404.797 255.228 404.713 255.35 404.598 255.426C404.483 255.501 404.346 255.524 404.215 255.49C404.085 255.455 403.972 255.366 403.901 255.241C403.83 255.116 403.806 254.966 403.834 254.821L403.831 254.82Z" fill="#5252BB"/>
<path d="M421.115 257.32C417.209 249.968 409.673 252.23 404.671 252.23C399.67 252.23 392.134 249.968 388.23 257.32C384.325 264.673 386.585 278.696 393.879 284.464C396.355 286.422 401.966 285.258 404.669 285.258C407.372 285.258 412.983 286.424 415.459 284.464C422.759 278.702 425.02 264.677 421.115 257.32Z" fill="#F53B4A"/>
<path d="M398.196 262.867C400.807 262.867 402.923 261.095 402.923 258.909C402.923 256.723 400.807 254.951 398.196 254.951C395.585 254.951 393.469 256.723 393.469 258.909C393.469 261.095 395.585 262.867 398.196 262.867Z" fill="#FFBBB7"/>
<path d="M112.971 374.565H285.713C288.746 374.565 291.204 371.86 291.204 368.522L291.204 101.895C291.204 98.5579 288.746 95.8524 285.713 95.8524H112.971C109.939 95.8524 107.48 98.5579 107.48 101.895L107.48 368.522C107.48 371.86 109.939 374.565 112.971 374.565Z" fill="#9FC3F4"/>
<path d="M110.899 374.565H280.241C283.214 374.565 285.624 371.913 285.624 368.641L285.624 107.262C285.624 103.991 283.214 101.338 280.241 101.338H110.899C107.926 101.338 105.517 103.991 105.517 107.262L105.517 368.641C105.517 371.913 107.926 374.565 110.899 374.565Z" fill="#EEF5FA"/>
<path d="M92.4822 374.565H265.225C268.257 374.565 270.715 371.86 270.715 368.522L270.715 101.895C270.715 98.5579 268.257 95.8524 265.225 95.8524H92.4822C89.4498 95.8524 86.9916 98.5579 86.9916 101.895L86.9916 368.522C86.9916 371.86 89.4498 374.565 92.4822 374.565Z" fill="#BAD2FA"/>
<path d="M127.587 200.514L230.121 200.514C233.377 200.514 236.017 197.609 236.017 194.026V161.705C236.017 158.122 233.377 155.217 230.121 155.217H127.587C124.33 155.217 121.691 158.122 121.691 161.705V194.026C121.691 197.609 124.33 200.514 127.587 200.514Z" fill="#EEF5FA"/>
<path d="M334.424 308.209C332.981 308.209 332.408 310.28 333.614 311.141C333.825 311.305 334.076 311.397 334.335 311.405H443.108C444.828 311.399 446.475 310.644 447.691 309.306C448.907 307.968 449.593 306.155 449.599 304.262V292.442C449.593 290.55 448.907 288.736 447.691 287.398C446.475 286.06 444.828 285.305 443.108 285.299H334.337C334.046 285.308 333.764 285.42 333.534 285.618C332.407 286.513 333.029 288.488 334.419 288.488L334.424 308.209Z" fill="#375EB8"/>
<path d="M384.039 288.478C384.689 288.48 385.313 288.765 385.772 289.271C386.232 289.777 386.491 290.463 386.493 291.179V305.508C386.491 306.224 386.232 306.91 385.772 307.416C385.313 307.922 384.689 308.207 384.039 308.209H258.475C257.039 308.209 256.461 310.28 257.667 311.141C257.878 311.305 258.129 311.397 258.388 311.405H393.283C395.003 311.399 396.651 310.644 397.867 309.306C399.083 307.968 399.768 306.155 399.774 304.262V292.442C399.768 290.55 399.083 288.736 397.867 287.398C396.651 286.06 395.003 285.305 393.283 285.299H258.391C258.1 285.308 257.818 285.42 257.588 285.618C256.462 286.513 257.084 288.488 258.473 288.488L384.039 288.478Z" fill="#2B55AA"/>
<path d="M389.272 308.209C390.992 308.204 392.64 307.449 393.857 306.111C395.073 304.773 395.758 302.959 395.763 301.066V295.624C395.758 293.731 395.073 291.917 393.857 290.579C392.64 289.24 390.992 288.486 389.272 288.48H259.804V308.212L389.272 308.209Z" fill="url(#paint0_linear_212_8322)"/>
<path d="M375.204 308.166L378.966 302.315L385.948 308.209C385.948 308.209 382.19 298.101 385.663 290.668L375.263 290.626C372.427 298.064 375.204 308.166 375.204 308.166Z" fill="#F2453F"/>
<path d="M259.804 305.388L280.133 305.133L300.969 304.992L324.855 304.931L348.739 304.992L369.577 305.131L389.905 305.388L369.575 305.645L348.737 305.786L324.852 305.845L300.967 305.784L280.13 305.652L259.804 305.388Z" fill="#99A7D8"/>
<path d="M265.617 295.89L282.492 295.633L299.789 295.501L319.622 295.44L339.454 295.499L356.751 295.64L373.625 295.897L356.751 296.154L339.454 296.293L319.622 296.354L299.789 296.293L282.492 296.152L265.617 295.89Z" fill="#99A7D8"/>
<path d="M120.11 221.827C120.079 221.776 120.038 221.732 119.99 221.7C119.942 221.668 119.889 221.646 119.833 221.638C119.778 221.63 119.721 221.635 119.667 221.652C119.614 221.67 119.564 221.699 119.521 221.739C115.675 225.536 91.408 264.089 85.7335 308.13C85.7046 308.348 86.2792 310.827 86.54 308.507L86.7684 306.879C92.6665 264.432 116.449 226.105 120.074 222.53C120.158 222.438 120.207 222.316 120.214 222.186C120.221 222.056 120.184 221.928 120.11 221.827Z" fill="#4E84F2"/>
<path d="M88.3887 293.149C91.1064 274.811 106.034 281.31 106.034 281.31C106.034 281.31 105.472 290.244 99.5551 293.877C94.9479 296.704 90.6724 295.224 89.0065 294.43C88.7896 294.322 88.6114 294.137 88.4997 293.905C88.3879 293.673 88.3489 293.407 88.3887 293.149Z" fill="#4E84F2"/>
<g style="mix-blend-mode:screen" opacity="0.5">
<g style="mix-blend-mode:screen" opacity="0.5">
<path d="M88.388 293.148C88.3531 293.382 88.3816 293.621 88.4698 293.836L106.033 281.31C106.033 281.31 91.1057 274.811 88.388 293.148Z" fill="#4E84F2"/>
</g>
</g>
<path d="M96.086 268.865C101.407 250.395 116.444 259.363 116.444 259.363C116.444 259.363 114.665 268.477 107.882 271.315C102.601 273.525 98.2435 271.349 96.574 270.278C96.3594 270.138 96.1943 269.922 96.1056 269.665C96.017 269.408 96.0101 269.126 96.086 268.865Z" fill="#4E84F2"/>
<g style="mix-blend-mode:screen" opacity="0.5">
<g style="mix-blend-mode:screen" opacity="0.5">
<path d="M96.0867 268.865C96.0206 269.1 96.0206 269.351 96.0867 269.586L116.449 259.363C116.449 259.363 101.414 250.395 96.0867 268.865Z" fill="#4E84F2"/>
</g>
</g>
<path d="M104.355 249.411C112.288 228.741 128.564 242.647 128.564 242.647C128.564 242.647 125.616 253.033 117.583 254.898C111.333 256.353 106.572 252.821 104.772 251.188C104.541 250.978 104.376 250.693 104.301 250.374C104.227 250.055 104.245 249.718 104.355 249.411Z" fill="#4E84F2"/>
<g style="mix-blend-mode:screen" opacity="0.5">
<g style="mix-blend-mode:screen" opacity="0.5">
<path d="M104.356 249.411C104.254 249.68 104.228 249.976 104.279 250.262L128.565 242.647C128.565 242.647 112.289 228.747 104.356 249.411Z" fill="#4E84F2"/>
</g>
</g>
<path d="M88.8823 294.396C89.6336 273.779 72.5655 273.83 72.5655 273.83C72.5655 273.83 71.3959 283.525 76.9359 290.064C81.2498 295.155 86.0613 295.543 87.9809 295.465C88.4761 295.445 88.8607 295.003 88.8823 294.396Z" fill="#4E84F2"/>
<g style="mix-blend-mode:screen" opacity="0.5">
<g style="mix-blend-mode:screen" opacity="0.5">
<path d="M88.8823 294.396C88.8772 294.645 88.7997 294.886 88.6611 295.084L72.5654 273.829C72.5654 273.829 89.6335 273.779 88.8823 294.396Z" fill="#4E84F2"/>
</g>
</g>
<path d="M92.8087 277.288C98.4856 255.901 79.2383 252.881 79.2383 252.881C79.2383 252.881 75.6444 262.79 80.355 270.607C84.0222 276.699 89.3554 277.97 91.5334 278.235C91.8133 278.268 92.0948 278.191 92.3282 278.017C92.5616 277.844 92.7317 277.586 92.8087 277.288Z" fill="#4E84F2"/>
<g style="mix-blend-mode:screen" opacity="0.5">
<g style="mix-blend-mode:screen" opacity="0.5">
<path d="M92.8081 277.287C92.7378 277.556 92.5938 277.793 92.3958 277.967L79.2378 252.881C79.2378 252.881 98.4851 255.901 92.8081 277.287Z" fill="#4E84F2"/>
</g>
</g>
<path d="M99.6306 259.626C105.308 238.239 86.0603 235.219 86.0603 235.219C86.0603 235.219 82.4676 245.129 87.1781 252.952C90.8454 259.044 96.1773 260.315 98.3565 260.58C98.6371 260.613 98.9193 260.535 99.1526 260.36C99.3859 260.185 99.5553 259.925 99.6306 259.626Z" fill="#4E84F2"/>
<g style="mix-blend-mode:screen" opacity="0.5">
<g style="mix-blend-mode:screen" opacity="0.5">
<path d="M99.6299 259.626C99.5605 259.894 99.4168 260.132 99.2188 260.306L86.0596 235.219C86.0596 235.219 105.307 238.239 99.6299 259.626Z" fill="#4E84F2"/>
</g>
</g>
<path d="M106.598 243.63C115.639 224.193 96.9955 216.845 96.9955 216.845C96.9955 216.845 91.8498 225.63 95.2827 234.303C96.1982 236.639 97.5538 238.736 99.2599 240.453C100.966 242.171 102.984 243.47 105.18 244.266C105.446 244.366 105.736 244.356 105.997 244.239C106.257 244.122 106.471 243.906 106.598 243.63Z" fill="#4E84F2"/>
<g style="mix-blend-mode:screen" opacity="0.5">
<g style="mix-blend-mode:screen" opacity="0.5">
<path d="M106.599 243.629C106.486 243.874 106.305 244.072 106.082 244.194L96.9961 216.841C96.9961 216.841 115.64 224.193 106.599 243.629Z" fill="#4E84F2"/>
</g>
</g>
<path d="M111.728 232.564C107.641 210.032 126.832 211.703 126.832 211.703C126.832 211.703 129.676 222.376 124.478 228.977C120.432 234.115 115.085 234.082 112.915 233.816C112.624 233.768 112.353 233.623 112.14 233.398C111.928 233.174 111.783 232.883 111.728 232.564Z" fill="#4E84F2"/>
<g style="mix-blend-mode:screen" opacity="0.5">
<g style="mix-blend-mode:screen" opacity="0.5">
<path d="M111.727 232.564C111.782 232.853 111.906 233.119 112.088 233.336L126.834 211.703C126.834 211.703 107.64 210.032 111.727 232.564Z" fill="#4E84F2"/>
</g>
</g>
<path d="M22.7023 335.415C23.0834 335.258 61.031 320.579 106.257 342.602C79.8132 290.99 29.931 253.071 23.2973 250.197C23.1449 250.13 23.0227 249.999 22.957 249.834C22.8913 249.668 22.8875 249.481 22.9463 249.312C22.9746 249.229 23.0176 249.152 23.0729 249.088C23.1282 249.023 23.1946 248.971 23.2683 248.935C23.3421 248.898 23.4216 248.879 23.5023 248.877C23.583 248.875 23.6633 248.89 23.7384 248.923C30.7856 251.975 81.4406 289.959 108.25 343.719C108.383 343.983 121.712 372.607 121.832 374.597C121.842 374.757 121.798 374.916 121.71 375.043C121.622 375.171 121.494 375.258 121.351 375.29C121.328 375.296 121.304 375.3 121.28 375.303C121.12 375.317 120.96 375.262 120.835 375.151C120.709 375.039 120.627 374.88 120.605 374.704C120.357 372.884 108.622 347.431 107.263 344.583C61.8424 321.709 23.4848 336.549 23.1086 336.701C22.9537 336.762 22.7831 336.753 22.6345 336.675C22.4858 336.598 22.3712 336.458 22.3159 336.288C22.2606 336.117 22.2691 335.929 22.3395 335.766C22.41 335.602 22.5366 335.476 22.6915 335.415H22.7023Z" fill="#4E84F2"/>
<path d="M40.0948 331.168C19.0602 316.046 9.44434 341.807 9.44434 341.807C9.44434 341.807 18.8691 350.153 28.8142 346.242C36.5586 343.199 39.6909 336.205 40.6982 333.259C40.8278 332.887 40.8387 332.477 40.7291 332.097C40.6194 331.717 40.3958 331.389 40.0948 331.168Z" fill="#4E84F2"/>
<g style="mix-blend-mode:screen" opacity="0.5">
<g style="mix-blend-mode:screen" opacity="0.5">
<path d="M40.0945 331.168C40.3627 331.36 40.5694 331.641 40.6859 331.969L9.44043 341.807C9.44043 341.807 19.0659 316.046 40.0945 331.168Z" fill="#4E84F2"/>
</g>
</g>
<path d="M65.0209 332.267C40.105 330.042 42.5955 357.845 42.5955 357.845C42.5955 357.845 54.4302 360.227 61.5099 351.524C67.0234 344.745 66.8046 336.926 66.438 333.797C66.3963 333.402 66.2329 333.035 65.975 332.757C65.7172 332.478 65.3804 332.305 65.0209 332.267Z" fill="#4E84F2"/>
<g style="mix-blend-mode:screen" opacity="0.5">
<g style="mix-blend-mode:screen" opacity="0.5">
<path d="M65.0209 332.267C65.3389 332.296 65.6405 332.435 65.8827 332.664L42.5955 357.846C42.5955 357.846 40.105 330.042 65.0209 332.267Z" fill="#4E84F2"/>
</g>
</g>
<path d="M65.9549 330.693C71.115 303.452 46.067 302.499 46.067 302.499C46.067 302.499 42.4382 315.26 49.2763 324.246C54.601 331.243 61.5845 332.043 64.4212 332.051C64.7796 332.053 65.1277 331.918 65.4069 331.671C65.6861 331.424 65.8796 331.078 65.9549 330.693Z" fill="#4E84F2"/>
<g style="mix-blend-mode:screen" opacity="0.5">
<g style="mix-blend-mode:screen" opacity="0.5">
<path d="M65.9554 330.693C65.8905 331.038 65.7296 331.352 65.495 331.592L46.0698 302.499C46.0698 302.499 71.1239 303.452 65.9554 330.693Z" fill="#4E84F2"/>
</g>
</g>
<path d="M98.1098 325.773C86.4506 303.555 68.189 318.905 68.189 318.905C68.189 318.905 72.7949 330.088 82.6848 331.957C85.3319 332.477 88.0493 332.366 90.6541 331.632C93.2589 330.898 95.6906 329.558 97.7853 327.703C98.0408 327.478 98.2142 327.159 98.2738 326.804C98.3334 326.45 98.2752 326.084 98.1098 325.773Z" fill="#4E84F2"/>
<g style="mix-blend-mode:screen" opacity="0.5">
<g style="mix-blend-mode:screen" opacity="0.5">
<path d="M98.1103 325.773C98.2574 326.051 98.3201 326.373 98.2894 326.692L68.1895 318.905C68.1895 318.905 86.4475 303.556 98.1103 325.773Z" fill="#4E84F2"/>
</g>
</g>
<path d="M115.734 362.309C102.951 337.958 82.9419 354.782 82.9419 354.782C82.9419 354.782 87.9902 367.038 98.8285 369.087C101.73 369.657 104.708 369.535 107.563 368.731C110.418 367.927 113.083 366.458 115.379 364.424C115.659 364.177 115.849 363.828 115.914 363.439C115.979 363.051 115.915 362.65 115.734 362.309Z" fill="#4E84F2"/>
<g style="mix-blend-mode:screen" opacity="0.5">
<g style="mix-blend-mode:screen" opacity="0.5">
<path d="M115.735 362.309C115.896 362.613 115.965 362.967 115.931 363.317L82.9424 354.782C82.9424 354.782 102.952 337.958 115.735 362.309Z" fill="#4E84F2"/>
</g>
</g>
<path d="M76.8927 298.28C61.5074 277.114 44.146 295.682 44.146 295.682C44.146 295.682 50.5465 306.529 61.3163 306.967C69.7025 307.315 74.9118 302.477 76.8074 300.318C77.0476 300.05 77.1893 299.693 77.205 299.317C77.2208 298.941 77.1095 298.571 76.8927 298.28Z" fill="#4E84F2"/>
<g style="mix-blend-mode:screen" opacity="0.5">
<g style="mix-blend-mode:screen" opacity="0.5">
<path d="M76.893 298.28C77.0863 298.543 77.1965 298.868 77.2067 299.206L44.1523 295.687C44.1523 295.687 61.5077 277.118 76.893 298.28Z" fill="#4E84F2"/>
</g>
</g>
<path d="M56.9264 277.242C36.9194 254.489 19.9258 279.966 19.9258 279.966C19.9258 279.966 28.5163 291.885 40.6311 290.497C50.0643 289.415 55.2604 282.656 57.0983 279.715C57.3335 279.344 57.445 278.896 57.4136 278.445C57.3823 277.994 57.2101 277.569 56.9264 277.242Z" fill="#4E84F2"/>
<g style="mix-blend-mode:screen" opacity="0.5">
<g style="mix-blend-mode:screen" opacity="0.5">
<path d="M56.9268 277.243C57.1816 277.532 57.347 277.902 57.3992 278.301L19.9263 279.97C19.9263 279.97 36.9199 254.492 56.9268 277.243Z" fill="#4E84F2"/>
</g>
</g>
<path d="M110.226 348.661C100.066 323.508 123.884 316.291 123.884 316.291C123.884 316.291 129.805 327.769 124.973 338.212C121.211 346.342 114.672 348.874 111.963 349.597C111.62 349.69 111.258 349.648 110.94 349.477C110.623 349.305 110.37 349.017 110.226 348.661Z" fill="#4E84F2"/>
<g style="mix-blend-mode:screen" opacity="0.5">
<g style="mix-blend-mode:screen" opacity="0.5">
<path d="M110.226 348.661C110.353 348.978 110.568 349.243 110.84 349.417L123.89 316.291C123.89 316.291 100.065 323.508 110.226 348.661Z" fill="#4E84F2"/>
</g>
</g>
<path d="M97.945 327.602C88.0888 301.542 112.157 293.573 112.157 293.573C112.157 293.573 117.947 305.445 112.934 316.429C109.03 324.983 102.415 327.744 99.6783 328.547C99.3344 328.651 98.9677 328.613 98.648 328.438C98.3283 328.264 98.0781 327.967 97.945 327.602Z" fill="#4E84F2"/>
<g style="mix-blend-mode:screen" opacity="0.5">
<g style="mix-blend-mode:screen" opacity="0.5">
<path d="M97.9451 327.602C98.064 327.926 98.2748 328.2 98.5461 328.382L112.151 293.573C112.151 293.573 88.09 301.538 97.9451 327.602Z" fill="#4E84F2"/>
</g>
</g>
<path d="M85.1071 307.529C67.9728 282.792 93.8034 269.872 93.8034 269.872C93.8034 269.872 103.1 280.878 99.8049 293.118C97.2387 302.643 90.2684 306.788 87.3043 308.152C86.9265 308.327 86.5071 308.361 86.1103 308.248C85.7135 308.136 85.3611 307.883 85.1071 307.529Z" fill="#4E84F2"/>
<g style="mix-blend-mode:screen" opacity="0.5">
<g style="mix-blend-mode:screen" opacity="0.5">
<path d="M85.1066 307.529C85.328 307.847 85.6314 308.083 85.9768 308.207L93.8029 269.872C93.8029 269.872 67.9724 282.797 85.1066 307.529Z" fill="#4E84F2"/>
</g>
</g>
<path d="M67.9486 288.11C50.8132 263.372 76.6437 250.452 76.6437 250.452C76.6437 250.452 85.941 261.458 82.6452 273.7C80.0802 283.224 73.1087 287.369 70.1446 288.734C69.7668 288.908 69.3477 288.941 68.9512 288.829C68.5547 288.716 68.2026 288.463 67.9486 288.11Z" fill="#4E84F2"/>
<g style="mix-blend-mode:screen" opacity="0.5">
<g style="mix-blend-mode:screen" opacity="0.5">
<path d="M67.9486 288.11C68.1701 288.427 68.4734 288.663 68.8189 288.787L76.6438 250.452C76.6438 250.452 50.8096 263.378 67.9486 288.11Z" fill="#4E84F2"/>
</g>
</g>
<path d="M51.2966 270.89C30.262 250.24 53.3881 232.055 53.3881 232.055C53.3881 232.055 64.391 240.89 63.2515 253.618C62.3657 263.525 56.2332 269.07 53.5624 271.04C53.2221 271.292 52.8159 271.413 52.4065 271.386C51.9971 271.359 51.6072 271.185 51.2966 270.89Z" fill="#4E84F2"/>
<g style="mix-blend-mode:screen" opacity="0.5">
<g style="mix-blend-mode:screen" opacity="0.5">
<path d="M51.2973 270.89C51.569 271.155 51.9072 271.322 52.2673 271.37L53.3888 232.055C53.3888 232.055 30.2567 250.24 51.2973 270.89Z" fill="#4E84F2"/>
</g>
</g>
<path d="M39.3441 259.126C35.4798 228.333 9.15039 239.501 9.15039 239.501C9.15039 239.501 9.7033 254.516 19.848 260.527C27.745 265.208 35.2658 262.65 38.2095 261.288C38.5862 261.112 38.9006 260.806 39.1053 260.416C39.31 260.026 39.3938 259.573 39.3441 259.126Z" fill="#4E84F2"/>
<g style="mix-blend-mode:screen" opacity="0.5">
<g style="mix-blend-mode:screen" opacity="0.5">
<path d="M39.3429 259.126C39.3922 259.522 39.3314 259.926 39.1686 260.283L9.15039 239.501C9.15039 239.501 35.4798 228.333 39.3429 259.126Z" fill="#4E84F2"/>
</g>
</g>
<path d="M87.1097 336.692C62.1927 334.465 64.6844 362.27 64.6844 362.27C64.6844 362.27 76.5179 364.652 83.5988 355.947C89.1122 349.17 88.8875 341.35 88.5269 338.221C88.4849 337.826 88.3214 337.459 88.0636 337.181C87.8058 336.903 87.4691 336.73 87.1097 336.692Z" fill="#4E84F2"/>
<g style="mix-blend-mode:screen" opacity="0.5">
<g style="mix-blend-mode:screen" opacity="0.5">
<path d="M87.1097 336.692C87.4273 336.721 87.7284 336.86 87.9703 337.089L64.682 362.271C64.682 362.271 62.1903 334.465 87.1097 336.692Z" fill="#4E84F2"/>
</g>
</g>
<path d="M239.959 341.368C239.104 341.365 238.284 340.99 237.679 340.324C237.075 339.658 236.734 338.756 236.732 337.815V318.965C236.734 318.024 237.075 317.122 237.679 316.456C238.284 315.79 239.104 315.415 239.959 315.412H426.768C428.707 315.412 429.52 312.518 427.83 311.473C427.579 311.31 427.295 311.222 427.004 311.217H227.799C225.537 311.226 223.37 312.22 221.771 313.981C220.172 315.742 219.271 318.127 219.265 320.616V336.163C219.273 338.651 220.174 341.035 221.773 342.794C223.372 344.554 225.538 345.546 227.799 345.555H427.004C427.301 345.55 427.591 345.459 427.845 345.29C429.518 344.232 428.719 341.364 426.787 341.364L239.959 341.368Z" fill="#F2453F"/>
<g style="mix-blend-mode:screen">
<g style="mix-blend-mode:screen">
<path d="M336.428 311.268C334.102 311.532 334.385 315.412 336.718 315.412H426.769C428.708 315.412 429.52 312.518 427.83 311.473C427.58 311.31 427.295 311.222 427.004 311.217H337.303C337.011 311.217 336.719 311.234 336.428 311.268Z" fill="#F5342A"/>
</g>
<g style="mix-blend-mode:screen">
<path d="M426.789 341.368H336.718C334.38 341.368 334.102 345.249 336.428 345.513C336.719 345.546 337.011 345.562 337.303 345.562H427.004C427.301 345.557 427.591 345.465 427.846 345.297C429.524 344.232 428.724 341.368 426.789 341.368Z" fill="#F5342A"/>
</g>
</g>
<path d="M228.672 315.412C227.576 315.416 226.526 315.896 225.751 316.749C224.976 317.602 224.539 318.757 224.536 319.963V336.816C224.539 338.022 224.976 339.178 225.751 340.031C226.526 340.884 227.576 341.365 228.672 341.368H425.117C425.121 341.368 425.124 341.367 425.128 341.366C425.131 341.364 425.134 341.362 425.136 341.359C425.139 341.356 425.141 341.353 425.142 341.349C425.143 341.346 425.144 341.342 425.144 341.338V315.441C425.144 315.434 425.141 315.426 425.136 315.421C425.131 315.415 425.124 315.412 425.117 315.412H228.672Z" fill="url(#paint1_linear_212_8322)"/>
<path d="M425.117 341.368C425.121 341.368 425.124 341.367 425.128 341.366C425.131 341.364 425.134 341.362 425.136 341.359C425.139 341.356 425.141 341.353 425.142 341.349C425.143 341.346 425.144 341.342 425.144 341.338V315.441C425.144 315.434 425.141 315.426 425.136 315.421C425.131 315.415 425.124 315.412 425.117 315.412H337.206V341.368H425.117Z" fill="url(#paint2_linear_212_8322)"/>
<path d="M348.971 374.996H211.43C205.98 374.996 201.563 368.407 201.563 360.28C201.563 352.152 205.98 345.562 211.43 345.562H348.971C349.945 345.562 349.945 374.996 348.971 374.996Z" fill="#F2B83B"/>
<path d="M429.777 360.28C429.777 365.1 430.509 368.451 432.734 371.586C433.164 374.996 432.347 374.996 431.333 374.996H348.95C343.273 374.996 338.672 368.407 338.672 360.28C338.672 352.152 343.273 345.562 348.95 345.562H431.333C432.347 345.562 433.36 346.603 432.734 348.972C430.515 352.106 429.777 355.457 429.777 360.28Z" fill="#FFCC4D"/>
<path d="M432.734 371.586H349.288C344.926 371.586 341.391 366.524 341.391 360.28C341.391 354.036 344.926 348.972 349.288 348.972H432.734C430.897 352.004 430.651 355.95 430.651 360.28C430.651 364.609 430.897 368.554 432.734 371.586Z" fill="url(#paint3_linear_212_8322)"/>
<path d="M359.305 369.611L356.841 364.69L352.273 369.639C352.273 369.639 354.724 361.145 352.448 354.894L359.251 354.866C361.115 361.118 359.305 369.611 359.305 369.611Z" fill="#F2453F"/>
<path d="M145.351 325.807C141.753 328.642 136.168 341.02 132.958 341.524C130.609 341.895 132.281 335.942 133.519 332.307C134.757 328.671 137.125 319.852 139.33 318.409C141.004 317.311 146.793 321.574 146.793 321.574C147.156 322.687 145.351 325.807 145.351 325.807Z" fill="#3A67C1"/>
<path d="M289.245 149.314C282.903 145.678 270.245 198.182 275.866 200.112L299.86 164.191L289.245 149.314Z" fill="#162A5C"/>
<path d="M275.866 299.824C298.548 329.884 381.775 318.227 381.775 318.227L329.482 191.848L309.204 226.482L275.866 299.824Z" fill="#1C3573"/>
<path d="M331.393 162.679C314.805 168.792 319.058 195.112 320.255 199.838C321.656 205.366 324.81 218.566 323.861 225.401C322.327 236.409 322.47 245.887 339.285 245.364C356.637 244.825 353.243 238.425 353.243 223.729C353.243 215.464 356.797 201.473 357.531 194.462C358.086 189.171 358.637 182.985 359.846 170.217C360.185 166.645 351.277 166.498 344.821 162.789C339.457 159.709 331.393 162.679 331.393 162.679Z" fill="#F1F2F2"/>
<path d="M330.688 161.063C330.688 161.063 332.028 159.762 338.037 159.258C344.046 158.754 344.702 161.063 344.702 161.063V163.772L330.688 164.191V161.063Z" fill="#E6E7E8"/>
<path d="M342.891 149.955C343.225 131.781 333.236 150.501 333.236 150.501C333.236 162.419 331.523 164.47 331.523 164.47L338.678 180.108L344.775 163.891C344.775 163.891 342.686 160.977 342.891 149.955Z" fill="#7A492D"/>
<path d="M335.393 168.997L338.677 180.108L333.291 171.071L335.393 168.997Z" fill="#E6E7E8"/>
<path d="M330.687 161.063L335.393 168.997L333.041 175.111L328.716 164.122L330.687 161.063Z" fill="white"/>
<path d="M341.46 167.385L338.677 180.108L342.854 170.925L341.46 167.385Z" fill="#E6E7E8"/>
<path d="M344.701 161.063L341.46 167.384L342.55 174.113L346.484 163.777L344.701 161.063Z" fill="white"/>
<path d="M407.909 145.261C410.073 141.61 414.846 144.07 414.846 144.07C414.846 144.07 406.464 172.317 401.425 175.651C400.704 176.133 392.592 180.198 391.42 180.105C388.443 179.868 392.125 169.091 393.146 167.382C394.478 165.158 402.218 154.895 407.909 145.261Z" fill="#8C5638"/>
<path d="M357.492 244.03C356.255 235.677 353.272 227.073 353.272 227.073C346.427 230.7 334.244 233.851 323.614 226.482C323.614 226.482 318.953 246.946 318.672 254.57C318.246 266.133 319.247 341.285 321.3 371.164C321.596 375.481 328.987 371.476 328.987 371.476C328.987 371.476 337.745 276.909 339.554 264.589L369.306 372.249C369.306 372.249 376.826 373.982 376.31 369.69C370.318 319.872 359.82 259.749 357.492 244.03Z" fill="#254799"/>
<path d="M324.794 368.402C322.202 368.402 320.012 370.702 319.298 373.863C319.045 374.988 319.779 376.092 320.831 376.092H328.764C329.745 376.092 330.544 375.11 330.327 374.057C329.669 370.798 327.438 368.402 324.794 368.402Z" fill="#F53B4A"/>
<path d="M351.272 166.498C356.852 163.006 391.539 166.84 394.284 165.158C397.529 163.174 402.564 195.716 405.935 212.022C406.931 216.845 361.37 202.025 361.231 206.528C360.781 220.954 351.272 166.498 351.272 166.498Z" fill="#1C3573"/>
<path d="M329.429 163.008C330.27 174.038 319.923 221.701 319.243 226.109C308.273 297.183 287.314 331.867 287.314 331.867C270.246 311.363 270.246 297.913 270.246 297.913C270.246 297.913 294.999 242.221 299.865 210.125C300.466 206.156 311.805 164.13 313.673 164.499C320.271 165.802 329.429 163.008 329.429 163.008Z" fill="#1F3B80"/>
<path d="M345.557 162.364C344.715 173.394 347.456 202.356 350.277 231.21C357.322 303.243 352.066 331.863 352.066 331.863L381.775 318.227C381.775 318.227 369.421 241.634 367.618 222.64C367.238 218.644 359.537 164.973 357.657 165.261C352.108 166.115 345.557 162.364 345.557 162.364Z" fill="#1F3B80"/>
<path d="M373.164 368.402C370.573 368.402 368.381 370.702 367.669 373.863C367.415 374.988 368.149 376.092 369.201 376.092H377.134C378.115 376.092 378.914 375.11 378.697 374.057C378.036 370.798 375.808 368.402 373.164 368.402Z" fill="#F53B4A"/>
<path d="M281.296 126.246C279.889 122.243 277.985 127.49 277.985 127.49C277.985 127.49 278.406 154.591 282.76 159.729C284.234 161.47 290.654 167.083 292.646 165.063C293.407 164.292 290.821 161.16 291.134 157.511C291.386 154.545 284.757 136.095 281.296 126.246Z" fill="#8C5638"/>
<path d="M415.851 133.236C414.488 132.005 412.104 132.499 411.747 132.88C411.39 133.261 411.917 134.914 411.917 134.914C411.917 134.914 410.44 135.75 409.185 136.345C407.255 137.26 407.454 140.975 408.399 145.385C409.344 149.796 412.042 146.662 412.042 146.662C413.915 144.974 417.812 141.65 417.987 139.594C418.163 137.538 417.211 134.463 415.851 133.236Z" fill="#8C5638"/>
<path d="M278.404 129.274C278.404 129.274 276.729 126.306 276.24 125.016C275.223 122.311 276.548 120.144 276.776 117.297C276.851 116.371 277.687 117.025 277.687 117.025C278.078 114.126 277.529 110.364 278.175 108.275C278.904 105.918 281.501 112.641 281.493 117.444C281.484 122.247 281.11 125.536 281.579 127.191C282.028 128.758 278.404 129.274 278.404 129.274Z" fill="#8C5638"/>
<path d="M352.045 133.682L350.275 133.326L351.949 132.929C351.803 131.809 351.644 130.74 351.523 129.952L349.227 130.999L351.156 128.618C349.73 128.089 337.92 126.918 332.123 132.608C330.514 134.185 328.916 139.487 330.603 148.281C330.603 148.281 340.438 153.299 343.448 151.283C346.457 149.267 349.133 145.918 349.965 143.397C350.161 142.795 352.298 135.731 352.045 133.682Z" fill="#162A5C"/>
<path d="M343.756 148.245C342.967 149.881 342.926 151.34 343.373 151.704C343.82 152.068 344.996 151.767 346.498 150.479C347.72 149.434 348.931 148.048 347.401 147.204C346.127 146.498 344.573 146.548 343.756 148.245Z" fill="#8C5638"/>
<path d="M331.82 143.476C331.472 145.288 330.652 146.436 330.098 146.399C329.521 146.361 328.814 145.303 328.409 143.249C328.081 141.585 327.96 139.667 329.626 140.099C331.018 140.462 332.182 141.597 331.82 143.476Z" fill="#8C5638"/>
<path d="M439.481 132.915C439.322 133.047 439.329 133.025 439.481 132.989C439.451 132.972 439.449 132.944 439.481 132.915Z" fill="#E33240"/>
<path d="M413.842 133.014C420.608 126.242 431.913 139.099 439.365 133.014C427.225 135.693 419.815 123.553 412.355 133.601C413.406 134.213 414.821 134.062 415.995 134.059C423.183 134.039 425.922 139.21 429.867 142.609C432.694 145.045 436.865 146.986 438.641 145.235C438.641 145.235 436.204 144.94 434.025 143.74C426.669 139.691 423.854 130.723 413.842 133.014Z" fill="#E33240"/>
<path d="M334.806 132.828C332.814 134.895 331.33 139.839 330.839 142.412C329.214 150.867 331.675 157.228 334.213 158.216C336.651 159.159 341.722 155.358 345.837 148.218C347.694 144.994 348.712 141.603 348.427 138.749C347.927 133.765 338.788 128.694 334.806 132.828Z" fill="#8C5638"/>
<path d="M289.245 149.314C293.077 166.596 275.932 199.83 275.866 200.112C275.8 200.394 291.877 204.282 301.228 204.282C304.362 204.282 322.221 169.682 315.531 164.861C308.841 160.039 289.245 149.314 289.245 149.314Z" fill="#1C3573"/>
<path d="M347.47 118.729L366.93 135.293C367.006 135.364 367.061 135.458 367.086 135.564C367.111 135.669 367.106 135.781 367.071 135.883C367.037 135.985 366.974 136.073 366.892 136.135C366.811 136.196 366.714 136.229 366.614 136.227L342.049 134.784C341.953 134.778 341.861 134.74 341.785 134.676L322.325 118.111C322.245 118.043 322.186 117.949 322.158 117.842C322.13 117.734 322.134 117.62 322.169 117.516C322.204 117.411 322.269 117.322 322.354 117.261C322.439 117.2 322.539 117.171 322.64 117.177L347.207 118.62C347.303 118.626 347.395 118.664 347.47 118.729Z" fill="#335BB8"/>
<path d="M341.079 136.599C346.517 138.632 350.494 141.672 349.964 143.389C349.964 143.403 349.953 143.414 349.949 143.428C349.946 143.441 349.949 143.451 349.941 143.465L353.386 132.682C353.386 132.669 353.386 132.657 353.393 132.645C353.4 132.633 353.405 132.62 353.409 132.607C353.939 130.887 349.96 127.844 344.524 125.816C339.087 123.789 334.249 123.527 333.719 125.242C333.719 125.256 333.719 125.27 333.709 125.283C333.7 125.297 333.7 125.306 333.696 125.318L330.51 135.636C331.636 134.37 336.101 134.738 341.079 136.599Z" fill="#27458C"/>
<path d="M373.113 156.265C373.071 156.264 373.03 156.254 372.991 156.235C372.953 156.216 372.919 156.188 372.891 156.154C372.839 156.089 367.676 149.444 365.851 135.252C365.846 135.21 365.848 135.167 365.858 135.125C365.867 135.084 365.884 135.045 365.908 135.011C365.955 134.942 366.025 134.896 366.103 134.884C366.181 134.872 366.26 134.894 366.322 134.946C366.385 134.998 366.427 135.075 366.438 135.161C368.241 149.16 373.289 155.657 373.336 155.721C373.387 155.786 373.413 155.871 373.408 155.957C373.403 156.043 373.367 156.123 373.308 156.18C373.255 156.234 373.186 156.264 373.113 156.265Z" fill="#335BB8"/>
<path d="M376.928 161.129C377.153 163.539 378.148 163.332 377.169 163.407C373.354 163.703 373.082 158.092 373.443 161.875C368.657 157.3 376.073 151.939 376.928 161.129Z" fill="#FFCC4D"/>
<path d="M372.116 155.426C372.012 155.64 371.969 155.884 371.993 156.125C372.016 156.367 372.105 156.595 372.247 156.78C372.389 156.966 372.579 157.1 372.791 157.165C373.004 157.231 373.229 157.225 373.438 157.148C373.648 157.071 373.831 156.927 373.965 156.735C374.099 156.542 374.178 156.309 374.191 156.067C374.204 155.825 374.15 155.584 374.037 155.375C373.925 155.166 373.757 155 373.558 154.897C373.431 154.827 373.294 154.786 373.153 154.775C373.012 154.764 372.871 154.783 372.737 154.832C372.603 154.881 372.479 154.959 372.373 155.061C372.266 155.163 372.179 155.287 372.116 155.426Z" fill="#FFCC4D"/>
<path d="M402.565 118.531C407.864 130.497 413.13 165.493 413.13 165.493L424.466 161.06C424.466 161.06 415.424 137.974 412.853 123.654C410.282 109.334 409.885 107.003 409.885 107.003C409.885 107.003 395.979 105.848 398.988 111.633C400.051 113.682 401.273 115.617 402.565 118.531Z" fill="#EAB53D"/>
<path d="M424.465 161.063C422.926 157.041 412.139 163.657 413.13 165.496C414.12 167.334 425.29 163.215 424.465 161.063Z" fill="#CC9E35"/>
<g style="mix-blend-mode:multiply" opacity="0.3">
<path d="M424.479 160.69C423.389 157.844 415.755 162.526 416.456 163.827C417.157 165.129 425.062 162.207 424.479 160.69Z" fill="#CC9E35"/>
</g>
<path d="M418.005 142.086C414.417 132.634 410.143 108.486 409.885 107.005C409.626 105.525 408.362 104.795 402.564 105.428L418.005 159.762C423.581 158.439 424.466 161.063 424.466 161.063C424.466 161.063 421.6 151.558 418.005 142.086Z" fill="#FFCC4D"/>
<path d="M414.846 131.154C414.846 131.154 408.457 130.255 407.144 133.785L407.707 136.243C408.638 133.411 415.336 133.13 415.336 133.13L414.846 131.154Z" fill="#F53B4A"/>
<path d="M406.378 142.675C404.909 138.169 405.443 137.352 407.111 135.643C408.78 133.933 409.223 131.779 409.77 133.198C410.317 134.617 408.723 137.274 408.723 137.274C408.723 137.274 408.603 140.429 408.93 142.086C409.257 143.744 408.218 145.79 408.218 145.79C408.218 145.79 406.662 143.555 406.378 142.675Z" fill="#8C5638"/>
<path d="M415.851 133.236C414.488 132.005 412.103 132.499 411.746 132.88C411.389 133.261 412.901 135.998 412.901 135.998C412.901 135.998 417.812 141.649 417.986 139.593C418.161 137.538 417.21 134.462 415.851 133.236Z" fill="#8C5638"/>
<path d="M205.894 144.705C205.73 148.953 201.89 162.829 187.301 168.195C172.711 173.562 164.647 171.323 164.647 171.323C164.647 171.323 163.303 201.457 190.18 208.43C217.058 215.403 237.635 180.577 235.888 161.437C234.142 142.297 228.119 140.66 223.671 136.449C219.224 132.239 205.894 144.705 205.894 144.705Z" fill="#F53B4A"/>
<path d="M271.17 129.268C272.973 125.461 274.175 130.372 274.175 130.372C274.175 130.372 267.296 154.63 262.454 159.211C260.186 161.354 253.911 162.192 253.799 159.651C253.666 156.665 266.739 138.631 271.17 129.268Z" fill="#ED996F"/>
<path d="M273.707 130.969C273.707 130.969 275.648 129.002 276.205 127.888C277.373 125.551 276.373 123.442 276.427 120.839C276.445 119.988 275.627 120.491 275.627 120.491C275.539 117.822 276.382 114.476 275.987 112.513C275.543 110.297 272.574 116.1 272.141 120.45C271.708 124.799 271.746 127.819 271.17 129.265C270.625 130.634 273.707 130.969 273.707 130.969Z" fill="#ED996F"/>
<path d="M232.368 169.218C240.001 166.705 254.504 157.225 255.868 154.897C257.231 152.568 278.728 174.783 279.879 176.684C281.031 178.585 258.14 199.761 240.723 195.036C223.305 190.311 232.368 169.218 232.368 169.218Z" fill="#1C3573"/>
<path d="M248.349 231.009C250.845 259.35 248.279 324.159 248.279 324.159C248.279 324.159 224.768 325.555 213.042 315.482C201.315 305.41 165.222 292.529 152.552 294.317C139.882 296.104 217.512 171.317 217.512 171.317L234.686 178.858L248.349 231.009Z" fill="#1C3573"/>
<path d="M243.421 365.735C246.998 368.602 259.428 370.541 260.876 373.734C261.935 376.071 256.275 376.198 252.751 376.049C249.226 375.901 240.873 376.199 238.935 374.353C237.461 372.951 239.316 365.562 239.316 365.562C240.161 364.833 243.421 365.735 243.421 365.735Z" fill="#3A67C1"/>
<path d="M224.161 229.136C224.544 236.53 224.536 239.765 224.536 239.765C224.536 239.765 234.892 296.985 235.381 304.188C235.871 311.391 243.555 363.284 244.318 365.617C245.081 367.951 239.327 367.932 238.175 365.617C237.022 363.302 222.453 314.865 222.443 309.294C222.434 303.724 212.243 283.654 207.554 256.498C206.17 248.473 213.218 223.786 213.218 223.786L224.161 229.136Z" fill="#E33240"/>
<path d="M222.572 228.35C222.091 246.309 197.09 304.91 195.167 307.803C193.244 310.696 148.901 324.642 146.596 325.699C144.292 326.756 142.565 319.993 143.712 319.36C144.858 318.726 177.992 298.019 181.298 298.019C184.603 298.019 193.817 256.18 193.817 256.18C193.817 256.18 188.442 237.806 201.113 226.396C213.785 214.986 222.572 228.35 222.572 228.35Z" fill="#F53B4A"/>
<path d="M227.231 169.554C231.579 186.456 236.063 189.25 235.295 195.036C234.527 200.822 228.778 202.752 228.778 202.752C228.778 202.752 225.119 224.91 224.16 229.136C223.201 233.361 207.266 229.665 205.73 225.65L203.965 204.415C203.965 204.415 196.574 171.238 201.123 169.554C209.378 166.498 227.231 169.554 227.231 169.554Z" fill="#F1F2F2"/>
<path d="M213.986 153.178C215.233 158.461 214.078 168.19 213.121 168.196C212.165 168.201 220.033 178.646 223.872 178.856C227.711 179.067 225.617 169.301 225.038 169.222C224.459 169.143 221.76 165.121 221.088 155.82C220.416 146.519 213.986 153.178 213.986 153.178Z" fill="#E3885B"/>
<path d="M213.121 168.196C216.817 170.821 222.385 173.16 223.536 173.16C224.688 173.16 200.546 276.872 151.88 304.188C151.88 304.188 137.993 294.802 120.171 302.378C120.171 302.378 157.941 269.042 170.747 248.261C186.436 222.798 195.715 169.373 199.642 168.196C203.569 167.018 213.121 168.196 213.121 168.196Z" fill="#27458C"/>
<path d="M190.66 167.243C196.803 167.863 198.813 168.256 200.297 168.037C201.782 167.817 203.6 179.158 200.297 185.763C196.994 192.368 182.362 201.784 168.898 203.839C155.433 205.893 190.66 167.243 190.66 167.243Z" fill="#1C3573"/>
<path d="M225.038 169.218C225.974 172.634 222.241 173.089 223.824 173.716C225.407 174.343 234.239 183.43 248.344 230.995C248.344 230.995 245.465 184.883 232.358 169.209L225.038 169.218Z" fill="#27458C"/>
<path d="M187.3 168.195C178.592 174.248 162.248 197.444 162.248 202.752C162.248 208.061 191.335 199.027 196.228 184.291C201.12 169.554 191.84 165.04 187.3 168.195Z" fill="#162A5C"/>
<path d="M191.357 167.318L187.345 180.444C190.625 180.785 193.925 180.829 197.211 180.576C198.859 172.086 195.122 167.906 191.357 167.318Z" fill="#E3885B"/>
<path d="M208.167 143.942C207.944 146.629 209.609 150.912 210.662 152.961C214.125 159.695 219.202 162.36 221.435 161.364C223.579 160.408 224.934 154.552 223.85 147.077C223.361 143.703 222.221 140.767 220.485 139.036C217.475 136.014 208.613 138.573 208.167 143.942Z" fill="#F29C6D"/>
<path d="M216.19 137.767C216.745 145.572 209.626 146.731 211.425 154.336C213.225 161.941 206.532 147.36 206.635 144.037C206.739 140.714 216.19 137.767 216.19 137.767Z" fill="#F53B4A"/>
<path d="M219.382 125.155C219.351 125.072 219.305 124.997 219.248 124.934C219.19 124.871 219.122 124.821 219.046 124.787C218.971 124.753 218.891 124.736 218.809 124.736C218.728 124.736 218.647 124.754 218.572 124.789L201.912 132.452C201.837 132.486 201.769 132.537 201.711 132.6C201.654 132.664 201.609 132.739 201.578 132.822C201.547 132.905 201.531 132.993 201.532 133.083C201.532 133.172 201.548 133.261 201.58 133.343L205.869 144.638C205.869 144.649 205.879 144.658 205.883 144.668C205.887 144.679 205.883 144.694 205.894 144.705C206.484 146.257 210.942 145.683 215.863 143.422C220.784 141.162 224.286 138.069 223.698 136.517C223.698 136.505 223.685 136.494 223.681 136.483C223.678 136.471 223.675 136.46 223.671 136.449L219.382 125.155Z" fill="#27458C"/>
<path d="M208.651 124.093L229.205 121.976C229.29 121.967 229.374 121.989 229.447 122.037C229.52 122.085 229.577 122.157 229.61 122.243C229.642 122.329 229.649 122.425 229.629 122.515C229.609 122.606 229.563 122.687 229.499 122.747L213.686 137.356C213.625 137.413 213.548 137.449 213.468 137.458L192.914 139.574C192.829 139.583 192.745 139.562 192.672 139.514C192.599 139.466 192.542 139.393 192.509 139.307C192.477 139.221 192.47 139.126 192.49 139.035C192.51 138.944 192.556 138.863 192.621 138.803L208.433 124.193C208.495 124.136 208.571 124.101 208.651 124.093Z" fill="#335BB8"/>
<path d="M179.931 154.657C179.865 154.657 179.802 154.633 179.751 154.587C179.7 154.542 179.664 154.479 179.65 154.409C179.636 154.339 179.644 154.265 179.674 154.2C179.703 154.136 179.751 154.084 179.81 154.054C179.878 154.02 186.6 150.469 193.249 138.645C193.267 138.607 193.292 138.573 193.323 138.546C193.354 138.519 193.39 138.499 193.428 138.488C193.466 138.476 193.505 138.474 193.544 138.48C193.583 138.486 193.621 138.501 193.655 138.524C193.688 138.547 193.717 138.577 193.74 138.612C193.762 138.648 193.778 138.688 193.786 138.73C193.794 138.773 193.794 138.817 193.786 138.859C193.778 138.902 193.762 138.942 193.739 138.977C186.991 150.98 180.123 154.587 180.054 154.628C180.016 154.648 179.973 154.658 179.931 154.657Z" fill="#335BB8"/>
<path d="M174.755 157.264C173.682 159.342 172.902 158.69 173.716 159.215C176.886 161.26 179.173 156.305 177.476 159.563C183.267 157.65 178.848 149.337 174.755 157.264Z" fill="#FFCC4D"/>
<path d="M180.975 154.341C180.975 154.569 180.914 154.791 180.799 154.98C180.684 155.17 180.52 155.317 180.329 155.404C180.138 155.491 179.928 155.514 179.725 155.47C179.522 155.425 179.336 155.315 179.19 155.154C179.043 154.993 178.944 154.788 178.904 154.565C178.864 154.341 178.884 154.11 178.964 153.9C179.043 153.69 179.177 153.51 179.349 153.384C179.521 153.257 179.724 153.19 179.931 153.19C180.068 153.19 180.204 153.22 180.33 153.278C180.457 153.336 180.572 153.421 180.669 153.527C180.766 153.634 180.843 153.761 180.896 153.901C180.948 154.04 180.975 154.19 180.975 154.341Z" fill="#FFCC4D"/>
<path d="M197.919 146.737C198.463 142.487 194.914 144.526 194.914 144.526C194.914 144.526 184.968 163.001 184.794 170.012C184.712 173.298 185.232 181.293 187.345 180.44C191.355 178.825 196.49 157.934 197.919 146.737Z" fill="#ED996F"/>
<path fill-rule="evenodd" clip-rule="evenodd" d="M195.471 146.774C194.63 146.26 194.688 145.551 194.914 144.525C195.25 142.999 195.654 139.114 195.889 138.533C196.185 137.801 200.026 133.158 200.8 132.943C202.091 132.582 205.08 132.247 203.528 133.859C200.868 136.621 200.747 141.751 199.071 144.754C198.488 145.803 196.441 147.371 195.471 146.774Z" fill="#ED996F"/>
<path d="M387.085 14.6646C389.823 6.46295 397.218 0.563019 405.935 0.563019C414.651 0.563019 422.041 6.45633 424.784 14.6646C432.03 14.7969 437.864 21.0302 437.864 28.7068H374.005C374.005 21.0302 379.84 14.8022 387.085 14.6646Z" fill="#F3F3F3"/>
<path d="M525.749 378.451H23.3779C22.8041 378.451 22.2538 378.2 21.848 377.753C21.4423 377.307 21.2144 376.701 21.2144 376.069C21.2144 375.438 21.4423 374.832 21.848 374.386C22.2538 373.939 22.8041 373.688 23.3779 373.688H525.749C526.323 373.688 526.873 373.939 527.279 374.386C527.684 374.832 527.912 375.438 527.912 376.069C527.912 376.701 527.684 377.307 527.279 377.753C526.873 378.2 526.323 378.451 525.749 378.451Z" fill="#70A5F2"/>
<defs>
<linearGradient id="paint0_linear_212_8322" x1="327.785" y1="288.478" x2="327.785" y2="308.209" gradientUnits="userSpaceOnUse">
<stop stop-color="#FFFEFA"/>
<stop offset="1" stop-color="#E1E4ED"/>
</linearGradient>
<linearGradient id="paint1_linear_212_8322" x1="324.84" y1="315.412" x2="324.84" y2="341.367" gradientUnits="userSpaceOnUse">
<stop stop-color="#F0F1F4"/>
<stop offset="1" stop-color="#D3D5DE"/>
</linearGradient>
<linearGradient id="paint2_linear_212_8322" x1="381.175" y1="341.368" x2="381.175" y2="315.412" gradientUnits="userSpaceOnUse">
<stop stop-color="#E1E4ED"/>
<stop offset="1" stop-color="#FFFEFA"/>
</linearGradient>
<linearGradient id="paint3_linear_212_8322" x1="292051" y1="-31656.9" x2="292051" y2="-27259.5" gradientUnits="userSpaceOnUse">
<stop stop-color="#FFFEFA"/>
<stop offset="1" stop-color="#E1E4ED"/>
</linearGradient>
</defs>
</svg>
